<?xml version="1.0" standalone="no"?>
<!DOCTYPE svg PUBLIC "-//W3C//DTD SVG 1.1//EN" "http://www.w3.org/Graphics/SVG/1.1/DTD/svg11.dtd" >
<svg>
<metadata>
Created by FontForge 20110222 at Mon Jul 28 12:31:30 2014
 By Orthosie Webhosting
Copyright (c) 2006, Modular Infotech, Pune, INDIA. - Licenced to Microsoft
</metadata>
<defs>
<font id="AparajitaBold" horiz-adv-x="824" >
  <font-face 
    font-family="AparajitaBold"
    font-weight="700"
    font-stretch="normal"
    units-per-em="2048"
    panose-1="2 11 8 4 2 2 2 2 2 4"
    ascent="1638"
    descent="-410"
    x-height="753"
    cap-height="1092"
    bbox="-1148 -832 2580 1500"
    underline-thickness="122"
    underline-position="-333"
    unicode-range="U+0020-25CC"
  />
<missing-glyph horiz-adv-x="800" 
d="M100 700h600v-700h-600v700zM650 50v600h-500v-600h500z" />
    <glyph glyph-name=".notdef" horiz-adv-x="800" 
d="M100 700h600v-700h-600v700zM650 50v600h-500v-600h500z" />
    <glyph glyph-name=".null" horiz-adv-x="0" 
 />
    <glyph glyph-name="nonmarkingreturn" horiz-adv-x="0" 
 />
    <glyph glyph-name="space" unicode=" " horiz-adv-x="412" 
 />
    <glyph glyph-name="exclam" unicode="!" horiz-adv-x="549" 
d="M293 355h-35q-6 92 -37 222l-42 176q-38 157 -38 226q0 62 37 100t97 38q57 0 95.5 -38.5t38.5 -97.5q0 -61 -40 -228l-43 -176q-23 -93 -33 -222zM276 240q54 0 92.5 -38.5t38.5 -92.5t-38.5 -92.5t-92.5 -38.5t-92 38.5t-38 92.5t37.5 92.5t92.5 38.5z" />
    <glyph glyph-name="quotedbl" unicode="&#x22;" horiz-adv-x="915" 
d="M281 580h-39l-84 310q-16 61 -16 107q0 50 35 85t84 35q56 0 87.5 -37t31.5 -79q0 -37 -19 -112zM670 580h-40l-82 310q-19 70 -19 109q0 47 36 82.5t85 35.5q58 0 88 -38t30 -78q0 -28 -21 -111z" />
    <glyph glyph-name="numbersign" unicode="#" 
d="M72 -23l70 342h-110v107h131l47 235h-178v105h199l70 348h106l-71 -348h238l69 348h106l-70 -348h112v-105h-133l-48 -235h181v-107h-201l-69 -342h-107l69 342h-234l-73 -342h-104zM270 426h236l47 235h-237z" />
    <glyph glyph-name="dollar" unicode="$" 
d="M456 672q192 -121 245 -183q71 -84 71 -198q0 -124 -83.5 -209.5t-232.5 -98.5v-94h-70v88q-86 2 -152 14.5t-151 45.5v260h34q16 -89 50.5 -143.5t87.5 -82.5t131 -34v398q-194 121 -258 194t-64 170q0 104 80.5 184t241.5 101v37h70v-37q136 -10 275 -85v-233h-31
q-24 79 -56.5 130t-84.5 87q-39 26 -103 44v-355zM386 1030q-59 -5 -95 -33q-56 -42 -56 -103q0 -37 26 -74.5t125 -103.5v314zM456 37q69 16 101 55t32 98q0 51 -28.5 95t-104.5 101v-349z" />
    <glyph glyph-name="percent" unicode="%" horiz-adv-x="1649" 
d="M1266 1117l-775 -1163h-108l775 1163h108zM385 1117q114 0 192.5 -81t78.5 -209q0 -131 -79 -213t-195 -82t-192 79t-76 208q0 133 78 215.5t193 82.5zM385 1074q-18 0 -29 -11q-20 -18 -30 -63.5t-10 -188.5q0 -113 13 -175q8 -35 28 -53q12 -11 28 -11q18 0 28 10
q18 17 27 55q14 61 14 171q0 135 -13 196q-9 42 -29 61q-9 9 -27 9zM1261 540q116 0 194.5 -80t79.5 -210q-1 -131 -80.5 -213t-192.5 -82q-112 0 -190.5 82t-78.5 211q0 130 76.5 211t191.5 81zM1263 498q-16 0 -27 -9q-20 -18 -30.5 -62t-10.5 -168q0 -132 13 -190
q8 -41 29 -59q11 -10 28 -10q15 0 25 9q20 18 29 60q14 59 14 178q0 126 -13 184q-9 42 -29 58q-9 9 -28 9z" />
    <glyph glyph-name="ampersand" unicode="&#x26;" horiz-adv-x="1373" 
d="M939 653h335v-32q-57 -8 -89 -33t-83.5 -117.5t-145.5 -207.5q82 -74 134 -103q36 -20 71 -20q59 0 108 78l33 -18q-66 -129 -141 -184q-57 -41 -131 -41q-62 0 -119 27t-138 101q-101 -68 -189.5 -98t-184.5 -30q-153 0 -243 83t-90 195q0 121 86 210t251 154
q-21 53 -31.5 103t-10.5 96q0 129 90.5 215t231.5 86q113 0 179.5 -57t66.5 -133q0 -91 -68 -155.5t-215 -118.5q91 -160 266 -345q118 132 118 227q0 34 -23 58t-68 28v32zM618 701q85 32 114 67.5t29 86.5q0 90 -48 152q-31 41 -77 41q-38 0 -65 -29.5t-27 -80.5
q0 -40 13 -85t61 -152zM425 566q-64 -27 -91 -58q-38 -45 -38 -101q0 -75 44 -150t106 -116t124 -41q31 0 69 13t83 40q-194 199 -297 413z" />
    <glyph glyph-name="quotesingle" unicode="'" horiz-adv-x="458" 
d="M252 581h-39l-84 308q-16 57 -16 105q0 53 34 88t84 35q57 0 88 -37.5t31 -80.5q0 -36 -18 -109z" />
    <glyph glyph-name="parenleft" unicode="(" horiz-adv-x="549" 
d="M530 1117v-37q-84 -55 -123 -108q-55 -72 -86 -186q-38 -140 -38 -393q0 -238 35 -370t95 -214q42 -56 117 -99v-40q-194 65 -329 266t-135 462q0 257 134.5 455.5t329.5 263.5z" />
    <glyph glyph-name="parenright" unicode=")" horiz-adv-x="549" 
d="M20 -330v37q84 56 123 108q54 72 86 185q38 142 38 394q0 239 -35 370.5t-95 212.5q-42 57 -117 99v41q194 -66 329 -266.5t135 -461.5q0 -257 -135 -455.5t-329 -263.5z" />
    <glyph glyph-name="asterisk" unicode="*" 
d="M397 799q-3 46 -9.5 70.5t-33 75t-26.5 78.5q0 37 26.5 65.5t57.5 28.5q35 0 60 -26.5t25 -68.5q0 -33 -24.5 -79.5t-31.5 -71t-11 -72.5q45 18 64.5 31.5t56.5 54.5q51 54 98 54q35 0 59.5 -23.5t24.5 -55.5q0 -35 -30 -61.5t-78 -26.5q-16 0 -57 2q-19 1 -42 1
q-29 0 -90 -3q35 -39 54.5 -54t67 -39.5t67.5 -51.5q16 -20 16 -51q0 -35 -23.5 -59t-56.5 -24q-35 0 -62.5 29t-38.5 102q-6 47 -13.5 69t-32.5 64q-27 -43 -36 -66.5t-15 -66.5q-10 -73 -37 -100.5t-62 -27.5q-33 0 -56.5 22.5t-23.5 53.5q0 33 18 58t66.5 52t67 41
t54.5 49l-87 3q-22 0 -42 -1q-48 -3 -65 -3q-46 0 -75 26t-29 61q0 33 23.5 57t59.5 24q51 0 98 -48.5t60 -58.5q20 -14 64 -33z" />
    <glyph glyph-name="plus" unicode="+" horiz-adv-x="939" 
d="M32 599h387v386h106v-386h387v-106h-387v-384h-106v384h-387v106z" />
    <glyph glyph-name="comma" unicode="," horiz-adv-x="412" 
d="M82 -289v35q93 41 135.5 105t42.5 130q0 14 -6 21q-5 7 -11 7q-5 0 -14 -6q-24 -13 -58 -13q-48 0 -83 37t-35 87q0 53 40.5 93t97.5 40q69 0 118 -53.5t49 -146.5q0 -115 -69.5 -204.5t-206.5 -131.5z" />
    <glyph glyph-name="hyphen" unicode="-" horiz-adv-x="549" 
d="M510 295h-470v167h470v-167z" />
    <glyph glyph-name="period" unicode="." horiz-adv-x="412" 
d="M206 248q56 0 95.5 -39.5t39.5 -94.5q0 -56 -39.5 -95t-95.5 -39q-55 0 -94.5 39t-39.5 95q0 55 39.5 94.5t94.5 39.5z" />
    <glyph glyph-name="slash" unicode="/" horiz-adv-x="458" 
d="M463 1117l-358 -1142h-103l359 1142h102z" />
    <glyph glyph-name="zero" unicode="0" 
d="M764 546q0 -164 -46 -305q-27 -87 -73.5 -142.5t-105 -88.5t-128.5 -33q-79 0 -142.5 40.5t-112.5 115.5q-35 55 -62 146q-34 123 -34 254q0 178 49 327q42 123 125.5 188.5t176.5 65.5q95 0 177.5 -64.5t121.5 -174.5q54 -150 54 -329zM516 547q0 287 -3 334
q-8 112 -39 152q-20 26 -65 26q-35 0 -55 -20q-30 -28 -40.5 -99t-10.5 -497q0 -232 17 -311q12 -57 34.5 -76.5t59.5 -19.5q40 0 60 26q34 45 39 139z" />
    <glyph glyph-name="one" unicode="1" 
d="M537 1114v-893q0 -100 9 -128t37 -45.5t90 -17.5h25v-30h-575v30h29q70 0 100 16t40.5 44t10.5 131v566q0 76 -7.5 95t-27 32t-45.5 13q-41 0 -100 -25l-14 29l401 183h27z" />
    <glyph glyph-name="two" unicode="2" 
d="M683 0h-643v18q296 351 359 473t63 238q0 84 -52.5 140t-127.5 56q-124 0 -193 -124l-29 10q43 155 131.5 229t204.5 74q83 0 151.5 -38.5t107 -106t38.5 -125.5q0 -107 -59 -218q-82 -149 -355 -415h235q87 0 113.5 7t43 24.5t44.5 73.5h29z" />
    <glyph glyph-name="three" unicode="3" 
d="M244 547v29q92 26 127.5 49t61 70t25.5 96q0 66 -48.5 114t-121.5 48q-113 0 -191 -119l-30 10q58 135 148.5 202.5t201.5 67.5q113 0 187 -69t74 -162q0 -60 -34.5 -116t-107.5 -99q94 -46 143.5 -113t49.5 -169q0 -170 -123.5 -289.5t-330.5 -119.5q-139 0 -203 46
q-45 32 -45 82q0 37 26.5 63.5t60.5 26.5q27 0 50 -11q13 -7 91.5 -71t147.5 -64q59 0 101.5 47t42.5 120q0 110 -77 203t-226 128z" />
    <glyph glyph-name="four" unicode="4" 
d="M41 411l518 703h99v-703h100v-166h-100v-245h-222v245h-395v166zM119 411h317v431z" />
    <glyph glyph-name="five" unicode="5" 
d="M251 1092h511l-81 -208h-430l-41 -109q278 -10 428 -138q123 -106 123 -263q0 -100 -57.5 -196.5t-161 -148.5t-227.5 -52q-134 0 -206 50q-49 36 -49 81q0 34 26 61t61 27q31 0 63 -13t110 -68q49 -34 85 -47q25 -9 56 -9q66 0 112.5 48t46.5 116q0 142 -142 230.5
t-357 88.5q-22 0 -65 -1z" />
    <glyph glyph-name="six" unicode="6" 
d="M774 1114v-22q-145 -37 -233.5 -95.5t-139.5 -142t-79 -206.5q35 24 59 31q52 17 105 17q123 0 204.5 -89t81.5 -243q0 -108 -44.5 -198t-125.5 -139.5t-174 -49.5q-100 0 -185.5 55.5t-133.5 161.5t-48 231q0 184 88 342t250.5 252t374.5 95zM312 583q-7 -111 -7 -163
q0 -111 21.5 -215t58.5 -145q26 -30 63 -30t66 43t29 175q0 222 -54 307q-35 54 -94 54q-32 0 -83 -26z" />
    <glyph glyph-name="seven" unicode="7" 
d="M292 -23l297 901h-226q-133 0 -200 -34q-46 -25 -77 -91h-30l78 339h651l-366 -1115h-127z" />
    <glyph glyph-name="eight" unicode="8" 
d="M562 617q115 -85 159.5 -158t44.5 -167q0 -132 -99 -223.5t-270 -91.5q-162 0 -250.5 80t-88.5 195q0 88 51 154t170 120q-129 99 -166 162t-37 146q0 109 93 192.5t255 83.5q156 0 240.5 -73.5t84.5 -176.5q0 -78 -45.5 -137t-141.5 -106zM501 658q29 40 43.5 90
t14.5 109q0 105 -45 161q-33 42 -93 42q-54 0 -92 -39t-38 -97q0 -59 42.5 -122t167.5 -144zM340 488q-25 -23 -36 -41q-16 -28 -29 -82t-13 -113q0 -76 19.5 -127t55.5 -73.5t74 -22.5q58 0 98.5 43t40.5 118q0 156 -210 298z" />
    <glyph glyph-name="nine" unicode="9" 
d="M51 -23v23q133 31 226 90.5t147.5 147t76.5 202.5q-50 -26 -85 -36t-74 -10q-124 0 -206.5 89t-82.5 245q0 108 44.5 197.5t127.5 139t173 49.5q95 0 180.5 -54.5t136.5 -158.5t51 -237q0 -172 -82.5 -330t-246 -253t-386.5 -104zM513 507q8 90 8 159q0 146 -34 273
q-19 70 -57 103q-20 17 -52 17q-41 0 -63 -34q-32 -48 -32 -181q0 -223 53 -308q35 -55 94 -55q31 0 83 26z" />
    <glyph glyph-name="colon" unicode=":" horiz-adv-x="549" 
d="M275 774q56 0 95 -39t39 -94q0 -56 -39 -95t-95 -39q-55 0 -94 39t-39 95q0 55 39 94t94 39zM275 248q56 0 95 -39.5t39 -94.5q0 -56 -39.5 -95t-94.5 -39q-56 0 -95 39t-39 95q0 55 39 94.5t95 39.5z" />
    <glyph glyph-name="semicolon" unicode=";" horiz-adv-x="549" 
d="M275 774q55 0 93.5 -38.5t38.5 -93.5q0 -56 -39 -95t-93 -39q-56 0 -95 39t-39 95q0 55 38.5 93.5t95.5 38.5zM151 -289v35q94 41 136 105t42 130q0 14 -5 21q-6 7 -12 7q-4 0 -14 -6q-23 -13 -58 -13q-48 0 -83 37t-35 87q0 53 40.5 93t97.5 40q69 0 118 -53.5
t49 -146.5q0 -115 -69.5 -204.5t-206.5 -131.5z" />
    <glyph glyph-name="less" unicode="&#x3c;" horiz-adv-x="939" 
d="M912 149l-879 359v65l879 363v-111l-680 -284l680 -279v-113z" />
    <glyph glyph-name="equal" unicode="=" horiz-adv-x="939" 
d="M32 728h881v-105h-881v105zM32 464h881v-104h-881v104z" />
    <glyph glyph-name="greater" unicode="&#x3e;" horiz-adv-x="939" 
d="M33 936l879 -358v-66l-879 -363v112l680 283l-680 280v112z" />
    <glyph glyph-name="question" unicode="?" 
d="M391 356h-33q-1 89 9 133.5t52 122t55.5 124.5t13.5 116q0 108 -42 158.5t-99 50.5q-44 0 -73 -23q-23 -18 -23 -37q0 -13 15 -41q35 -62 35 -105q0 -40 -27 -66.5t-67 -26.5q-45 0 -75.5 32t-30.5 84q0 95 82 167t229 72q156 0 238 -74.5t82 -180.5q0 -76 -42 -141
t-162 -144q-80 -53 -105.5 -94.5t-31.5 -126.5zM382 238q54 0 92 -37.5t38 -91.5t-38 -92.5t-92 -38.5t-91.5 38.5t-37.5 92.5t37.5 91.5t91.5 37.5z" />
    <glyph glyph-name="at" unicode="@" horiz-adv-x="1534" 
d="M949 745l197 8l-148 -506q-25 -84 -25 -125q0 -26 19 -45t46 -19q56 0 144 64t145.5 182.5t57.5 253.5q0 222 -142.5 365t-372.5 143q-198 0 -359.5 -93t-256.5 -270t-95 -380q0 -279 177.5 -456.5t451.5 -177.5q226 0 405.5 121.5t254.5 322.5h49q-96 -237 -281 -363
t-430 -126q-309 0 -510.5 200t-201.5 507q0 211 100 391t280 277.5t399 97.5q178 0 311.5 -71.5t200 -200.5t66.5 -272q0 -166 -72 -304t-179.5 -203.5t-231.5 -65.5q-79 0 -121 39.5t-42 101.5q0 43 19 113q-67 -111 -104 -153q-50 -58 -100 -84q-32 -17 -74 -17
q-57 0 -96 45.5t-39 133.5q0 90 26.5 176.5t71.5 162.5t104 136.5t133 99.5q38 21 81 21q45 0 74.5 -28t40.5 -98zM828 717q-31 0 -61 -34q-40 -45 -86 -153q-82 -192 -82 -309q0 -35 15 -54.5t32 -19.5q16 0 45 23q41 31 87.5 106t76.5 166.5t30 168.5q0 56 -21 85
q-16 21 -36 21z" />
    <glyph glyph-name="A" unicode="A" horiz-adv-x="1191" 
d="M686 311h-386l-46 -107q-22 -53 -22 -87q0 -46 37 -68q22 -13 107 -19v-30h-363v30q59 9 96.5 48.5t93.5 164.5l390 871h16l393 -895q57 -127 93 -160q27 -25 77 -29v-30h-528v30h22q63 0 89 17q18 13 18 38q0 14 -5 29q-2 8 -24 61zM658 370l-162 376l-168 -376h330z
" />
    <glyph glyph-name="B" unicode="B" horiz-adv-x="1100" 
d="M733 579q156 -36 219 -88q90 -73 90 -190q0 -123 -99 -204q-122 -97 -354 -97h-554v30q75 0 102 14t38 36.5t11 111.5v708q0 89 -11 111.5t-38.5 36.5t-101.5 14v30h523q187 0 265.5 -33.5t123.5 -100t45 -141.5q0 -79 -57.5 -140.5t-201.5 -97.5zM440 601
q115 0 169 25.5t83 72t29 119.5q0 72 -28.5 118.5t-81.5 70.5t-171 23v-429zM440 538v-350v-41q0 -43 22 -65t65 -22q65 0 119 28.5t83 82.5t29 121q0 77 -35.5 137.5t-97 85t-185.5 23.5z" />
    <glyph glyph-name="C" unicode="C" horiz-adv-x="1191" 
d="M1100 1117v-379h-31q-35 148 -132 227t-219 79q-102 0 -187.5 -58.5t-124.5 -153.5q-51 -122 -51 -271q0 -146 37 -266.5t116 -182t204 -61.5q103 0 189 45t181 155v-94q-92 -96 -191.5 -139t-232.5 -43q-174 0 -309.5 70t-209.5 201.5t-74 279.5q0 156 82 296
t220.5 217.5t295.5 77.5q115 0 243 -50q74 -29 94 -29q26 0 44.5 18.5t24.5 60.5h31z" />
    <glyph glyph-name="D" unicode="D" horiz-adv-x="1191" 
d="M22 0v30h36q47 0 72.5 15t37.5 40q7 17 7 102v718q0 84 -8.5 104.5t-35.5 36.5t-73 16h-36v30h488q196 0 315 -54q146 -65 221 -197t75 -298q0 -116 -37 -213t-95.5 -160t-135.5 -101t-188 -59q-49 -10 -155 -10h-488zM438 1030v-852q0 -68 6.5 -83t21.5 -23
q22 -12 63 -12q134 0 205 91q97 124 97 385q0 210 -66 336q-53 98 -135 133q-58 25 -192 25z" />
    <glyph glyph-name="E" unicode="E" horiz-adv-x="1100" 
d="M449 1029v-445h22q104 0 150.5 65.5t59.5 192.5h31v-572h-31q-10 94 -41 153.5t-72 80t-119 20.5v-307q0 -91 7.5 -111t28.5 -33t68 -13h65q153 0 245.5 71t132.5 216h30l-50 -347h-943v30h36q48 0 77 17q21 11 32 38q9 20 9 102v718q0 74 -4 91q-8 28 -30 43
q-31 23 -84 23h-36v30h914v-323h-31q-23 118 -65.5 169.5t-119.5 75.5q-45 15 -169 15h-113z" />
    <glyph glyph-name="F" unicode="F" horiz-adv-x="1007" 
d="M453 1029v-449h32q72 0 118 22t77.5 73.5t41.5 139.5h28v-549h-28q-15 156 -83 205.5t-154 49.5h-32v-334q0 -84 9.5 -105t36.5 -36.5t73 -15.5h36v-30h-571v30h36q48 0 77 17q21 11 32 38q9 20 9 102v718q0 84 -9 104.5t-36 36.5t-73 16h-36v30h921v-314h-33
q-11 111 -57.5 164t-134.5 75q-48 12 -178 12h-102z" />
    <glyph glyph-name="G" unicode="G" horiz-adv-x="1282" 
d="M1137 1117v-385h-29q-54 158 -162 240t-236 82q-122 0 -203.5 -69t-115.5 -192t-34 -253q0 -157 37 -275t120 -174t196 -56q39 0 80.5 8.5t85.5 24.5v227q0 65 -9 84t-36.5 34t-67.5 15h-28v30h530v-30q-60 -4 -83.5 -16.5t-36.5 -41.5q-8 -15 -8 -75v-227
q-104 -46 -217 -70t-235 -24q-155 0 -258 42.5t-181.5 111t-122.5 155.5q-56 111 -56 248q0 247 173 416.5t435 169.5q82 0 147 -13q35 -6 114.5 -36t93.5 -30q23 0 42.5 16.5t35.5 62.5h29z" />
    <glyph glyph-name="H" unicode="H" horiz-adv-x="1282" 
d="M451 525v-338q0 -84 9 -105t36 -36.5t73 -15.5h36v-30h-570v30h36q47 0 76 17q21 11 33 38q8 20 8 102v718q0 84 -8.5 104.5t-35.5 36.5t-73 16h-36v30h570v-30h-36q-47 0 -76 -17q-21 -11 -33 -39q-9 -19 -9 -101v-309h385v309q0 84 -8.5 104.5t-36 36.5t-73.5 16h-35
v30h570v-30h-36q-48 0 -76 -17q-21 -11 -33 -39q-9 -19 -9 -101v-718q0 -84 9 -105t36 -36.5t73 -15.5h36v-30h-570v30h35q48 0 77 17q20 11 33 38q8 20 8 102v338h-385z" />
    <glyph glyph-name="I" unicode="I" horiz-adv-x="642" 
d="M604 30v-30h-571v30h36q48 0 77 17q21 11 32 38q9 20 9 102v718q0 84 -9 104.5t-36 36.5t-73 16h-36v30h571v-30h-36q-48 0 -77 -17q-21 -11 -33 -39q-9 -19 -9 -101v-718q0 -84 9.5 -105t36.5 -36.5t73 -15.5h36z" />
    <glyph glyph-name="J" unicode="J" 
d="M234 1062v30h581v-30h-36q-48 0 -77 -17q-20 -11 -32 -39q-9 -19 -9 -101v-535q0 -157 -31.5 -228t-111.5 -119t-193 -48q-137 0 -222 72.5t-85 160.5q0 56 34.5 91t84.5 35q49 0 82.5 -31.5t33.5 -77.5q0 -22 -6 -39q-3 -8 -25 -40.5t-22 -46.5q0 -21 21 -36
q30 -23 79 -23q35 0 57.5 18t31.5 55.5t9 207.5v584q0 84 -9 104.5t-36 36.5t-73 16h-46z" />
    <glyph glyph-name="K" unicode="K" horiz-adv-x="1282" 
d="M687 674l384 -481q81 -101 140 -137q42 -26 90 -26v-30h-568v30q53 5 69 17t16 29q0 34 -74 128l-251 314l-40 -33v-298q0 -86 10 -106.5t37 -35.5t88 -15v-30h-551v30h36q48 0 77 17q21 11 32 38q9 20 9 102v718q0 84 -9 104.5t-36 36.5t-73 16h-36v30h543v-30
q-55 0 -84 -16q-21 -12 -33 -38q-10 -20 -10 -103v-340l405 328q85 68 85 109q0 31 -35 49q-18 8 -88 11v30h426v-30q-57 -4 -89.5 -20.5t-150.5 -111.5z" />
    <glyph glyph-name="L" unicode="L" horiz-adv-x="1100" 
d="M1041 383l-41 -383h-969v30h36q47 0 76 17q21 11 32 38q9 20 9 102v718q0 84 -8.5 104.5t-35.5 36.5t-73 16h-36v30h582v-30h-48q-47 0 -76 -17q-21 -11 -33 -39q-9 -19 -9 -101v-696q0 -83 9.5 -106t37.5 -35q20 -7 98 -7h91q87 0 145 30.5t100 96.5t80 195h33z" />
    <glyph glyph-name="M" unicode="M" horiz-adv-x="1556" 
d="M786 372l296 720h444v-30h-35q-48 0 -77 -17q-21 -11 -33 -38q-8 -19 -8 -101v-719q0 -84 8.5 -105t36 -36.5t73.5 -15.5h35v-30h-570v30h36q48 0 77 17q20 11 32 38q9 20 9 102v809l-419 -996h-19l-425 989v-769q0 -81 4 -99q11 -40 46 -65.5t110 -25.5v-30h-374v30h11
q37 -1 68 11.5t47 33.5t25 59q2 8 2 82v690q0 83 -9 103.5t-36 36.5t-73 16h-35v30h446z" />
    <glyph glyph-name="N" unicode="N" horiz-adv-x="1191" 
d="M411 1092l538 -677v469q0 98 -28 133q-39 46 -130 45v30h361v-30q-69 -9 -93 -23t-37 -46t-13 -109v-909h-28l-738 909v-694q0 -94 43 -127t99 -33h26v-30h-388v30q91 1 126 37t35 123v770l-23 29q-35 44 -61.5 57.5t-76.5 15.5v30h388z" />
    <glyph glyph-name="O" unicode="O" horiz-adv-x="1282" 
d="M637 1117q261 0 424 -162t163 -405q0 -208 -122 -366q-161 -209 -455 -209t-455 200q-128 157 -128 374q0 243 165.5 405.5t407.5 162.5zM646 1055q-149 0 -227 -153q-64 -125 -64 -360q0 -280 98 -413q69 -94 192 -94q83 0 138 41q71 51 110.5 164t39.5 295
q0 217 -40.5 324.5t-102.5 151.5t-144 44z" />
    <glyph glyph-name="P" unicode="P" horiz-adv-x="1007" 
d="M445 494v-302q0 -89 11 -112t38.5 -36.5t102.5 -13.5v-30h-555v30q76 0 102.5 14t37.5 36.5t11 111.5v708q0 89 -11 111.5t-38 36.5t-102 14v30h476q235 0 337 -84t102 -209q0 -107 -66 -182.5t-182 -102.5q-78 -20 -264 -20zM445 1029v-472q27 -2 40 -2q99 0 152 58.5
t53 181.5q0 121 -53 177.5t-159 56.5h-33z" />
    <glyph glyph-name="Q" unicode="Q" horiz-adv-x="1282" 
d="M788 -10q37 -107 115 -161t196 -54q32 0 68 7v-49q-121 -31 -217 -31q-150 0 -268 73.5t-177 214.5q-198 42 -319.5 194t-121.5 363q0 245 164.5 407.5t417.5 162.5q252 0 415 -163t163 -407q0 -212 -128 -369t-308 -188zM645 1055q-145 0 -224 -150q-66 -127 -66 -360
q0 -280 99 -415q69 -95 191 -95t191 93q99 133 99 399q0 263 -62 380q-78 148 -228 148z" />
    <glyph glyph-name="R" unicode="R" horiz-adv-x="1191" 
d="M438 497v-305q0 -89 11 -112t38 -36.5t102 -13.5v-30h-558v30q75 0 102 14t38 36.5t11 111.5v708q0 89 -11 111.5t-38.5 36.5t-101.5 14v30h507q198 0 289.5 -27.5t149.5 -101t58 -172.5q0 -121 -87 -200q-55 -50 -155 -75l262 -369q52 -72 74 -90q33 -25 76 -27v-30
h-344l-351 497h-72zM438 1033v-478h46q112 0 167.5 20.5t87 74t31.5 139.5q0 125 -58 184.5t-188 59.5h-86z" />
    <glyph glyph-name="S" unicode="S" horiz-adv-x="917" 
d="M774 1117l9 -364h-33q-23 137 -114.5 220t-197.5 83q-82 0 -130 -44t-48 -101q0 -36 17 -64q23 -38 75 -75q38 -27 174 -94q192 -94 259 -178q66 -84 66 -192q0 -137 -106.5 -235.5t-271.5 -98.5q-51 0 -97 10.5t-115 39.5q-39 16 -64 16q-21 0 -44 -16t-38 -49h-30v412
h30q36 -174 137 -265t217 -91q90 0 144 49t54 114q0 39 -21 75t-62.5 68.5t-147.5 85.5q-149 73 -214.5 124.5t-100.5 115t-35 140.5q0 130 96 222t241 92q54 0 103 -13q38 -10 92.5 -36t76.5 -26q21 0 33 12.5t22 62.5h24z" />
    <glyph glyph-name="T" unicode="T" horiz-adv-x="1100" 
d="M1040 1092v-296h-29q-26 102 -57 147t-86 71q-31 15 -107 15h-82v-842q0 -84 9.5 -105t36.5 -36.5t74 -15.5h36v-30h-572v30h36q48 0 77 17q21 11 33 38q9 20 9 102v842h-79q-110 0 -160 -47q-70 -65 -89 -186h-30v296h980z" />
    <glyph glyph-name="U" unicode="U" horiz-adv-x="1191" 
d="M39 1092h563v-30h-28q-64 0 -87.5 -13.5t-33.5 -36.5t-10 -117v-534q0 -147 22 -194.5t72.5 -79t128.5 -31.5q88 0 150.5 40t93.5 110t31 244v445q0 73 -15.5 104.5t-38.5 43.5q-36 19 -102 19v30h377v-30h-22q-46 0 -76.5 -18.5t-44.5 -55.5q-10 -26 -10 -93v-414
q0 -193 -25.5 -278t-123.5 -157t-268 -72q-142 0 -219 38q-106 52 -149.5 132.5t-43.5 216.5v534q0 94 -10.5 117t-36 37t-94.5 13v30z" />
    <glyph glyph-name="V" unicode="V" horiz-adv-x="1191" 
d="M1174 1092v-30q-60 -10 -107 -64q-33 -40 -100 -189l-376 -834h-27l-374 868q-68 157 -91 184.5t-86 34.5v30h523v-30h-18q-70 0 -96 -18q-19 -12 -19 -35q0 -15 6.5 -34.5t43.5 -105.5l233 -544l216 484q38 88 47 117.5t9 50.5q0 24 -13 42.5t-38 28.5q-34 14 -92 14v30
h359z" />
    <glyph glyph-name="W" unicode="W" horiz-adv-x="1649" 
d="M1634 1092v-30q-30 -3 -51 -17.5t-37 -43.5q-5 -10 -51 -125l-342 -901h-32l-270 704l-298 -704h-30l-359 891q-55 135 -76.5 163t-73.5 33v30h474v-30q-57 -2 -76 -17.5t-19 -39.5q0 -30 39 -129l214 -530l172 414l-45 116q-37 95 -57 126.5t-46.5 45.5t-77.5 14v30h529
v-30q-55 -1 -79 -9q-17 -6 -27 -19t-10 -30q0 -19 37 -114l199 -516l177 467q29 73 35 99.5t6 48.5q0 33 -22.5 52t-85.5 21v30h283z" />
    <glyph glyph-name="X" unicode="X" horiz-adv-x="1191" 
d="M696 640l301 -447q75 -111 107 -134.5t75 -28.5v-30h-532v30q64 5 82.5 19.5t18.5 35.5q0 14 -6 25q-11 24 -56 90l-160 236l-166 -203q-75 -93 -75 -126q0 -23 19.5 -43.5t56.5 -28.5q17 -5 70 -5v-30h-420v30q72 10 113 38q54 37 151 155l216 264l-278 408
q-68 101 -78 112q-21 27 -42 38t-58 17v30h541v-30h-27q-47 0 -65.5 -15t-18.5 -38q0 -17 6 -30l55 -84l136 -206l115 141q88 109 88 152q0 22 -12.5 40.5t-35.5 29t-72 10.5v30h401v-30q-47 -1 -76 -12t-62 -41q-21 -19 -105 -119z" />
    <glyph glyph-name="Y" unicode="Y" horiz-adv-x="1191" 
d="M1172 1092v-30q-54 -7 -83 -32q-40 -33 -127 -184l-237 -395v-264q0 -85 9 -105.5t35 -36t70 -15.5h61v-30h-613v30h58q48 0 76 17q21 11 33 38q9 20 9 102v219l-257 467q-76 139 -107.5 163.5t-84.5 25.5v30h524v-30h-24q-47 0 -66 -14t-19 -29q0 -29 64 -146l198 -361
l196 329q73 121 73 160q0 22 -21 37q-27 20 -100 24v30h333z" />
    <glyph glyph-name="Z" unicode="Z" horiz-adv-x="1100" 
d="M1006 1092l-641 -1031h207q148 0 206 19q96 29 165.5 106.5t95.5 207.5h32l-45 -394h-999l642 1032h-162q-94 0 -124 -6q-56 -10 -105.5 -41t-82 -82.5t-51.5 -130.5h-30l30 320h862z" />
    <glyph glyph-name="bracketleft" unicode="[" horiz-adv-x="549" 
d="M172 -301v1393h324v-34h-36q-53 0 -71.5 -11t-27.5 -32.5t-9 -102.5v-1039q0 -77 3 -89q7 -29 27 -42.5t78 -13.5h36v-29h-324z" />
    <glyph glyph-name="backslash" unicode="\" horiz-adv-x="458" 
d="M2 1117h101l360 -1142h-104z" />
    <glyph glyph-name="bracketright" unicode="]" horiz-adv-x="549" 
d="M378 1092v-1393h-324v31h36q53 0 71.5 10t27.5 32t9 102v1040q0 78 -3 89q-7 28 -27 42t-78 14h-36v33h324z" />
    <glyph glyph-name="asciicircum" unicode="^" horiz-adv-x="958" 
d="M118 536l331 578h66l325 -578h-128l-237 412l-233 -412h-124z" />
    <glyph glyph-name="underscore" unicode="_" 
d="M-15 -250h855v-106h-855v106z" />
    <glyph glyph-name="grave" unicode="`" horiz-adv-x="549" 
d="M31 1129h242l93 -280h-68z" />
    <glyph glyph-name="a" unicode="a" 
d="M471 111q-138 -121 -247 -121q-65 0 -107.5 42t-42.5 106q0 86 74 154.5t323 183.5v75q0 86 -9.5 108t-35 38.5t-57.5 16.5q-53 0 -86 -23q-21 -15 -21 -34q0 -17 22 -42q31 -35 31 -67q0 -39 -29.5 -67t-77.5 -28q-50 0 -84.5 30.5t-34.5 71.5q0 58 46 111t128 81
t171 28q107 0 169.5 -45.5t80.5 -98.5q12 -34 12 -155v-292q0 -52 4 -65.5t12 -19.5t18 -6q21 0 43 29l24 -19q-40 -60 -83 -86.5t-98 -26.5q-65 0 -101 30t-44 91zM471 170v252q-97 -57 -145 -123q-31 -43 -31 -87q0 -37 26 -65q20 -22 57 -22q40 0 93 45z" />
    <glyph glyph-name="b" unicode="b" horiz-adv-x="917" 
d="M347 1092v-415q95 98 208 98q77 0 145.5 -45.5t107 -129t38.5 -193.5q0 -123 -49 -223.5t-131 -153.5t-188 -53q-61 0 -108.5 19.5t-93.5 63.5l-125 -82h-27v957q0 66 -6 81q-8 22 -25 33t-58 13v30h312zM347 605v-335q0 -102 5 -130q8 -47 38.5 -76.5t78.5 -29.5
q41 0 70 23.5t49 92.5t20 249q0 173 -44 238q-31 46 -84 46q-69 0 -133 -78z" />
    <glyph glyph-name="c" unicode="c" horiz-adv-x="732" 
d="M670 194l25 -19q-53 -100 -132.5 -149t-168.5 -49q-151 0 -241 113.5t-90 273.5q0 154 82 270q99 141 273 141q117 0 185.5 -58.5t68.5 -131.5q0 -46 -27.5 -73t-72.5 -27q-48 0 -79 31t-38 112q-5 51 -24 71q-18 20 -43 20q-39 0 -66 -41q-42 -62 -42 -190
q0 -106 34 -203t93 -145q44 -35 104 -35q40 0 75 18.5t84 70.5z" />
    <glyph glyph-name="d" unicode="d" horiz-adv-x="917" 
d="M787 1092v-867q0 -87 5 -103q7 -27 25 -40t63 -16v-27l-318 -62v120q-57 -70 -102 -95t-101 -25q-144 0 -228 129q-67 105 -67 257q0 122 41.5 218t114.5 145t157 49q54 0 95.5 -21t89.5 -73v227q0 86 -7 104q-10 23 -29.5 34.5t-72.5 11.5v34h334zM562 581
q-60 115 -146 115q-30 0 -49 -17q-30 -25 -49 -87.5t-19 -192.5q0 -142 21 -210.5t58 -99.5q18 -15 50 -15q71 0 134 111v396z" />
    <glyph glyph-name="e" unicode="e" horiz-adv-x="732" 
d="M693 403h-413q7 -149 80 -236q55 -67 133 -67q49 0 88.5 27t84.5 97l27 -18q-61 -125 -135 -177t-172 -52q-167 0 -253 129q-69 104 -69 258q0 188 101.5 299.5t238.5 111.5q114 0 198.5 -93.5t90.5 -278.5zM495 457q0 130 -14 178t-44 73q-17 15 -45 15q-42 0 -68 -41
q-48 -72 -48 -197v-28h219z" />
    <glyph glyph-name="f" unicode="f" horiz-adv-x="549" 
d="M386 674v-523q0 -75 16 -95q25 -29 95 -27v-29h-444v29q51 1 72.5 12t29.5 30t8 80v523h-110v79h110v55l-1 38q0 116 85 193.5t230 77.5q99 0 146.5 -37.5t47.5 -82.5q0 -36 -29.5 -62.5t-78.5 -26.5q-42 0 -66.5 22t-24.5 48q0 7 5 30q3 14 3 26q0 17 -10 25
q-13 12 -31 12q-24 0 -39.5 -19.5t-15.5 -62.5l2 -141v-95h111v-79h-111z" />
    <glyph glyph-name="g" unicode="g" 
d="M539 744h253v-89h-144q39 -39 55 -71q19 -44 19 -91q0 -81 -44.5 -140t-121.5 -92.5t-137 -33.5q-4 0 -96 4q-36 0 -61 -23.5t-25 -56.5q0 -29 22.5 -47.5t72.5 -18.5l139 1q169 0 233 -37q91 -51 91 -158q0 -69 -42 -125t-111 -82q-103 -40 -239 -40q-101 0 -185 20
t-120 55t-36 73q0 37 28 66.5t103 49.5q-104 52 -104 144q0 55 42.5 107.5t134.5 90.5q-107 40 -155.5 104.5t-48.5 148.5q0 110 90 191t232 81q75 0 155 -31zM399 725q-46 0 -78.5 -47t-32.5 -195q0 -120 32 -164.5t75 -44.5q49 0 81 44t32 172q0 144 -36 197
q-26 38 -73 38zM352 -111q-82 0 -109 -14q-46 -25 -46 -67q0 -41 47.5 -74.5t178.5 -33.5q112 0 176 29.5t64 83.5q0 20 -12 34q-21 24 -65 33t-234 9z" />
    <glyph glyph-name="h" unicode="h" horiz-adv-x="917" 
d="M363 1092v-436q62 65 113.5 92t107.5 27q70 0 120.5 -40t67 -94.5t16.5 -183.5v-294q0 -86 16 -107t65 -27v-29h-381v29q40 6 60 32q15 21 15 102v336q0 93 -7.5 117t-24.5 37.5t-39 13.5q-32 0 -63 -22.5t-66 -77.5v-404q0 -80 12 -100q15 -28 63 -34v-29h-382v29
q48 5 68 31q14 17 14 103v765q0 85 -16 106t-66 28v30h307z" />
    <glyph glyph-name="i" unicode="i" horiz-adv-x="458" 
d="M237 1117q52 0 88 -36.5t36 -87.5q0 -52 -36.5 -88t-87.5 -36q-52 0 -88 36t-36 88q0 51 36 87.5t88 36.5zM349 753v-597q0 -80 18.5 -102t72.5 -25v-29h-406v29q50 2 74 29q16 18 16 98v440q0 79 -18.5 101.5t-71.5 25.5v30h315z" />
    <glyph glyph-name="j" unicode="j" horiz-adv-x="549" 
d="M287 1117q51 0 87 -36t36 -87t-36.5 -87.5t-86.5 -36.5q-51 0 -87.5 36.5t-36.5 87.5t36 87t88 36zM399 753v-780q0 -109 -13 -161q-21 -76 -80.5 -122t-158.5 -46t-146 40.5t-47 97.5q0 35 24.5 61.5t57.5 26.5q31 0 48.5 -18.5t17.5 -54.5q0 -10 -1 -22q-1 -17 -1 -24
q0 -28 13 -42q13 -13 33 -13q18 0 31.5 16t13.5 46q0 16 -5 65q-8 89 -9 108l-2 191v465v42q0 50 -17 69t-73 25v30h314z" />
    <glyph glyph-name="k" unicode="k" horiz-adv-x="917" 
d="M361 1092v-718l175 171q54 52 67.5 75.5t13.5 45.5q0 21 -18 35.5t-69 21.5v30h337v-30q-48 -3 -84.5 -23.5t-141.5 -123.5l-82 -80l177 -259q107 -158 127 -177q27 -28 69 -31v-29h-389v29q26 0 37.5 9.5t11.5 21.5q0 18 -33 68l-149 218l-49 -47v-136q0 -86 16.5 -107
t66.5 -27v-29h-389v29q47 5 67 31q14 17 14 103v765q0 85 -15.5 106t-65.5 28v30h306z" />
    <glyph glyph-name="l" unicode="l" horiz-adv-x="458" 
d="M350 1092v-936q0 -80 18.5 -102t72.5 -25v-29h-406v29q50 2 74 29q16 18 16 98v779q0 79 -18.5 101.5t-71.5 25.5v30h315z" />
    <glyph glyph-name="m" unicode="m" horiz-adv-x="1373" 
d="M368 753v-99q62 67 114.5 94t115.5 27q73 0 122 -33.5t75 -103.5q65 73 124 105t123 32q79 0 125 -35.5t64 -91t18 -175.5v-309q0 -87 16 -108t66 -27v-29h-389v29q46 4 67 35q15 22 15 100v324q0 100 -8 127.5t-25.5 41t-40.5 13.5q-35 0 -70.5 -25.5t-71.5 -76.5v-404
q0 -81 14 -102q18 -30 71 -33v-29h-390v29q32 2 50 16t24 33.5t6 85.5v324q0 102 -8 128t-27 40.5t-41 14.5q-32 0 -59 -17q-37 -25 -80 -86v-404q0 -79 15.5 -104.5t65.5 -30.5v-29h-388v29q48 5 68 31q13 17 13 104v425q0 86 -15.5 106.5t-65.5 27.5v30h307z" />
    <glyph glyph-name="n" unicode="n" horiz-adv-x="917" 
d="M363 753v-98q58 63 111 91.5t114 28.5q74 0 122 -40.5t64 -100.5q13 -46 13 -177v-293q0 -87 16 -108t66 -27v-29h-381v29q42 6 61 35q13 21 13 100v335q0 93 -7.5 117t-24.5 37.5t-38 13.5q-69 0 -129 -99v-404q0 -84 15.5 -106.5t58.5 -28.5v-29h-381v29q48 5 68 31
q14 17 14 104v425q0 86 -16 106.5t-66 27.5v30h307z" />
    <glyph glyph-name="o" unicode="o" 
d="M411 775q98 0 182.5 -50.5t128.5 -144t44 -204.5q0 -160 -82 -268q-98 -131 -271 -131q-170 0 -261.5 119.5t-91.5 276.5q0 162 93.5 282t257.5 120zM414 718q-41 0 -70.5 -31t-39 -122.5t-9.5 -253.5q0 -86 12 -161q9 -57 38 -87t66 -30q36 0 60 20q31 28 42 77
q16 76 16 309q0 137 -15.5 188t-44.5 74q-21 17 -55 17z" />
    <glyph glyph-name="p" unicode="p" horiz-adv-x="917" 
d="M347 76v-280q0 -58 9 -78.5t28.5 -30.5t75.5 -10v-30h-429v30q50 2 74 28q17 19 17 96v795q0 79 -18.5 101.5t-72.5 25.5v30h316v-99q39 58 80 83q59 38 128 38q83 0 151 -52t103.5 -144.5t35.5 -198.5q0 -114 -36.5 -209t-106 -144.5t-155.5 -49.5q-62 0 -116 28
q-40 21 -84 71zM347 158q69 -98 148 -98q44 0 72 45q42 68 42 258q0 195 -46 267q-31 47 -82 47q-82 0 -134 -118v-401z" />
    <glyph glyph-name="q" unicode="q" horiz-adv-x="917" 
d="M561 79q-49 -52 -92 -73q-56 -29 -117 -29q-142 0 -224 127q-65 100 -65 241q0 116 49.5 219t136 157t182.5 54q65 0 115.5 -21.5t86.5 -66.5l126 88h27v-975q0 -74 13 -92q21 -30 85 -31v-30h-435v30q50 0 72.5 11.5t31 30t8.5 75.5v285zM561 152v310q0 130 -14 171.5
t-52 72.5q-19 15 -49 15q-61 0 -95 -54q-53 -83 -53 -308q0 -173 46 -243q31 -48 81 -48q29 0 65.5 20.5t70.5 63.5z" />
    <glyph glyph-name="r" unicode="r" horiz-adv-x="732" 
d="M368 753v-171q75 117 131 155t109 38q45 0 72 -27.5t27 -78.5q0 -54 -26.5 -84t-63.5 -30q-42 0 -73.5 27.5t-37.5 30.5q-8 5 -18 5q-24 0 -44 -17q-33 -28 -50 -79q-26 -78 -26 -172v-173l1 -45q0 -46 5 -59q10 -21 29 -31.5t64 -12.5v-29h-407v29q49 4 66.5 27
t17.5 121v416q0 65 -6 82q-8 23 -23.5 33.5t-54.5 14.5v30h308z" />
    <glyph glyph-name="s" unicode="s" horiz-adv-x="642" 
d="M531 774l12 -257h-27q-49 114 -102 156t-105 42q-33 0 -56.5 -22t-23.5 -51q0 -22 17 -42q25 -33 143.5 -113t156 -136t37.5 -126q0 -62 -31.5 -122.5t-88.5 -93t-127 -32.5q-53 0 -144 34q-24 9 -33 9q-26 0 -44 -40h-26l-13 270h27q36 -106 99.5 -159t119.5 -53
q39 0 63.5 23.5t24.5 57.5q0 39 -24.5 67t-107.5 85q-123 86 -160 131q-53 66 -53 145q0 87 60 157.5t174 70.5q61 0 118 -30q22 -12 35 -12q15 0 24 6t28 35h27z" />
    <glyph glyph-name="t" unicode="t" horiz-adv-x="549" 
d="M354 1028v-275h179v-80h-179v-465q0 -65 6 -84t21.5 -30.5t28.5 -11.5q52 0 99 80l24 -18q-65 -154 -212 -154q-71 0 -120.5 39.5t-63.5 88.5q-8 28 -8 148v407h-98v28q101 72 172.5 151t124.5 176h26z" />
    <glyph glyph-name="u" unicode="u" horiz-adv-x="917" 
d="M782 753v-590q0 -86 16.5 -107t65.5 -27v-29h-307v101q-54 -65 -108 -94.5t-121 -29.5q-63 0 -112.5 39.5t-66.5 91.5t-17 183v298q0 86 -15.5 106.5t-65.5 27.5v30h306v-515q0 -80 8 -103.5t24.5 -35.5t37.5 -12q29 0 53 15q32 21 77 85v402q0 86 -15.5 106.5
t-65.5 27.5v30h306z" />
    <glyph glyph-name="v" unicode="v" 
d="M395 -23l-253 584q-46 106 -72 134q-18 21 -55 28v30h400v-30q-37 0 -51 -14q-19 -18 -19 -42q0 -29 35 -112l124 -282l99 244q43 104 43 148q0 25 -18.5 40.5t-63.5 17.5v30h246v-30q-36 -5 -58.5 -26.5t-67.5 -128.5l-251 -591h-38z" />
    <glyph glyph-name="w" unicode="w" horiz-adv-x="1191" 
d="M802 -23l-206 553l-202 -553h-42l-201 546q-45 125 -76 163q-20 26 -61 37v30h380v-30q-39 0 -53.5 -11.5t-14.5 -25.5t26 -82l110 -294l106 294l-8 19q-24 60 -42 76.5t-56 23.5v30h386v-30q-45 -3 -57.5 -13t-12.5 -28t24 -78l106 -294l97 270q21 58 21 79
q0 32 -15.5 46.5t-59.5 17.5v30h223v-30q-37 -5 -59 -26.5t-56 -120.5l-211 -599h-46z" />
    <glyph glyph-name="x" unicode="x" 
d="M501 461l130 -248q68 -129 107 -164q22 -18 60 -20v-29h-420v29q49 4 61 13t12 24q0 23 -26 71l-65 122l-56 -81q-38 -56 -42 -66q-7 -15 -7 -27q0 -19 7.5 -31.5t21 -18.5t48.5 -6v-29h-294v29q55 0 100.5 30t131.5 158l62 92l-129 240q-64 118 -95.5 144.5t-69.5 29.5
v30h417v-30l-22 -1l-42 -14q-6 -6 -6 -19q0 -12 4 -25q2 -6 22 -43l59 -110l31 44q64 88 64 124q0 17 -14 28.5t-50 15.5v30h266v-30q-49 -2 -91.5 -30.5t-95.5 -110.5z" />
    <glyph glyph-name="y" unicode="y" 
d="M401 -31l-243 558q-55 127 -81 156t-63 40v30h400v-30q-40 -2 -56 -15.5t-16 -32.5q0 -31 40 -121l129 -295l88 228q47 122 47 169q0 30 -19.5 47.5t-69.5 19.5v30h252v-30q-37 -4 -60.5 -28.5t-77.5 -167.5l-215 -558q-82 -209 -121 -257q-56 -68 -139 -68
q-67 0 -108.5 38.5t-41.5 92.5q0 46 28.5 76.5t70.5 30.5q40 0 64.5 -25.5t25.5 -79.5q1 -31 7 -39q7 -9 19 -9q19 0 41 23q32 34 76 155z" />
    <glyph glyph-name="z" unicode="z" horiz-adv-x="732" 
d="M672 0h-655v18l414 686h-121q-78 0 -112 -14.5t-55 -45.5t-43 -110h-28v219h633v-22l-410 -679h51q155 0 223.5 44t102.5 162h23z" />
    <glyph glyph-name="braceleft" unicode="{" horiz-adv-x="650" 
d="M580 1117v-37q-81 -15 -119 -56.5t-38 -94.5q0 -54 19 -134t19 -140q0 -54 -32.5 -111t-93.5 -97q-43 -28 -136 -53q100 -32 145 -62q59 -41 89 -96.5t30 -105.5q0 -49 -20 -129.5t-20 -139.5q0 -57 37 -98.5t120 -57.5v-38h-29q-82 0 -155.5 38t-111 99t-37.5 118
q0 55 25 152q19 72 19 128q0 64 -40.5 108.5t-117.5 57.5v49q77 13 117.5 59.5t40.5 113.5q0 55 -18 123q-25 96 -25 146q0 52 31.5 106t79 88t103.5 49q44 12 118 15z" />
    <glyph glyph-name="bar" unicode="|" horiz-adv-x="363" 
d="M128 -356v1473h105v-1473h-105z" />
    <glyph glyph-name="braceright" unicode="}" horiz-adv-x="650" 
d="M73 -333v37q80 15 118.5 56.5t38.5 94.5t-19 133t-19 140q0 56 32 112.5t94 96.5q43 28 136 53q-100 32 -145 62q-60 41 -90 97t-30 105t20 129.5t20 139.5q0 57 -36.5 98.5t-119.5 58.5v37h28q82 0 156 -38t111.5 -99t37.5 -119q0 -54 -25 -151q-19 -72 -19 -128
q0 -64 40 -109t118 -57v-49q-78 -13 -118 -59.5t-40 -113.5q0 -55 18 -123q24 -96 24 -146q0 -53 -31 -106.5t-78.5 -87.5t-103.5 -49q-44 -12 -118 -15z" />
    <glyph glyph-name="asciitilde" unicode="~" horiz-adv-x="857" 
d="M840 571h46q-5 -128 -66.5 -194t-149.5 -66q-43 0 -91 13.5t-211 82.5q-118 49 -170 49q-55 0 -91.5 -33.5t-50.5 -110.5h-46q6 132 65 196t144 64q43 0 84 -12q81 -23 224 -84q78 -34 119 -45q24 -7 52 -7q57 0 96 38t46 109z" />
    <glyph glyph-name="uni00A0" unicode="&#xa0;" horiz-adv-x="412" 
 />
    <glyph glyph-name="exclamdown" unicode="&#xa1;" horiz-adv-x="549" 
d="M274 783q54 0 92 -38t38 -93q0 -54 -38 -92t-92 -38t-92.5 38t-38.5 92q0 55 38.5 93t92.5 38zM257 407h36q5 -92 36 -223l42 -175q38 -158 38 -226q0 -62 -37 -100.5t-97 -38.5q-58 0 -96 38.5t-38 97.5q0 61 40 229l43 175q22 94 33 223z" />
    <glyph glyph-name="cent" unicode="&#xa2;" 
d="M708 196l26 -19q-108 -200 -308 -200q-70 0 -135 35l-124 -315h-55l132 346q-70 58 -105.5 142t-35.5 182q0 166 96 285.5t246 119.5q32 0 76 -3l121 316h58l-128 -332q72 -28 105.5 -72.5t33.5 -95.5q0 -45 -27.5 -72.5t-70.5 -27.5q-41 0 -68 19t-43 65l-128 -336
q37 -66 78 -96.5t95 -30.5q89 0 161 90zM485 675q-26 45 -58 45q-38 0 -66 -42q-42 -61 -42 -176q0 -83 26 -194z" />
    <glyph glyph-name="sterling" unicode="&#xa3;" 
d="M430 630h176v-122h-166q2 -41 2 -62q0 -118 -39 -237q42 -9 86 -14t89 -5q85 0 131 27q32 18 49 61h33q0 -143 -71.5 -222t-176.5 -79q-50 0 -93.5 19t-110.5 75q-35 -47 -68 -67q-45 -27 -96 -27q-65 0 -106 40.5t-41 93.5q0 58 45 101t125 43q18 0 38 -3t43 -10
q-4 49 -13 85l-58 181h-174v122h149q-12 90 -12 138q0 130 75 231q90 122 233 122q105 0 175.5 -62.5t70.5 -136.5q0 -50 -29.5 -80.5t-76.5 -30.5q-49 0 -78.5 30.5t-29.5 80.5q0 8 2 41q1 15 1 27q0 40 -17 58q-18 19 -49 19q-28 0 -47 -23.5t-19 -73.5q0 -59 20.5 -166.5
t27.5 -173.5zM268 131q-32 24 -52 31.5t-44 7.5q-38 0 -58.5 -19t-20.5 -46q0 -24 20 -43t49 -19q30 0 58.5 21t47.5 67z" />
    <glyph glyph-name="currency" unicode="&#xa4;" 
d="M627 827l111 108l72 -70l-113 -112q70 -99 70 -210q0 -108 -70 -213l104 -103l-74 -73l-105 104q-64 -41 -109.5 -55t-101.5 -14q-60 0 -107 15.5t-105 53.5l-107 -104l-71 73l105 103q-70 94 -70 210q0 57 17.5 113t52.5 100l-109 108l75 74l107 -108q100 72 210 72
q108 0 218 -72zM411 795q-105 0 -178.5 -74t-73.5 -178t74 -178t178 -74t178 74t74 178t-74 178t-178 74z" />
    <glyph glyph-name="yen" unicode="&#xa5;" 
d="M564 497h259v-61h-280l-11 -33v-109h291v-61h-291v-36q0 -73 7 -95q11 -35 36.5 -53.5t87.5 -18.5h28v-30h-571v30h27q67 0 97.5 16t41 42t10.5 112v33h-296v61h296v109l-11 33h-285v61h263l-147 409q-35 98 -64 128q-18 19 -52 22v36h397v-36q-49 -1 -64.5 -12
t-15.5 -25q0 -17 24 -81l160 -441l132 382q31 93 31 130q0 24 -13.5 35t-63.5 12v36h236v-36q-37 -10 -62.5 -38.5t-57.5 -120.5z" />
    <glyph glyph-name="brokenbar" unicode="&#xa6;" horiz-adv-x="363" 
d="M128 529v588h105v-588h-105zM128 -356v589h105v-589h-105z" />
    <glyph glyph-name="section" unicode="&#xa7;" 
d="M246 650q-66 58 -94 109.5t-28 108.5q0 98 82.5 173.5t212.5 75.5q122 0 196.5 -62t74.5 -133q0 -44 -26 -71t-67 -27q-39 0 -64 24.5t-25 59.5q0 15 5 39t5 39q0 32 -25.5 54.5t-74.5 22.5q-61 0 -102 -38t-41 -82q0 -52 33 -95t152 -119q290 -179 290 -360
q0 -71 -38.5 -131t-134.5 -126q71 -69 96.5 -118.5t25.5 -107.5q0 -67 -34.5 -122t-103 -87.5t-158.5 -32.5q-127 0 -195.5 59t-68.5 135q0 41 27.5 69.5t67.5 28.5q39 0 65 -25.5t26 -57.5q0 -18 -10 -46.5t-10 -47.5q0 -21 24 -39.5t75 -18.5q71 0 110 34.5t39 80.5
q0 54 -27 90q-36 47 -152 118q-146 90 -232 191q-68 82 -68 159q0 70 38.5 134.5t133.5 141.5zM290 614q-77 -66 -77 -139q0 -39 23.5 -80t79.5 -86l220 -164q43 39 60.5 72.5t17.5 67.5q0 38 -18 71q-30 51 -89 97q-28 23 -217 161z" />
    <glyph glyph-name="dieresis" unicode="&#xa8;" horiz-adv-x="549" 
d="M426 1101q45 0 76 -31.5t31 -75.5t-31.5 -75.5t-75.5 -31.5t-75.5 31.5t-31.5 75.5t31.5 75.5t75.5 31.5zM125 1101q45 0 76 -31.5t31 -75.5t-31.5 -75.5t-75.5 -31.5t-75.5 31.5t-31.5 75.5t31.5 75.5t75.5 31.5z" />
    <glyph glyph-name="copyright" unicode="&#xa9;" horiz-adv-x="1232" 
d="M618 1117q144 0 281 -74t214 -211t77 -286q0 -148 -76 -284t-212 -211.5t-284 -75.5t-283.5 75.5t-211.5 211.5t-76 284q0 149 77 286t214 211t280 74zM618 1045q-125 0 -244.5 -64.5t-187 -185t-67.5 -249.5q0 -130 66 -248.5t185 -184.5t248 -66q130 0 248.5 66
t184.5 184.5t66 248.5q0 129 -66.5 249.5t-186 185t-246.5 64.5zM888 890v-212h-31q-16 81 -70 127.5t-128 46.5q-88 0 -147.5 -70.5t-59.5 -222.5q0 -163 58 -232t145 -69q119 0 210 111v-57q-97 -102 -256 -102q-151 0 -245 91.5t-94 236.5q0 153 101 253t254 100
q69 0 158 -32q26 -10 37 -10q15 0 25 10t12 31h31z" />
    <glyph glyph-name="ordfeminine" unicode="&#xaa;" horiz-adv-x="494" 
d="M295 716q-89 -74 -160 -74q-44 0 -71 26.5t-27 64.5q0 42 35 78q45 48 223 124v45q0 50 -6 63.5t-22.5 24t-39.5 10.5q-33 0 -56 -15q-12 -8 -12 -20q0 -9 15 -25q19 -21 19 -39q0 -24 -18.5 -41t-49.5 -17q-35 0 -56.5 19t-21.5 44q0 45 48 80q66 50 168 50
q67 0 110.5 -23t55.5 -51.5t12 -104.5v-176q0 -31 2.5 -39t7.5 -12t13 -4q13 0 27 18l16 -11q-51 -69 -118 -69q-43 0 -66 18.5t-28 55.5zM295 751v151q-64 -34 -95 -74q-20 -25 -20 -50q0 -23 15 -38.5t38 -15.5q28 0 62 27z" />
    <glyph glyph-name="guillemotleft" unicode="&#xab;" 
d="M733 6l-338 372l342 368h58l-190 -368l190 -372h-62zM369 6l-340 372l340 368h64l-192 -364l192 -376h-64z" />
    <glyph glyph-name="logicalnot" unicode="&#xac;" horiz-adv-x="939" 
d="M33 726h881v-366h-104v263h-777v103z" />
    <glyph glyph-name="uni00AD" unicode="&#xad;" horiz-adv-x="549" 
d="M510 295h-470v167h470v-167z" />
    <glyph glyph-name="registered" unicode="&#xae;" horiz-adv-x="1232" 
d="M618 1117q144 0 281 -74t214 -211t77 -286q0 -148 -76 -284t-212 -211.5t-284 -75.5t-283.5 75.5t-211.5 211.5t-76 284q0 149 77 286t214 211t280 74zM618 1045q-125 0 -244.5 -64.5t-187 -185t-67.5 -249.5q0 -130 66 -248.5t185 -184.5t248 -66q130 0 248.5 66
t184.5 184.5t66 248.5q0 129 -66.5 249.5t-186 185t-246.5 64.5zM313 877h292q147 0 204 -35q81 -51 81 -141q0 -57 -35.5 -101.5t-108.5 -64.5l111 -202q24 -43 49 -65q13 -10 35 -14v-28h-195l-165 296h-37v-159q0 -68 18 -87.5t79 -21.5v-28h-341v28q50 0 65 16
q20 24 20 93v380q0 66 -14 84t-58 23v27zM544 564q28 -5 46 -5q52 0 89.5 39.5t37.5 105.5q0 68 -35 103t-107 35h-31v-278z" />
    <glyph glyph-name="macron" unicode="&#xaf;" 
d="M-15 1282h855v-105h-855v105z" />
    <glyph glyph-name="degree" unicode="&#xb0;" horiz-adv-x="659" 
d="M326 1114q70 0 137 -36t104.5 -103t37.5 -139q0 -116 -82 -197.5t-197 -81.5t-197 81.5t-82 197.5q0 72 37.5 139t104.5 103t137 36zM326 1009q-72 0 -122.5 -50.5t-50.5 -122.5q0 -71 50.5 -122t122.5 -51t122.5 51t50.5 122q0 72 -50.5 122.5t-122.5 50.5z" />
    <glyph glyph-name="plusminus" unicode="&#xb1;" horiz-adv-x="905" 
d="M13 599h387v386h106v-386h387v-106h-387v-277h387v-107h-880l-1 106h388v278h-387v106z" />
    <glyph glyph-name="twosuperior" unicode="&#xb2;" horiz-adv-x="494" 
d="M418 535h-399v14q183 189 216 249.5t33 111.5q0 42 -27.5 69.5t-69.5 27.5q-68 0 -107 -66l-34 11q26 81 79.5 121.5t127.5 40.5q84 0 135.5 -46t51.5 -101q0 -49 -41.5 -116.5t-195.5 -197.5h122q59 0 73.5 7t28.5 35q4 8 7 11h37z" />
    <glyph glyph-name="threesuperior" unicode="&#xb3;" horiz-adv-x="494" 
d="M141 815v22q70 17 88 33q37 31 37 73q0 32 -24.5 55.5t-66.5 23.5q-61 0 -107 -64l-33 11q72 145 216 145q76 0 120.5 -38t44.5 -86q0 -67 -78 -109q108 -50 108 -144q0 -85 -73.5 -150t-202.5 -65q-90 0 -131 27q-27 19 -27 44q0 20 17.5 35.5t45.5 15.5q17 0 34 -7
q9 -3 53 -35t82 -32q31 0 53.5 23t22.5 57q0 54 -43.5 100.5t-135.5 64.5z" />
    <glyph glyph-name="acute" unicode="&#xb4;" horiz-adv-x="549" 
d="M519 1129l-266 -280h-69l93 280h242z" />
    <glyph glyph-name="mu1" unicode="&#xb5;" horiz-adv-x="950" 
d="M122 753h224v-559q1 -64 18.5 -85t50.5 -21q72 0 132 97v568h223v-503l1 -43q0 -65 16 -86.5t39 -21.5q18 0 33 19q22 29 28 97h35q-3 -114 -62.5 -176t-145.5 -62q-58 0 -99.5 31t-61.5 96q-60 -67 -115.5 -97t-118.5 -30q-32 0 -56.5 8.5t-63.5 37.5q0 -50 4.5 -78.5
t23.5 -97t19 -96.5q0 -50 -26.5 -78t-68.5 -28q-41 0 -64 24.5t-23 69.5q0 36 19 111q26 101 32.5 159.5t6.5 198.5v545z" />
    <glyph glyph-name="paragraph" unicode="&#xb6;" horiz-adv-x="890" 
d="M514 1030v-1386h-80v701q-150 7 -243 50.5t-141.5 132.5t-48.5 199q0 82 20 135.5t64 102t90 75.5t105 37q77 15 259 15h354v-36h-36q-47 0 -71 -14.5t-37 -41.5q-8 -20 -8 -107v-1249h-80v1386h-147z" />
    <glyph glyph-name="uni00B7" unicode="&#xb7;" horiz-adv-x="412" 
d="M207 680q55 0 94.5 -39.5t39.5 -95.5t-39.5 -95t-94.5 -39q-56 0 -95.5 39t-39.5 95t39.5 95.5t95.5 39.5z" />
    <glyph glyph-name="cedilla" unicode="&#xb8;" horiz-adv-x="549" 
d="M276 10h53l-38 -59q49 -8 74 -39t25 -78q0 -42 -24.5 -76.5t-63.5 -48.5q-61 -19 -185 -19v38q80 3 108.5 26t28.5 63q0 24 -18.5 40.5t-54.5 16.5z" />
    <glyph glyph-name="onesuperior" unicode="&#xb9;" horiz-adv-x="494" 
d="M333 1114v-461q0 -53 6 -69q4 -9 17 -16.5t48 -7.5h24v-25h-359v25h27q42 0 58 8q10 6 14 15q7 17 7 70v289q0 37 -3 46t-12 14.5t-22 5.5q-23 0 -64 -16l-14 25l245 97h28z" />
    <glyph glyph-name="ordmasculine" unicode="&#xba;" horiz-adv-x="544" 
d="M273 1114q101 0 166 -66.5t65 -172.5q0 -108 -64 -174t-165 -66t-165.5 66.5t-64.5 171.5q0 106 65 173.5t163 67.5zM276 1080q-25 0 -43 -14.5t-24 -44.5q-11 -49 -11 -189q0 -101 21.5 -132.5t54.5 -31.5q24 0 41.5 15.5t24.5 42.5q10 47 10 183q0 110 -20 140.5
t-54 30.5z" />
    <glyph glyph-name="guillemotright" unicode="&#xbb;" 
d="M93 746l336 -371l-340 -369h-58l188 369l-188 371h62zM456 746l340 -371l-340 -369h-64l192 365l-192 375h64z" />
    <glyph glyph-name="onequarter" unicode="&#xbc;" horiz-adv-x="1236" 
d="M332 1114v-461q0 -53 5 -69q4 -9 17.5 -16.5t48.5 -7.5h24v-25h-359v25h26q42 0 58 8q11 6 15 15q7 17 7 70v289q0 37 -3.5 46t-12 14.5t-22.5 5.5q-22 0 -64 -16l-14 25l245 97h29zM1079 1114l-776 -1161h-106l772 1161h110zM761 178l310 365h73v-365h59v-91h-59v-125
h-145v125h-238v91zM828 178h171v200z" />
    <glyph glyph-name="onehalf" unicode="&#xbd;" horiz-adv-x="1236" 
d="M332 1114v-461q0 -53 5 -69q4 -9 17.5 -16.5t48.5 -7.5h24v-25h-359v25h26q42 0 58 8q11 6 15 15q7 17 7 70v289q0 37 -3.5 46t-12 14.5t-22.5 5.5q-22 0 -64 -16l-14 25l245 97h29zM1059 1114l-775 -1161h-110l776 1161h109zM1158 -38h-398v15q183 190 216 250t33 111
q0 42 -27.5 69.5t-69.5 27.5q-68 0 -109 -66l-33 11q26 80 80 121t128 41q84 0 135.5 -45.5t51.5 -101.5q0 -49 -41.5 -116.5t-196.5 -197.5h123q58 0 72.5 7t29.5 35q4 8 6 11h37z" />
    <glyph glyph-name="threequarters" unicode="&#xbe;" horiz-adv-x="1236" 
d="M139 815v22q70 17 89 33q37 31 37 73q0 32 -25 55.5t-66 23.5q-61 0 -108 -64l-33 11q72 145 217 145q75 0 120 -38t45 -86q0 -67 -79 -109q108 -50 108 -144q0 -85 -73 -150t-203 -65q-90 0 -130 27q-28 19 -28 44q0 20 18 35.5t45 15.5q17 0 35 -7q9 -3 52.5 -35
t81.5 -32q32 0 54 23t22 57q0 54 -43 100.5t-136 64.5zM1079 1114l-776 -1161h-106l772 1161h110zM761 178l310 365h73v-365h59v-91h-59v-125h-145v125h-238v91zM828 178h171v200z" />
    <glyph glyph-name="questiondown" unicode="&#xbf;" 
d="M442 782q54 0 92 -37.5t38 -91.5t-38.5 -92t-91.5 -38q-54 0 -92 38t-38 92t37.5 91.5t92.5 37.5zM433 405h33q2 -89 -8.5 -133t-52.5 -122t-55.5 -125t-13.5 -116q0 -107 42 -157.5t99 -50.5q44 0 74 23q22 18 22 37q0 13 -15 40q-35 62 -35 106q0 40 27 66.5t67 26.5
q45 0 76 -32t31 -84q0 -96 -82.5 -168t-229.5 -72q-156 0 -237.5 75t-81.5 180q0 77 41 141.5t162 143.5q81 53 106 94.5t31 126.5z" />
    <glyph glyph-name="Agrave" unicode="&#xc0;" horiz-adv-x="1191" 
d="M686 311h-386l-46 -107q-22 -53 -22 -87q0 -46 37 -68q22 -13 107 -19v-30h-363v30q59 9 96.5 48.5t93.5 164.5l390 871h16l393 -895q57 -127 93 -160q27 -25 77 -29v-30h-528v30h22q63 0 89 17q18 13 18 38q0 14 -5 29q-2 8 -24 61zM658 370l-162 376l-168 -376h330z
M348 1465h242l93 -280h-68z" />
    <glyph glyph-name="Aacute" unicode="&#xc1;" horiz-adv-x="1191" 
d="M686 311h-386l-46 -107q-22 -53 -22 -87q0 -46 37 -68q22 -13 107 -19v-30h-363v30q59 9 96.5 48.5t93.5 164.5l390 871h16l393 -895q57 -127 93 -160q27 -25 77 -29v-30h-528v30h22q63 0 89 17q18 13 18 38q0 14 -5 29q-2 8 -24 61zM658 370l-162 376l-168 -376h330z
M836 1465l-266 -280h-69l93 280h242z" />
    <glyph glyph-name="Acircumflex" unicode="&#xc2;" horiz-adv-x="1191" 
d="M686 311h-386l-46 -107q-22 -53 -22 -87q0 -46 37 -68q22 -13 107 -19v-30h-363v30q59 9 96.5 48.5t93.5 164.5l390 871h16l393 -895q57 -127 93 -160q27 -25 77 -29v-30h-528v30h22q63 0 89 17q18 13 18 38q0 14 -5 29q-2 8 -24 61zM658 370l-162 376l-168 -376h330z
M686 1465l164 -308h-62l-192 166l-197 -161h-66l171 303h182z" />
    <glyph glyph-name="Atilde" unicode="&#xc3;" horiz-adv-x="1191" 
d="M686 311h-386l-46 -107q-22 -53 -22 -87q0 -46 37 -68q22 -13 107 -19v-30h-363v30q59 9 96.5 48.5t93.5 164.5l390 871h16l393 -895q57 -127 93 -160q27 -25 77 -29v-30h-528v30h22q63 0 89 17q18 13 18 38q0 14 -5 29q-2 8 -24 61zM658 370l-162 376l-168 -376h330z
M807 1410h43q1 -16 1 -27q0 -89 -50 -143t-121 -54q-52 0 -131.5 38t-105.5 38q-24 0 -40.5 -16t-22.5 -58h-47q0 105 49.5 164.5t124.5 59.5q24 0 40 -5q23 -6 78 -32q83 -38 118 -38q18 0 34 14.5t30 58.5z" />
    <glyph glyph-name="Adieresis" unicode="&#xc4;" horiz-adv-x="1191" 
d="M686 311h-386l-46 -107q-22 -53 -22 -87q0 -46 37 -68q22 -13 107 -19v-30h-363v30q59 9 96.5 48.5t93.5 164.5l390 871h16l393 -895q57 -127 93 -160q27 -25 77 -29v-30h-528v30h22q63 0 89 17q18 13 18 38q0 14 -5 29q-2 8 -24 61zM658 370l-162 376l-168 -376h330z
M745 1413q45 0 76 -31.5t31 -75.5t-31.5 -75.5t-75.5 -31.5t-75.5 31.5t-31.5 75.5t31.5 75.5t75.5 31.5zM444 1413q45 0 76 -31.5t31 -75.5t-31.5 -75.5t-75.5 -31.5t-75.5 31.5t-31.5 75.5t31.5 75.5t75.5 31.5z" />
    <glyph glyph-name="Aring" unicode="&#xc5;" horiz-adv-x="1191" 
d="M686 311h-386l-46 -107q-22 -53 -22 -87q0 -46 37 -68q22 -13 107 -19v-30h-363v30q59 9 96.5 48.5t93.5 164.5l390 871h16l393 -895q57 -127 93 -160q27 -25 77 -29v-30h-528v30h22q63 0 89 17q18 13 18 38q0 14 -5 29q-2 8 -24 61zM658 370l-162 376l-168 -376h330z
M605 1386q70 0 119.5 -49t49.5 -119t-49.5 -120t-119.5 -50t-119.5 50t-49.5 120t49 119t120 49zM605 1324q-45 0 -76 -31t-31 -75q0 -45 31.5 -76.5t75.5 -31.5t75.5 31.5t31.5 76.5q0 44 -31 75t-76 31z" />
    <glyph glyph-name="AE" unicode="&#xc6;" horiz-adv-x="1649" 
d="M1497 1092v-324h-31q-21 106 -61.5 161.5t-100 77t-193.5 21.5h-85v-442h29q75 0 124.5 53.5t69.5 202.5h29v-572h-29q-11 96 -43 162q-22 45 -62 71t-89 26h-29v-333q0 -70 4 -86q6 -25 27.5 -37.5t88.5 -12.5h65q78 0 150 36.5t112 92t71 155.5h31l-50 -344h-958v30h61
q71 0 97.5 19t34.5 50q3 13 3 93v277h-353l-154 -245q-36 -57 -42 -73q-9 -23 -9 -44q0 -31 28.5 -53.5t102.5 -23.5v-30h-355v30q44 5 80.5 32t94.5 119l442 704q55 87 55 108q0 20 -12.5 37t-35 24.5t-98.5 7.5v30h990zM763 529v499l-317 -499h317z" />
    <glyph glyph-name="Ccedilla" unicode="&#xc7;" horiz-adv-x="1191" 
d="M1100 1117v-379h-31q-35 148 -132 227t-219 79q-102 0 -187.5 -58.5t-124.5 -153.5q-51 -122 -51 -271q0 -146 37 -266.5t116 -182t204 -61.5q103 0 189 45t181 155v-94q-92 -96 -191.5 -139t-232.5 -43q-174 0 -309.5 70t-209.5 201.5t-74 279.5q0 156 82 296
t220.5 217.5t295.5 77.5q115 0 243 -50q74 -29 94 -29q26 0 44.5 18.5t24.5 60.5h31zM644 10h53l-38 -59q49 -8 74 -39t25 -78q0 -42 -24.5 -76.5t-63.5 -48.5q-61 -19 -185 -19v38q80 3 108.5 26t28.5 63q0 24 -18.5 40.5t-54.5 16.5z" />
    <glyph glyph-name="Egrave" unicode="&#xc8;" horiz-adv-x="1100" 
d="M449 1029v-445h22q104 0 150.5 65.5t59.5 192.5h31v-572h-31q-10 94 -41 153.5t-72 80t-119 20.5v-307q0 -91 7.5 -111t28.5 -33t68 -13h65q153 0 245.5 71t132.5 216h30l-50 -347h-943v30h36q48 0 77 17q21 11 32 38q9 20 9 102v718q0 74 -4 91q-8 28 -30 43
q-31 23 -84 23h-36v30h914v-323h-31q-23 118 -65.5 169.5t-119.5 75.5q-45 15 -169 15h-113zM306 1465h242l93 -280h-68z" />
    <glyph glyph-name="Eacute" unicode="&#xc9;" horiz-adv-x="1100" 
d="M449 1029v-445h22q104 0 150.5 65.5t59.5 192.5h31v-572h-31q-10 94 -41 153.5t-72 80t-119 20.5v-307q0 -91 7.5 -111t28.5 -33t68 -13h65q153 0 245.5 71t132.5 216h30l-50 -347h-943v30h36q48 0 77 17q21 11 32 38q9 20 9 102v718q0 74 -4 91q-8 28 -30 43
q-31 23 -84 23h-36v30h914v-323h-31q-23 118 -65.5 169.5t-119.5 75.5q-45 15 -169 15h-113zM794 1465l-266 -280h-69l93 280h242z" />
    <glyph glyph-name="Ecircumflex" unicode="&#xca;" horiz-adv-x="1100" 
d="M449 1029v-445h22q104 0 150.5 65.5t59.5 192.5h31v-572h-31q-10 94 -41 153.5t-72 80t-119 20.5v-307q0 -91 7.5 -111t28.5 -33t68 -13h65q153 0 245.5 71t132.5 216h30l-50 -347h-943v30h36q48 0 77 17q21 11 32 38q9 20 9 102v718q0 74 -4 91q-8 28 -30 43
q-31 23 -84 23h-36v30h914v-323h-31q-23 118 -65.5 169.5t-119.5 75.5q-45 15 -169 15h-113zM643 1465l164 -308h-62l-192 166l-197 -161h-66l171 303h182z" />
    <glyph glyph-name="Edieresis" unicode="&#xcb;" horiz-adv-x="1100" 
d="M449 1029v-445h22q104 0 150.5 65.5t59.5 192.5h31v-572h-31q-10 94 -41 153.5t-72 80t-119 20.5v-307q0 -91 7.5 -111t28.5 -33t68 -13h65q153 0 245.5 71t132.5 216h30l-50 -347h-943v30h36q48 0 77 17q21 11 32 38q9 20 9 102v718q0 74 -4 91q-8 28 -30 43
q-31 23 -84 23h-36v30h914v-323h-31q-23 118 -65.5 169.5t-119.5 75.5q-45 15 -169 15h-113zM702 1413q45 0 76 -31.5t31 -75.5t-31.5 -75.5t-75.5 -31.5t-75.5 31.5t-31.5 75.5t31.5 75.5t75.5 31.5zM401 1413q45 0 76 -31.5t31 -75.5t-31.5 -75.5t-75.5 -31.5t-75.5 31.5
t-31.5 75.5t31.5 75.5t75.5 31.5z" />
    <glyph glyph-name="Igrave" unicode="&#xcc;" horiz-adv-x="642" 
d="M604 30v-30h-571v30h36q48 0 77 17q21 11 32 38q9 20 9 102v718q0 84 -9 104.5t-36 36.5t-73 16h-36v30h571v-30h-36q-48 0 -77 -17q-21 -11 -33 -39q-9 -19 -9 -101v-718q0 -84 9.5 -105t36.5 -36.5t73 -15.5h36zM73 1465h242l93 -280h-68z" />
    <glyph glyph-name="Iacute" unicode="&#xcd;" horiz-adv-x="642" 
d="M604 30v-30h-571v30h36q48 0 77 17q21 11 32 38q9 20 9 102v718q0 84 -9 104.5t-36 36.5t-73 16h-36v30h571v-30h-36q-48 0 -77 -17q-21 -11 -33 -39q-9 -19 -9 -101v-718q0 -84 9.5 -105t36.5 -36.5t73 -15.5h36zM562 1465l-266 -280h-69l93 280h242z" />
    <glyph glyph-name="Icircumflex" unicode="&#xce;" horiz-adv-x="642" 
d="M604 30v-30h-571v30h36q48 0 77 17q21 11 32 38q9 20 9 102v718q0 84 -9 104.5t-36 36.5t-73 16h-36v30h571v-30h-36q-48 0 -77 -17q-21 -11 -33 -39q-9 -19 -9 -101v-718q0 -84 9.5 -105t36.5 -36.5t73 -15.5h36zM411 1465l164 -308h-62l-192 166l-197 -161h-66l171 303
h182z" />
    <glyph glyph-name="Idieresis" unicode="&#xcf;" horiz-adv-x="642" 
d="M604 30v-30h-571v30h36q48 0 77 17q21 11 32 38q9 20 9 102v718q0 84 -9 104.5t-36 36.5t-73 16h-36v30h571v-30h-36q-48 0 -77 -17q-21 -11 -33 -39q-9 -19 -9 -101v-718q0 -84 9.5 -105t36.5 -36.5t73 -15.5h36zM470 1413q45 0 76 -31.5t31 -75.5t-31.5 -75.5
t-75.5 -31.5t-75.5 31.5t-31.5 75.5t31.5 75.5t75.5 31.5zM169 1413q45 0 76 -31.5t31 -75.5t-31.5 -75.5t-75.5 -31.5t-75.5 31.5t-31.5 75.5t31.5 75.5t75.5 31.5z" />
    <glyph glyph-name="Eth" unicode="&#xd0;" horiz-adv-x="1191" 
d="M28 0v30h36q48 0 73.5 15t37.5 40q8 18 8 102v359h-155v59h155v300q0 84 -9.5 104.5t-36.5 36.5t-73 16h-36v30h490q195 0 314 -54q146 -65 221 -197t75 -298q0 -116 -36.5 -213t-96 -160t-136.5 -101t-188 -59q-48 -10 -153 -10h-490zM445 1030l-1 -425h243v-59h-243
l1 -368q0 -68 6.5 -83t21.5 -23q22 -12 62 -12q135 0 206 91q96 124 96 385q0 210 -66 336q-51 98 -133 133q-58 25 -193 25z" />
    <glyph glyph-name="Ntilde" unicode="&#xd1;" horiz-adv-x="1191" 
d="M411 1092l538 -677v469q0 98 -28 133q-39 46 -130 45v30h361v-30q-69 -9 -93 -23t-37 -46t-13 -109v-909h-28l-738 909v-694q0 -94 43 -127t99 -33h26v-30h-388v30q91 1 126 37t35 123v770l-23 29q-35 44 -61.5 57.5t-76.5 15.5v30h388zM806 1412h43q1 -16 1 -27
q0 -89 -50 -143t-121 -54q-52 0 -131.5 38t-105.5 38q-24 0 -40.5 -16t-22.5 -58h-47q0 105 49.5 164.5t124.5 59.5q24 0 40 -5q23 -6 78 -32q83 -38 118 -38q18 0 34 14.5t30 58.5z" />
    <glyph glyph-name="Ograve" unicode="&#xd2;" horiz-adv-x="1282" 
d="M637 1117q261 0 424 -162t163 -405q0 -208 -122 -366q-161 -209 -455 -209t-455 200q-128 157 -128 374q0 243 165.5 405.5t407.5 162.5zM646 1055q-149 0 -227 -153q-64 -125 -64 -360q0 -280 98 -413q69 -94 192 -94q83 0 138 41q71 51 110.5 164t39.5 295
q0 217 -40.5 324.5t-102.5 151.5t-144 44zM399 1465h242l93 -280h-68z" />
    <glyph glyph-name="Oacute" unicode="&#xd3;" horiz-adv-x="1282" 
d="M637 1117q261 0 424 -162t163 -405q0 -208 -122 -366q-161 -209 -455 -209t-455 200q-128 157 -128 374q0 243 165.5 405.5t407.5 162.5zM646 1055q-149 0 -227 -153q-64 -125 -64 -360q0 -280 98 -413q69 -94 192 -94q83 0 138 41q71 51 110.5 164t39.5 295
q0 217 -40.5 324.5t-102.5 151.5t-144 44zM887 1465l-266 -280h-69l93 280h242z" />
    <glyph glyph-name="Ocircumflex" unicode="&#xd4;" horiz-adv-x="1282" 
d="M637 1117q261 0 424 -162t163 -405q0 -208 -122 -366q-161 -209 -455 -209t-455 200q-128 157 -128 374q0 243 165.5 405.5t407.5 162.5zM646 1055q-149 0 -227 -153q-64 -125 -64 -360q0 -280 98 -413q69 -94 192 -94q83 0 138 41q71 51 110.5 164t39.5 295
q0 217 -40.5 324.5t-102.5 151.5t-144 44zM736 1465l164 -308h-62l-192 166l-197 -161h-66l171 303h182z" />
    <glyph glyph-name="Otilde" unicode="&#xd5;" horiz-adv-x="1282" 
d="M637 1117q261 0 424 -162t163 -405q0 -208 -122 -366q-161 -209 -455 -209t-455 200q-128 157 -128 374q0 243 165.5 405.5t407.5 162.5zM646 1055q-149 0 -227 -153q-64 -125 -64 -360q0 -280 98 -413q69 -94 192 -94q83 0 138 41q71 51 110.5 164t39.5 295
q0 217 -40.5 324.5t-102.5 151.5t-144 44zM857 1412h43q1 -16 1 -27q0 -89 -50 -143t-121 -54q-52 0 -131.5 38t-105.5 38q-24 0 -40.5 -16t-22.5 -58h-47q0 105 49.5 164.5t124.5 59.5q24 0 40 -5q23 -6 78 -32q83 -38 118 -38q18 0 34 14.5t30 58.5z" />
    <glyph glyph-name="Odieresis" unicode="&#xd6;" horiz-adv-x="1282" 
d="M637 1117q261 0 424 -162t163 -405q0 -208 -122 -366q-161 -209 -455 -209t-455 200q-128 157 -128 374q0 243 165.5 405.5t407.5 162.5zM646 1055q-149 0 -227 -153q-64 -125 -64 -360q0 -280 98 -413q69 -94 192 -94q83 0 138 41q71 51 110.5 164t39.5 295
q0 217 -40.5 324.5t-102.5 151.5t-144 44zM795 1413q45 0 76 -31.5t31 -75.5t-31.5 -75.5t-75.5 -31.5t-75.5 31.5t-31.5 75.5t31.5 75.5t75.5 31.5zM494 1413q45 0 76 -31.5t31 -75.5t-31.5 -75.5t-75.5 -31.5t-75.5 31.5t-31.5 75.5t31.5 75.5t75.5 31.5z" />
    <glyph glyph-name="multiply" unicode="&#xd7;" horiz-adv-x="939" 
d="M199 895l274 -274l273 273l74 -74l-273 -273l274 -274l-75 -75l-273 274l-273 -272l-74 75l272 271l-274 274z" />
    <glyph glyph-name="Oslash" unicode="&#xd8;" horiz-adv-x="1282" 
d="M1175 1104l-124 -144q172 -167 172 -413q0 -165 -78 -299t-215.5 -203.5t-279.5 -69.5q-86 0 -185 27.5t-176 79.5l-126 -144l-45 39l126 145q-88 81 -133.5 194.5t-45.5 232.5q0 155 75.5 289t211.5 206.5t295 72.5q209 0 358 -117l124 143zM886 863q-42 102 -91 140
q-64 51 -151 51q-121 0 -196 -101q-92 -125 -92 -416q0 -128 27 -255zM406 216q47 -101 102 -141t137 -40q87 0 150 51t105 183q31 98 31 260q0 89 -5 149q-4 42 -18 116z" />
    <glyph glyph-name="Ugrave" unicode="&#xd9;" horiz-adv-x="1191" 
d="M39 1092h563v-30h-28q-64 0 -87.5 -13.5t-33.5 -36.5t-10 -117v-534q0 -147 22 -194.5t72.5 -79t128.5 -31.5q88 0 150.5 40t93.5 110t31 244v445q0 73 -15.5 104.5t-38.5 43.5q-36 19 -102 19v30h377v-30h-22q-46 0 -76.5 -18.5t-44.5 -55.5q-10 -26 -10 -93v-414
q0 -193 -25.5 -278t-123.5 -157t-268 -72q-142 0 -219 38q-106 52 -149.5 132.5t-43.5 216.5v534q0 94 -10.5 117t-36 37t-94.5 13v30zM370 1465h242l93 -280h-68z" />
    <glyph glyph-name="Uacute" unicode="&#xda;" horiz-adv-x="1191" 
d="M39 1092h563v-30h-28q-64 0 -87.5 -13.5t-33.5 -36.5t-10 -117v-534q0 -147 22 -194.5t72.5 -79t128.5 -31.5q88 0 150.5 40t93.5 110t31 244v445q0 73 -15.5 104.5t-38.5 43.5q-36 19 -102 19v30h377v-30h-22q-46 0 -76.5 -18.5t-44.5 -55.5q-10 -26 -10 -93v-414
q0 -193 -25.5 -278t-123.5 -157t-268 -72q-142 0 -219 38q-106 52 -149.5 132.5t-43.5 216.5v534q0 94 -10.5 117t-36 37t-94.5 13v30zM818 1465l-266 -280h-69l93 280h242z" />
    <glyph glyph-name="Ucircumflex" unicode="&#xdb;" horiz-adv-x="1191" 
d="M39 1092h563v-30h-28q-64 0 -87.5 -13.5t-33.5 -36.5t-10 -117v-534q0 -147 22 -194.5t72.5 -79t128.5 -31.5q88 0 150.5 40t93.5 110t31 244v445q0 73 -15.5 104.5t-38.5 43.5q-36 19 -102 19v30h377v-30h-22q-46 0 -76.5 -18.5t-44.5 -55.5q-10 -26 -10 -93v-414
q0 -193 -25.5 -278t-123.5 -157t-268 -72q-142 0 -219 38q-106 52 -149.5 132.5t-43.5 216.5v534q0 94 -10.5 117t-36 37t-94.5 13v30zM712 1465l164 -308h-62l-192 166l-197 -161h-66l171 303h182z" />
    <glyph glyph-name="Udieresis" unicode="&#xdc;" horiz-adv-x="1191" 
d="M39 1092h563v-30h-28q-64 0 -87.5 -13.5t-33.5 -36.5t-10 -117v-534q0 -147 22 -194.5t72.5 -79t128.5 -31.5q88 0 150.5 40t93.5 110t31 244v445q0 73 -15.5 104.5t-38.5 43.5q-36 19 -102 19v30h377v-30h-22q-46 0 -76.5 -18.5t-44.5 -55.5q-10 -26 -10 -93v-414
q0 -193 -25.5 -278t-123.5 -157t-268 -72q-142 0 -219 38q-106 52 -149.5 132.5t-43.5 216.5v534q0 94 -10.5 117t-36 37t-94.5 13v30zM745 1413q45 0 76 -31.5t31 -75.5t-31.5 -75.5t-75.5 -31.5t-75.5 31.5t-31.5 75.5t31.5 75.5t75.5 31.5zM444 1413q45 0 76 -31.5
t31 -75.5t-31.5 -75.5t-75.5 -31.5t-75.5 31.5t-31.5 75.5t31.5 75.5t75.5 31.5z" />
    <glyph glyph-name="Yacute" unicode="&#xdd;" horiz-adv-x="1191" 
d="M1172 1092v-30q-54 -7 -83 -32q-40 -33 -127 -184l-237 -395v-264q0 -85 9 -105.5t35 -36t70 -15.5h61v-30h-613v30h58q48 0 76 17q21 11 33 38q9 20 9 102v219l-257 467q-76 139 -107.5 163.5t-84.5 25.5v30h524v-30h-24q-47 0 -66 -14t-19 -29q0 -29 64 -146l198 -361
l196 329q73 121 73 160q0 22 -21 37q-27 20 -100 24v30h333zM872 1465l-266 -280h-69l93 280h242z" />
    <glyph glyph-name="Thorn" unicode="&#xde;" horiz-adv-x="1007" 
d="M436 848h58q149 0 229 -20q103 -26 165.5 -100t62.5 -177q0 -87 -45 -159t-131.5 -108.5t-281.5 -36.5h-57v-50q0 -96 8 -116t31 -33q30 -18 75 -18h34v-30h-551v30h39q51 0 80 22q20 14 28 44q4 14 4 86v713q0 96 -8.5 117.5t-28.5 33.5q-30 17 -78 17h-36v29h551v-29
h-36q-51 0 -79 -20q-21 -14 -29 -44q-4 -16 -4 -101v-50zM436 786v-476q113 0 154.5 20.5t63.5 62.5q29 59 29 158q0 85 -29 141t-76 78q-35 16 -122 16h-20z" />
    <glyph glyph-name="germandbls" unicode="&#xdf;" horiz-adv-x="917" 
d="M349 0h-302v29q44 6 62 30t18 104v643q0 113 38.5 177t119 99t176.5 35q169 0 248 -68t79 -172q0 -97 -55 -150q-41 -38 -136 -54q83 -17 130 -53t77.5 -111t30.5 -164q0 -109 -33.5 -190.5t-94.5 -122t-134 -40.5q-76 0 -117.5 37t-41.5 88q0 37 21 58.5t57 21.5
q23 0 37 -7t27 -25.5t13 -23.5l-5 -73q0 -4 12 -13q12 -10 27 -10t29 16t14 38q0 19 -29 105q-14 45 -16 54q-4 26 -4 73v115q0 92 -10 122t-37.5 48t-85.5 22v49q47 0 68 17.5t29 54.5q3 19 3 104q0 112 -17 147q-27 52 -91 52q-33 0 -54 -15q-30 -21 -41.5 -50t-11.5 -128
v-869z" />
    <glyph glyph-name="agrave" unicode="&#xe0;" 
d="M471 111q-138 -121 -247 -121q-65 0 -107.5 42t-42.5 106q0 86 74 154.5t323 183.5v75q0 86 -9.5 108t-35 38.5t-57.5 16.5q-53 0 -86 -23q-21 -15 -21 -34q0 -17 22 -42q31 -35 31 -67q0 -39 -29.5 -67t-77.5 -28q-50 0 -84.5 30.5t-34.5 71.5q0 58 46 111t128 81
t171 28q107 0 169.5 -45.5t80.5 -98.5q12 -34 12 -155v-292q0 -52 4 -65.5t12 -19.5t18 -6q21 0 43 29l24 -19q-40 -60 -83 -86.5t-98 -26.5q-65 0 -101 30t-44 91zM471 170v252q-97 -57 -145 -123q-31 -43 -31 -87q0 -37 26 -65q20 -22 57 -22q40 0 93 45zM168 1129h242
l93 -280h-68z" />
    <glyph glyph-name="aacute" unicode="&#xe1;" 
d="M471 111q-138 -121 -247 -121q-65 0 -107.5 42t-42.5 106q0 86 74 154.5t323 183.5v75q0 86 -9.5 108t-35 38.5t-57.5 16.5q-53 0 -86 -23q-21 -15 -21 -34q0 -17 22 -42q31 -35 31 -67q0 -39 -29.5 -67t-77.5 -28q-50 0 -84.5 30.5t-34.5 71.5q0 58 46 111t128 81
t171 28q107 0 169.5 -45.5t80.5 -98.5q12 -34 12 -155v-292q0 -52 4 -65.5t12 -19.5t18 -6q21 0 43 29l24 -19q-40 -60 -83 -86.5t-98 -26.5q-65 0 -101 30t-44 91zM471 170v252q-97 -57 -145 -123q-31 -43 -31 -87q0 -37 26 -65q20 -22 57 -22q40 0 93 45zM656 1129
l-266 -280h-69l93 280h242z" />
    <glyph glyph-name="acircumflex" unicode="&#xe2;" 
d="M471 111q-138 -121 -247 -121q-65 0 -107.5 42t-42.5 106q0 86 74 154.5t323 183.5v75q0 86 -9.5 108t-35 38.5t-57.5 16.5q-53 0 -86 -23q-21 -15 -21 -34q0 -17 22 -42q31 -35 31 -67q0 -39 -29.5 -67t-77.5 -28q-50 0 -84.5 30.5t-34.5 71.5q0 58 46 111t128 81
t171 28q107 0 169.5 -45.5t80.5 -98.5q12 -34 12 -155v-292q0 -52 4 -65.5t12 -19.5t18 -6q21 0 43 29l24 -19q-40 -60 -83 -86.5t-98 -26.5q-65 0 -101 30t-44 91zM471 170v252q-97 -57 -145 -123q-31 -43 -31 -87q0 -37 26 -65q20 -22 57 -22q40 0 93 45zM505 1149
l164 -308h-62l-192 166l-197 -161h-66l171 303h182z" />
    <glyph glyph-name="atilde" unicode="&#xe3;" 
d="M471 111q-138 -121 -247 -121q-65 0 -107.5 42t-42.5 106q0 86 74 154.5t323 183.5v75q0 86 -9.5 108t-35 38.5t-57.5 16.5q-53 0 -86 -23q-21 -15 -21 -34q0 -17 22 -42q31 -35 31 -67q0 -39 -29.5 -67t-77.5 -28q-50 0 -84.5 30.5t-34.5 71.5q0 58 46 111t128 81
t171 28q107 0 169.5 -45.5t80.5 -98.5q12 -34 12 -155v-292q0 -52 4 -65.5t12 -19.5t18 -6q21 0 43 29l24 -19q-40 -60 -83 -86.5t-98 -26.5q-65 0 -101 30t-44 91zM471 170v252q-97 -57 -145 -123q-31 -43 -31 -87q0 -37 26 -65q20 -22 57 -22q40 0 93 45zM626 1103h43
q1 -16 1 -27q0 -89 -50 -143t-121 -54q-52 0 -131.5 38t-105.5 38q-24 0 -40.5 -16t-22.5 -58h-47q0 105 49.5 164.5t124.5 59.5q24 0 40 -5q23 -6 78 -32q83 -38 118 -38q18 0 34 14.5t30 58.5z" />
    <glyph glyph-name="adieresis" unicode="&#xe4;" 
d="M471 111q-138 -121 -247 -121q-65 0 -107.5 42t-42.5 106q0 86 74 154.5t323 183.5v75q0 86 -9.5 108t-35 38.5t-57.5 16.5q-53 0 -86 -23q-21 -15 -21 -34q0 -17 22 -42q31 -35 31 -67q0 -39 -29.5 -67t-77.5 -28q-50 0 -84.5 30.5t-34.5 71.5q0 58 46 111t128 81
t171 28q107 0 169.5 -45.5t80.5 -98.5q12 -34 12 -155v-292q0 -52 4 -65.5t12 -19.5t18 -6q21 0 43 29l24 -19q-40 -60 -83 -86.5t-98 -26.5q-65 0 -101 30t-44 91zM471 170v252q-97 -57 -145 -123q-31 -43 -31 -87q0 -37 26 -65q20 -22 57 -22q40 0 93 45zM564 1102
q45 0 76 -31.5t31 -75.5t-31.5 -75.5t-75.5 -31.5t-75.5 31.5t-31.5 75.5t31.5 75.5t75.5 31.5zM263 1102q45 0 76 -31.5t31 -75.5t-31.5 -75.5t-75.5 -31.5t-75.5 31.5t-31.5 75.5t31.5 75.5t75.5 31.5z" />
    <glyph glyph-name="aring" unicode="&#xe5;" 
d="M471 111q-138 -121 -247 -121q-65 0 -107.5 42t-42.5 106q0 86 74 154.5t323 183.5v75q0 86 -9.5 108t-35 38.5t-57.5 16.5q-53 0 -86 -23q-21 -15 -21 -34q0 -17 22 -42q31 -35 31 -67q0 -39 -29.5 -67t-77.5 -28q-50 0 -84.5 30.5t-34.5 71.5q0 58 46 111t128 81
t171 28q107 0 169.5 -45.5t80.5 -98.5q12 -34 12 -155v-292q0 -52 4 -65.5t12 -19.5t18 -6q21 0 43 29l24 -19q-40 -60 -83 -86.5t-98 -26.5q-65 0 -101 30t-44 91zM471 170v252q-97 -57 -145 -123q-31 -43 -31 -87q0 -37 26 -65q20 -22 57 -22q40 0 93 45zM412 1157
q70 0 119.5 -49t49.5 -119t-49.5 -120t-119.5 -50t-119.5 50t-49.5 120t49 119t120 49zM412 1095q-45 0 -76 -31t-31 -75q0 -45 31.5 -76.5t75.5 -31.5t75.5 31.5t31.5 76.5q0 44 -31 75t-76 31z" />
    <glyph glyph-name="ae" unicode="&#xe6;" horiz-adv-x="1191" 
d="M1143 402h-435q17 -165 79.5 -235t139.5 -70q114 0 190 124l26 -19q-72 -129 -145.5 -177t-187.5 -48q-86 0 -154 40q-51 29 -95 90q-84 -64 -163.5 -97t-152.5 -33q-79 0 -126 43.5t-47 101.5q0 72 66.5 146.5t354.5 204.5v62q0 79 -11 108t-44 49t-76 20q-47 0 -80 -25
q-24 -19 -24 -39q0 -6 3 -11.5t23 -26.5q29 -30 29 -67q0 -36 -27 -60q-38 -33 -85 -33q-45 0 -78 32t-33 76q0 89 103 153t220 64q81 0 147 -30q40 -19 78 -62q47 49 93.5 70.5t110.5 21.5q130 0 211.5 -90t89.5 -283zM946 455q1 26 1 39q0 127 -41 186q-28 40 -73 40
q-27 0 -48 -16q-35 -29 -53 -82q-25 -71 -26 -167h240zM493 423q-123 -82 -160.5 -125.5t-37.5 -100.5q0 -38 30 -67t71 -29q27 0 63 12.5t80 36.5q-25 52 -35.5 109t-10.5 164z" />
    <glyph glyph-name="ccedilla" unicode="&#xe7;" horiz-adv-x="732" 
d="M670 194l25 -19q-53 -100 -132.5 -149t-168.5 -49q-151 0 -241 113.5t-90 273.5q0 154 82 270q99 141 273 141q117 0 185.5 -58.5t68.5 -131.5q0 -46 -27.5 -73t-72.5 -27q-48 0 -79 31t-38 112q-5 51 -24 71q-18 20 -43 20q-39 0 -66 -41q-42 -62 -42 -190
q0 -106 34 -203t93 -145q44 -35 104 -35q40 0 75 18.5t84 70.5zM386 10h53l-38 -59q49 -8 74 -39t25 -78q0 -42 -24.5 -76.5t-63.5 -48.5q-61 -19 -185 -19v38q80 3 108.5 26t28.5 63q0 24 -18.5 40.5t-54.5 16.5z" />
    <glyph glyph-name="egrave" unicode="&#xe8;" horiz-adv-x="732" 
d="M693 403h-413q7 -149 80 -236q55 -67 133 -67q49 0 88.5 27t84.5 97l27 -18q-61 -125 -135 -177t-172 -52q-167 0 -253 129q-69 104 -69 258q0 188 101.5 299.5t238.5 111.5q114 0 198.5 -93.5t90.5 -278.5zM495 457q0 130 -14 178t-44 73q-17 15 -45 15q-42 0 -68 -41
q-48 -72 -48 -197v-28h219zM157 1129h242l93 -280h-68z" />
    <glyph glyph-name="eacute" unicode="&#xe9;" horiz-adv-x="732" 
d="M693 403h-413q7 -149 80 -236q55 -67 133 -67q49 0 88.5 27t84.5 97l27 -18q-61 -125 -135 -177t-172 -52q-167 0 -253 129q-69 104 -69 258q0 188 101.5 299.5t238.5 111.5q114 0 198.5 -93.5t90.5 -278.5zM495 457q0 130 -14 178t-44 73q-17 15 -45 15q-42 0 -68 -41
q-48 -72 -48 -197v-28h219zM613 1129l-266 -280h-69l93 280h242z" />
    <glyph glyph-name="ecircumflex" unicode="&#xea;" horiz-adv-x="732" 
d="M693 403h-413q7 -149 80 -236q55 -67 133 -67q49 0 88.5 27t84.5 97l27 -18q-61 -125 -135 -177t-172 -52q-167 0 -253 129q-69 104 -69 258q0 188 101.5 299.5t238.5 111.5q114 0 198.5 -93.5t90.5 -278.5zM495 457q0 130 -14 178t-44 73q-17 15 -45 15q-42 0 -68 -41
q-48 -72 -48 -197v-28h219zM463 1149l164 -308h-62l-192 166l-197 -161h-66l171 303h182z" />
    <glyph glyph-name="edieresis" unicode="&#xeb;" horiz-adv-x="732" 
d="M693 403h-413q7 -149 80 -236q55 -67 133 -67q49 0 88.5 27t84.5 97l27 -18q-61 -125 -135 -177t-172 -52q-167 0 -253 129q-69 104 -69 258q0 188 101.5 299.5t238.5 111.5q114 0 198.5 -93.5t90.5 -278.5zM495 457q0 130 -14 178t-44 73q-17 15 -45 15q-42 0 -68 -41
q-48 -72 -48 -197v-28h219zM541 1102q45 0 76 -31.5t31 -75.5t-31.5 -75.5t-75.5 -31.5t-75.5 31.5t-31.5 75.5t31.5 75.5t75.5 31.5zM240 1102q45 0 76 -31.5t31 -75.5t-31.5 -75.5t-75.5 -31.5t-75.5 31.5t-31.5 75.5t31.5 75.5t75.5 31.5z" />
    <glyph glyph-name="igrave" unicode="&#xec;" horiz-adv-x="458" 
d="M349 753v-597q0 -80 18.5 -102t72.5 -25v-29h-406v29q50 2 74 29q16 18 16 98v440q0 79 -18.5 101.5t-71.5 25.5v30h315zM-11 1129h242l93 -280h-68z" />
    <glyph glyph-name="iacute" unicode="&#xed;" horiz-adv-x="458" 
d="M349 753v-597q0 -80 18.5 -102t72.5 -25v-29h-406v29q50 2 74 29q16 18 16 98v440q0 79 -18.5 101.5t-71.5 25.5v30h315zM477 1129l-266 -280h-69l93 280h242z" />
    <glyph glyph-name="icircumflex" unicode="&#xee;" horiz-adv-x="458" 
d="M349 753v-597q0 -80 18.5 -102t72.5 -25v-29h-406v29q50 2 74 29q16 18 16 98v440q0 79 -18.5 101.5t-71.5 25.5v30h315zM326 1149l164 -308h-62l-192 166l-197 -161h-66l171 303h182z" />
    <glyph glyph-name="idieresis" unicode="&#xef;" horiz-adv-x="458" 
d="M349 753v-597q0 -80 18.5 -102t72.5 -25v-29h-406v29q50 2 74 29q16 18 16 98v440q0 79 -18.5 101.5t-71.5 25.5v30h315zM385 1102q45 0 76 -31.5t31 -75.5t-31.5 -75.5t-75.5 -31.5t-75.5 31.5t-31.5 75.5t31.5 75.5t75.5 31.5zM84 1102q45 0 76 -31.5t31 -75.5
t-31.5 -75.5t-75.5 -31.5t-75.5 31.5t-31.5 75.5t31.5 75.5t75.5 31.5z" />
    <glyph glyph-name="eth" unicode="&#xf0;" 
d="M379 919l-202 -112l-26 45l193 109q-58 62 -150 127l19 29q63 -25 105.5 -47.5t104.5 -65.5l190 107l25 -47l-168 -93q149 -121 222.5 -255t73.5 -294q0 -133 -42 -236.5t-125 -156t-186 -52.5q-101 0 -184 52t-126 142t-43 201q0 142 66 247q84 130 240 130
q49 0 119 -23q-27 69 -47.5 106t-58.5 87zM413 695q-36 0 -62 -20t-41 -69.5t-15 -190.5q0 -223 16 -289q9 -47 36.5 -70t63.5 -23q35 0 61.5 22t37.5 71q16 66 16 272q0 157 -14 207.5t-39 70t-60 19.5z" />
    <glyph glyph-name="ntilde" unicode="&#xf1;" horiz-adv-x="917" 
d="M363 753v-98q58 63 111 91.5t114 28.5q74 0 122 -40.5t64 -100.5q13 -46 13 -177v-293q0 -87 16 -108t66 -27v-29h-381v29q42 6 61 35q13 21 13 100v335q0 93 -7.5 117t-24.5 37.5t-38 13.5q-69 0 -129 -99v-404q0 -84 15.5 -106.5t58.5 -28.5v-29h-381v29q48 5 68 31
q14 17 14 104v425q0 86 -16 106.5t-66 27.5v30h307zM668 1103h43q1 -16 1 -27q0 -89 -50 -143t-121 -54q-52 0 -131.5 38t-105.5 38q-24 0 -40.5 -16t-22.5 -58h-47q0 105 49.5 164.5t124.5 59.5q24 0 40 -5q23 -6 78 -32q83 -38 118 -38q18 0 34 14.5t30 58.5z" />
    <glyph glyph-name="ograve" unicode="&#xf2;" 
d="M411 775q98 0 182.5 -50.5t128.5 -144t44 -204.5q0 -160 -82 -268q-98 -131 -271 -131q-170 0 -261.5 119.5t-91.5 276.5q0 162 93.5 282t257.5 120zM414 718q-41 0 -70.5 -31t-39 -122.5t-9.5 -253.5q0 -86 12 -161q9 -57 38 -87t66 -30q36 0 60 20q31 28 42 77
q16 76 16 309q0 137 -15.5 188t-44.5 74q-21 17 -55 17zM167 1129h242l93 -280h-68z" />
    <glyph glyph-name="oacute" unicode="&#xf3;" 
d="M411 775q98 0 182.5 -50.5t128.5 -144t44 -204.5q0 -160 -82 -268q-98 -131 -271 -131q-170 0 -261.5 119.5t-91.5 276.5q0 162 93.5 282t257.5 120zM414 718q-41 0 -70.5 -31t-39 -122.5t-9.5 -253.5q0 -86 12 -161q9 -57 38 -87t66 -30q36 0 60 20q31 28 42 77
q16 76 16 309q0 137 -15.5 188t-44.5 74q-21 17 -55 17zM656 1129l-266 -280h-69l93 280h242z" />
    <glyph glyph-name="ocircumflex" unicode="&#xf4;" 
d="M411 775q98 0 182.5 -50.5t128.5 -144t44 -204.5q0 -160 -82 -268q-98 -131 -271 -131q-170 0 -261.5 119.5t-91.5 276.5q0 162 93.5 282t257.5 120zM414 718q-41 0 -70.5 -31t-39 -122.5t-9.5 -253.5q0 -86 12 -161q9 -57 38 -87t66 -30q36 0 60 20q31 28 42 77
q16 76 16 309q0 137 -15.5 188t-44.5 74q-21 17 -55 17zM504 1149l164 -308h-62l-192 166l-197 -161h-66l171 303h182z" />
    <glyph glyph-name="otilde" unicode="&#xf5;" 
d="M411 775q98 0 182.5 -50.5t128.5 -144t44 -204.5q0 -160 -82 -268q-98 -131 -271 -131q-170 0 -261.5 119.5t-91.5 276.5q0 162 93.5 282t257.5 120zM414 718q-41 0 -70.5 -31t-39 -122.5t-9.5 -253.5q0 -86 12 -161q9 -57 38 -87t66 -30q36 0 60 20q31 28 42 77
q16 76 16 309q0 137 -15.5 188t-44.5 74q-21 17 -55 17zM625 1103h43q1 -16 1 -27q0 -89 -50 -143t-121 -54q-52 0 -131.5 38t-105.5 38q-24 0 -40.5 -16t-22.5 -58h-47q0 105 49.5 164.5t124.5 59.5q24 0 40 -5q23 -6 78 -32q83 -38 118 -38q18 0 34 14.5t30 58.5z" />
    <glyph glyph-name="odieresis" unicode="&#xf6;" 
d="M411 775q98 0 182.5 -50.5t128.5 -144t44 -204.5q0 -160 -82 -268q-98 -131 -271 -131q-170 0 -261.5 119.5t-91.5 276.5q0 162 93.5 282t257.5 120zM414 718q-41 0 -70.5 -31t-39 -122.5t-9.5 -253.5q0 -86 12 -161q9 -57 38 -87t66 -30q36 0 60 20q31 28 42 77
q16 76 16 309q0 137 -15.5 188t-44.5 74q-21 17 -55 17zM564 1102q45 0 76 -31.5t31 -75.5t-31.5 -75.5t-75.5 -31.5t-75.5 31.5t-31.5 75.5t31.5 75.5t75.5 31.5zM263 1102q45 0 76 -31.5t31 -75.5t-31.5 -75.5t-75.5 -31.5t-75.5 31.5t-31.5 75.5t31.5 75.5t75.5 31.5z
" />
    <glyph glyph-name="divide" unicode="&#xf7;" horiz-adv-x="905" 
d="M454 898q35 0 59 -24t24 -58t-24 -58t-59 -25q-34 1 -58 25t-25 58q1 34 25 58t58 24zM13 599h880v-106h-880v106zM453 365q35 0 59 -24.5t24 -57.5q0 -35 -24 -59t-59 -24q-34 0 -58.5 24t-24.5 59q0 33 24.5 57.5t58.5 24.5z" />
    <glyph glyph-name="oslash" unicode="&#xf8;" 
d="M770 761l-91 -106q53 -71 70 -121q21 -65 21 -152q0 -116 -43 -211.5t-126 -144.5t-179 -49q-71 0 -125.5 22.5t-117.5 76.5l-86 -99l-38 36l89 105q-41 65 -56 115q-20 65 -20 141q0 161 93 281t261 120q67 0 116.5 -19t103.5 -63l90 103zM530 564q-8 87 -36.5 120.5
t-66.5 33.5q-33 0 -52 -12q-26 -18 -42.5 -56t-21.5 -141q-1 -28 -3 -208zM308 225q4 -110 35.5 -150t74.5 -40q36 0 56 16q28 22 43 71q19 66 19 203q0 8 -2 162z" />
    <glyph glyph-name="ugrave" unicode="&#xf9;" horiz-adv-x="917" 
d="M782 753v-590q0 -86 16.5 -107t65.5 -27v-29h-307v101q-54 -65 -108 -94.5t-121 -29.5q-63 0 -112.5 39.5t-66.5 91.5t-17 183v298q0 86 -15.5 106.5t-65.5 27.5v30h306v-515q0 -80 8 -103.5t24.5 -35.5t37.5 -12q29 0 53 15q32 21 77 85v402q0 86 -15.5 106.5
t-65.5 27.5v30h306zM209 1129h242l93 -280h-68z" />
    <glyph glyph-name="uacute" unicode="&#xfa;" horiz-adv-x="917" 
d="M782 753v-590q0 -86 16.5 -107t65.5 -27v-29h-307v101q-54 -65 -108 -94.5t-121 -29.5q-63 0 -112.5 39.5t-66.5 91.5t-17 183v298q0 86 -15.5 106.5t-65.5 27.5v30h306v-515q0 -80 8 -103.5t24.5 -35.5t37.5 -12q29 0 53 15q32 21 77 85v402q0 86 -15.5 106.5
t-65.5 27.5v30h306zM699 1129l-266 -280h-69l93 280h242z" />
    <glyph glyph-name="ucircumflex" unicode="&#xfb;" horiz-adv-x="917" 
d="M782 753v-590q0 -86 16.5 -107t65.5 -27v-29h-307v101q-54 -65 -108 -94.5t-121 -29.5q-63 0 -112.5 39.5t-66.5 91.5t-17 183v298q0 86 -15.5 106.5t-65.5 27.5v30h306v-515q0 -80 8 -103.5t24.5 -35.5t37.5 -12q29 0 53 15q32 21 77 85v402q0 86 -15.5 106.5
t-65.5 27.5v30h306zM549 1149l164 -308h-62l-192 166l-197 -161h-66l171 303h182z" />
    <glyph glyph-name="udieresis" unicode="&#xfc;" horiz-adv-x="917" 
d="M782 753v-590q0 -86 16.5 -107t65.5 -27v-29h-307v101q-54 -65 -108 -94.5t-121 -29.5q-63 0 -112.5 39.5t-66.5 91.5t-17 183v298q0 86 -15.5 106.5t-65.5 27.5v30h306v-515q0 -80 8 -103.5t24.5 -35.5t37.5 -12q29 0 53 15q32 21 77 85v402q0 86 -15.5 106.5
t-65.5 27.5v30h306zM608 1102q45 0 76 -31.5t31 -75.5t-31.5 -75.5t-75.5 -31.5t-75.5 31.5t-31.5 75.5t31.5 75.5t75.5 31.5zM307 1102q45 0 76 -31.5t31 -75.5t-31.5 -75.5t-75.5 -31.5t-75.5 31.5t-31.5 75.5t31.5 75.5t75.5 31.5z" />
    <glyph glyph-name="yacute" unicode="&#xfd;" 
d="M401 -31l-243 558q-55 127 -81 156t-63 40v30h400v-30q-40 -2 -56 -15.5t-16 -32.5q0 -31 40 -121l129 -295l88 228q47 122 47 169q0 30 -19.5 47.5t-69.5 19.5v30h252v-30q-37 -4 -60.5 -28.5t-77.5 -167.5l-215 -558q-82 -209 -121 -257q-56 -68 -139 -68
q-67 0 -108.5 38.5t-41.5 92.5q0 46 28.5 76.5t70.5 30.5q40 0 64.5 -25.5t25.5 -79.5q1 -31 7 -39q7 -9 19 -9q19 0 41 23q32 34 76 155zM704 1129l-266 -280h-69l93 280h242z" />
    <glyph glyph-name="thorn" unicode="&#xfe;" horiz-adv-x="917" 
d="M347 76v-280q0 -59 9 -80.5t28.5 -31t75.5 -9.5v-31h-429v31q50 1 74 28q17 18 17 98v1159q0 80 -18.5 102t-72.5 25v30h316v-463q39 58 80 83q59 38 128 38q83 0 151 -52t103.5 -144.5t35.5 -198.5q0 -114 -36.5 -209t-106 -144.5t-155.5 -49.5q-62 0 -116 28
q-40 21 -84 71zM347 158q69 -98 148 -98q44 0 72 45q42 68 42 258q0 195 -46 267q-31 47 -82 47q-82 0 -134 -118v-401z" />
    <glyph glyph-name="ydieresis" unicode="&#xff;" 
d="M401 -31l-243 558q-55 127 -81 156t-63 40v30h400v-30q-40 -2 -56 -15.5t-16 -32.5q0 -31 40 -121l129 -295l88 228q47 122 47 169q0 30 -19.5 47.5t-69.5 19.5v30h252v-30q-37 -4 -60.5 -28.5t-77.5 -167.5l-215 -558q-82 -209 -121 -257q-56 -68 -139 -68
q-67 0 -108.5 38.5t-41.5 92.5q0 46 28.5 76.5t70.5 30.5q40 0 64.5 -25.5t25.5 -79.5q1 -31 7 -39q7 -9 19 -9q19 0 41 23q32 34 76 155zM585 1102q45 0 76 -31.5t31 -75.5t-31.5 -75.5t-75.5 -31.5t-75.5 31.5t-31.5 75.5t31.5 75.5t75.5 31.5zM284 1102q45 0 76 -31.5
t31 -75.5t-31.5 -75.5t-75.5 -31.5t-75.5 31.5t-31.5 75.5t31.5 75.5t75.5 31.5z" />
    <glyph glyph-name="dotlessi" unicode="&#x131;" horiz-adv-x="458" 
d="M349 753v-597q0 -80 18.5 -102t72.5 -25v-29h-406v29q50 2 74 29q16 18 16 98v440q0 79 -18.5 101.5t-71.5 25.5v30h315z" />
    <glyph glyph-name="OE" unicode="&#x152;" horiz-adv-x="1649" 
d="M1491 1092v-326h-32q-16 95 -55.5 152.5t-99.5 82.5t-142 25h-129v-443h26q37 0 75 20q31 15 51.5 42t37 76t22.5 119h30v-570h-30q-25 150 -73 201t-113 51h-26v-276q0 -121 7 -142.5t22 -30.5q22 -13 79 -13h50q132 0 223 73.5t125 211.5h31l-50 -345h-606
q-24 0 -85 -5q-110 -9 -212 -9q-156 0 -267 57q-142 75 -216 212.5t-74 290.5q0 212 128 372q153 189 408 189q97 0 200 -11q43 -4 110 -4h585zM770 827q0 87 -4 110q-8 44 -38 68q-41 34 -104 34q-115 0 -184 -97q-91 -126 -91 -432q0 -253 88 -369q69 -92 182 -92
q83 0 117 38.5t34 154.5v585z" />
    <glyph glyph-name="oe" unicode="&#x153;" horiz-adv-x="1191" 
d="M1145 398h-396q14 -161 73 -231t126 -70q48 0 88.5 28.5t82.5 95.5l26 -18q-65 -125 -136 -175.5t-164 -50.5q-63 0 -108.5 22t-96.5 77q-59 -57 -106.5 -78t-116.5 -21q-187 0 -286 139q-75 104 -75 253q0 113 45.5 207.5t132 146.5t183.5 52q73 0 127.5 -27t105.5 -85
q48 58 97.5 85t113.5 27q116 0 199.5 -96.5t84.5 -280.5zM419 719q-37 0 -60 -19q-31 -27 -49 -94.5t-18 -255.5q0 -158 16.5 -216.5t45.5 -81.5q21 -17 57 -17q42 0 68 21t41.5 86t15.5 270q0 155 -15.5 209.5t-45.5 78.5q-23 19 -56 19zM947 454q1 45 1 61q0 119 -29 161
t-65 42q-24 0 -46 -18q-29 -23 -42 -67q-21 -67 -21 -179h202z" />
    <glyph glyph-name="Scaron" unicode="&#x160;" horiz-adv-x="917" 
d="M774 1117l9 -364h-33q-23 137 -114.5 220t-197.5 83q-82 0 -130 -44t-48 -101q0 -36 17 -64q23 -38 75 -75q38 -27 174 -94q192 -94 259 -178q66 -84 66 -192q0 -137 -106.5 -235.5t-271.5 -98.5q-51 0 -97 10.5t-115 39.5q-39 16 -64 16q-21 0 -44 -16t-38 -49h-30v412
h30q36 -174 137 -265t217 -91q90 0 144 49t54 114q0 39 -21 75t-62.5 68.5t-147.5 85.5q-149 73 -214.5 124.5t-100.5 115t-35 140.5q0 130 96 222t241 92q54 0 103 -13q38 -10 92.5 -36t76.5 -26q21 0 33 12.5t22 62.5h24zM359 1161l-163 308h61l192 -166l198 161h66
l-173 -303h-181z" />
    <glyph glyph-name="scaron" unicode="&#x161;" horiz-adv-x="642" 
d="M531 774l12 -257h-27q-49 114 -102 156t-105 42q-33 0 -56.5 -22t-23.5 -51q0 -22 17 -42q25 -33 143.5 -113t156 -136t37.5 -126q0 -62 -31.5 -122.5t-88.5 -93t-127 -32.5q-53 0 -144 34q-24 9 -33 9q-26 0 -44 -40h-26l-13 270h27q36 -106 99.5 -159t119.5 -53
q39 0 63.5 23.5t24.5 57.5q0 39 -24.5 67t-107.5 85q-123 86 -160 131q-53 66 -53 145q0 87 60 157.5t174 70.5q61 0 118 -30q22 -12 35 -12q15 0 24 6t28 35h27zM219 841l-163 308h61l192 -166l198 161h66l-173 -303h-181z" />
    <glyph glyph-name="Ydieresis" unicode="&#x178;" horiz-adv-x="1191" 
d="M1172 1092v-30q-54 -7 -83 -32q-40 -33 -127 -184l-237 -395v-264q0 -85 9 -105.5t35 -36t70 -15.5h61v-30h-613v30h58q48 0 76 17q21 11 33 38q9 20 9 102v219l-257 467q-76 139 -107.5 163.5t-84.5 25.5v30h524v-30h-24q-47 0 -66 -14t-19 -29q0 -29 64 -146l198 -361
l196 329q73 121 73 160q0 22 -21 37q-27 20 -100 24v30h333zM783 1413q45 0 76 -31.5t31 -75.5t-31.5 -75.5t-75.5 -31.5t-75.5 31.5t-31.5 75.5t31.5 75.5t75.5 31.5zM482 1413q45 0 76 -31.5t31 -75.5t-31.5 -75.5t-75.5 -31.5t-75.5 31.5t-31.5 75.5t31.5 75.5t75.5 31.5
z" />
    <glyph glyph-name="Zcaron" unicode="&#x17d;" horiz-adv-x="1100" 
d="M1006 1092l-641 -1031h207q148 0 206 19q96 29 165.5 106.5t95.5 207.5h32l-45 -394h-999l642 1032h-162q-94 0 -124 -6q-56 -10 -105.5 -41t-82 -82.5t-51.5 -130.5h-30l30 320h862zM454 1161l-163 308h61l192 -166l198 161h66l-173 -303h-181z" />
    <glyph glyph-name="zcaron" unicode="&#x17e;" horiz-adv-x="732" 
d="M672 0h-655v18l414 686h-121q-78 0 -112 -14.5t-55 -45.5t-43 -110h-28v219h633v-22l-410 -679h51q155 0 223.5 44t102.5 162h23zM302 841l-163 308h61l192 -166l198 161h66l-173 -303h-181z" />
    <glyph glyph-name="florin" unicode="&#x192;" 
d="M572 631l-81 -402q-55 -272 -98 -369.5t-116.5 -156.5t-151.5 -59q-60 0 -93 28.5t-33 65.5q0 31 24 55t59 24q34 0 57 -20q18 -15 18 -43q0 -10 -3 -19q-7 -19 -7 -24q0 -6 6 -12t17 -6q22 0 42 25t20 74q0 21 -5 82q-2 36 -2 66q0 63 5 107.5t27 152.5l88 431h-115
l20 98q79 0 119.5 32.5t83.5 148.5t102 161q58 46 141 46q62 0 95.5 -29t33.5 -74q0 -40 -25 -65.5t-62 -25.5q-30 0 -50.5 20t-20.5 46q0 17 22 61q4 8 4 13q0 6 -6.5 11.5t-15.5 5.5q-29 0 -52.5 -29t-23.5 -83q0 -32 3.5 -75t3.5 -64q0 -37 -11 -100h124l-19 -98h-124z
" />
    <glyph glyph-name="afii57929" unicode="&#x2bc;" horiz-adv-x="620" 
d="M229 558v36q94 40 136 104t42 132q0 13 -5 20q-6 6 -12 6q-4 0 -14 -5q-23 -14 -58 -14q-48 0 -83 37t-35 87q0 53 40.5 93.5t97.5 40.5q69 0 118 -54t49 -147q0 -115 -69.5 -204.5t-206.5 -131.5z" />
    <glyph glyph-name="circumflex" unicode="&#x2c6;" horiz-adv-x="549" 
d="M370 1149l164 -308h-62l-192 166l-197 -161h-66l171 303h182z" />
    <glyph glyph-name="caron" unicode="&#x2c7;" horiz-adv-x="549" 
d="M180 841l-163 308h61l192 -166l198 161h66l-173 -303h-181z" />
    <glyph glyph-name="ring" unicode="&#x2da;" horiz-adv-x="549" 
d="M275 1157q70 0 119.5 -49t49.5 -119t-49.5 -120t-119.5 -50t-119.5 50t-49.5 120t49 119t120 49zM275 1095q-45 0 -76 -31t-31 -75q0 -45 31.5 -76.5t75.5 -31.5t75.5 31.5t31.5 76.5q0 44 -31 75t-76 31z" />
    <glyph glyph-name="tilde" unicode="&#x2dc;" horiz-adv-x="549" 
d="M493 1101h43q1 -16 1 -27q0 -89 -50 -143t-121 -54q-52 0 -131.5 38t-105.5 38q-24 0 -40.5 -16t-22.5 -58h-47q0 105 49.5 164.5t124.5 59.5q24 0 40 -5q23 -6 78 -32q83 -38 118 -38q18 0 34 14.5t30 58.5z" />
    <glyph glyph-name="uni0901" unicode="&#x901;" horiz-adv-x="0" 
d="M-266 1252q-44 0 -77 33t-33 77q0 47 32 78.5t78 31.5q48 0 79 -31t31 -79q0 -46 -31.5 -78t-78.5 -32zM192 1440q0 -141 -134.5 -240.5t-325.5 -99.5q-189 0 -324.5 100t-135.5 240h260q0 -115 59.5 -197.5t140.5 -82.5q82 0 141 81t59 199h260z" />
    <glyph glyph-name="uni0902" unicode="&#x902;" horiz-adv-x="0" 
d="M-268 1240q-45 0 -77.5 33.5t-32.5 78.5q0 47 32 78.5t78 31.5q48 0 79 -31t31 -79q0 -47 -32 -79.5t-78 -32.5z" />
    <glyph glyph-name="uni0903" unicode="&#x903;" horiz-adv-x="520" 
d="M390 660h-260v240h260v-240zM390 100h-260v240h260v-240z" />
    <glyph glyph-name="uni0904" unicode="&#x904;" horiz-adv-x="1312" 
d="M1382 940h-208v-790q0 -39 29 -64.5t71 -25.5v-60h-460v60q100 0 100 90v370h-180v80h180v340h-80v100h548v-100zM34 440h80q0 -120 67.5 -210t172.5 -90q82 0 131 51t49 139q0 182 -200 182h-40v74h40q160 0 160 154q0 74 -38.5 117t-101.5 43q-48 0 -91.5 -29
t-68.5 -75l-60 44q118 200 328 200q129 0 209.5 -75t80.5 -187q0 -84 -49.5 -146t-128.5 -76v-4q101 -16 160.5 -84.5t59.5 -169.5q0 -124 -102.5 -211t-267.5 -87q-166 0 -278 131t-112 309zM1155 1060h-240q0 71 -100 120.5t-270 49.5q-133 0 -236.5 79t-103.5 191h260
q0 -100 83.5 -163t196.5 -63q161 0 285.5 -61.5t124.5 -152.5z" />
    <glyph glyph-name="uni0905" unicode="&#x905;" horiz-adv-x="1312" 
d="M1382 940h-208v-790q0 -39 29 -64.5t71 -25.5v-60h-460v60q100 0 100 90v370h-180v80h180v340h-80v100h548v-100zM34 440h80q0 -120 67.5 -210t172.5 -90q82 0 131 51t49 139q0 182 -200 182h-40v74h40q160 0 160 154q0 74 -38.5 117t-101.5 43q-48 0 -91.5 -29
t-68.5 -75l-60 44q118 200 328 200q129 0 209.5 -75t80.5 -187q0 -84 -49.5 -146t-128.5 -76v-4q101 -16 160.5 -84.5t59.5 -169.5q0 -124 -102.5 -211t-267.5 -87q-166 0 -278 131t-112 309z" />
    <glyph glyph-name="uni0906" unicode="&#x906;" horiz-adv-x="1862" 
d="M1932 940h-208v-790q0 -39 29 -64.5t71 -25.5v-60h-460v60q100 0 100 90v790h-290v-790q0 -39 29 -64.5t71 -25.5v-60h-460v60q100 0 100 90v370h-180v80h180v340h-80v100h1098v-100zM34 440h80q0 -120 67.5 -210t172.5 -90q82 0 131 51t49 139q0 182 -200 182h-40v74h40
q160 0 160 154q0 74 -38.5 117t-101.5 43q-48 0 -91.5 -29t-68.5 -75l-60 44q118 200 328 200q129 0 209.5 -75t80.5 -187q0 -84 -49.5 -146t-128.5 -76v-4q101 -16 160.5 -84.5t59.5 -169.5q0 -124 -102.5 -211t-267.5 -87q-166 0 -278 131t-112 309z" />
    <glyph glyph-name="uni0907" unicode="&#x907;" horiz-adv-x="942" 
d="M1012 940h-264v-208h-260q-69 0 -114.5 -28.5t-45.5 -79.5q0 -43 36 -68.5t88 -25.5q31 0 90 5q60 5 86 5q216 0 216 -160q0 -119 -86.5 -188.5t-237.5 -69.5h-88q36 -42 100.5 -80t107.5 -38q44 0 96 28l30 -40q-119 -108 -240 -108q-134 0 -256 126
q-107 112 -149.5 153t-82.5 47v60h286q20 -37 58 -88q84 0 145 40.5t61 107.5q0 60 -45 95t-115 35h-160q-78 0 -139 52.5t-61 127.5q0 76 59 125t141 49h220v126h-494v100h1018v-100z" />
    <glyph glyph-name="uni0908" unicode="&#x908;" horiz-adv-x="942" 
d="M1012 940h-264v-208h-260q-69 0 -114.5 -28.5t-45.5 -79.5q0 -43 36 -68.5t88 -25.5q31 0 90 5q60 5 86 5q216 0 216 -160q0 -119 -86.5 -188.5t-237.5 -69.5h-88q36 -42 100.5 -80t107.5 -38q44 0 96 28l30 -40q-119 -108 -240 -108q-134 0 -256 126
q-107 112 -149.5 153t-82.5 47v60h286q20 -37 58 -88q84 0 145 40.5t61 107.5q0 60 -45 95t-115 35h-160q-78 0 -139 52.5t-61 127.5q0 76 59 125t141 49h220v126h-494v100h1018v-100zM886 1410h-136q-54 0 -89 -32.5t-35 -85.5q0 -131 122 -232h-260q-122 101 -122 232
q0 89 77 143.5t213 54.5h230v-80z" />
    <glyph glyph-name="uni0909" unicode="&#x909;" horiz-adv-x="968" 
d="M1038 940h-400q107 -19 173.5 -75.5t66.5 -124.5q0 -77 -58.5 -134.5t-141.5 -65.5v-10q96 -8 158 -76t62 -164q0 -120 -115 -205t-275 -85q-203 0 -336.5 168t-133.5 392h60q16 -176 118 -298t232 -122q77 0 133.5 53.5t56.5 126.5q0 76 -52 128t-128 52h-60v60h50
q77 0 133.5 59.5t56.5 140.5q0 66 -49.5 115.5t-130.5 64.5h-464v100h1044v-100z" />
    <glyph glyph-name="uni090A" unicode="&#x90a;" horiz-adv-x="1436" 
d="M1506 940h-868q102 -18 171 -78.5t69 -141.5q0 -71 -59 -121.5t-141 -58.5v-10q95 -8 157.5 -73.5t62.5 -156.5q0 -125 -122.5 -212.5t-297.5 -87.5q-181 0 -310.5 164.5t-129.5 395.5h60q16 -177 114.5 -298.5t225.5 -121.5q83 0 141.5 49.5t58.5 120.5
q0 79 -52.5 134.5t-127.5 55.5h-60v60h60q73 0 126.5 58.5t53.5 141.5q0 68 -44 117.5t-116 62.5h-484v100h1512v-100zM858 60l40 60q39 -20 80 -20q58 0 99 68.5t41 171.5q0 111 -35 185.5t-85 74.5q-36 0 -60 -20l-50 60q60 60 190 60q125 0 212.5 -104.5t87.5 -255.5
q0 -137 -86 -238.5t-214 -101.5q-148 0 -220 60z" />
    <glyph glyph-name="uni090B" unicode="&#x90b;" horiz-adv-x="1856" 
d="M1926 940h-724v-340l220 80q-20 40 -20 100q0 50 58 85t142 35q45 0 77.5 -25.5t32.5 -64.5q0 -90 -110 -130q200 -166 200 -380q0 -109 -110.5 -184.5t-269.5 -75.5v60q50 0 85 58t35 142q0 130 -100 300l-240 -100v-360q0 -32 30 -56t70 -24v-60h-460v60q40 0 70 22.5
t30 57.5v260l-840 -340l-40 90l560 230q-255 360 -380 360q-86 0 -190 -60l-30 50q164 140 340 140q125 0 258 -106t242 -294l80 30v440h-948v100h1932v-100z" />
    <glyph glyph-name="uni090C" unicode="&#x90c;" horiz-adv-x="1470" 
d="M1540 940h-386v-130q116 -30 188 -127.5t72 -222.5q0 -141 -84.5 -240.5t-205.5 -99.5q-73 0 -126.5 -50.5t-53.5 -119.5q0 -64 60 -112t140 -48h200v-80h-260q-164 0 -282 73.5t-118 176.5q0 83 67.5 143.5t160.5 60.5q99 0 170.5 80.5t71.5 195.5q0 110 -52.5 185
t-127.5 75q-83 0 -136.5 -72.5t-53.5 -167.5h-70q0 101 -58.5 170.5t-141.5 69.5q-82 0 -141 -77t-59 -183q0 -95 53.5 -167.5t136.5 -72.5q69 0 100 50l50 -50q-68 -120 -270 -120q-135 0 -231.5 111.5t-96.5 266.5q0 149 105.5 255.5t252.5 106.5q123 0 214 -58.5
t116 -151.5h10q66 173 200 200v130h-960v100h1546v-100z" />
    <glyph glyph-name="uni090D" unicode="&#x90d;" horiz-adv-x="1038" 
d="M1108 940h-250q112 -132 112 -306q0 -147 -83 -240.5t-217 -93.5q-130 0 -230 120l50 50q50 -50 100 -50q58 0 94 61t36 159q0 156 -122 300h-268v-500q0 -116 75 -192t205 -88q360 -32 360 -160q0 -49 -51.5 -84.5t-128.5 -35.5h-160v60q80 0 80 60q0 64 -200 100
q-191 34 -305.5 145.5t-114.5 234.5v460h-96v100h1114v-100zM950 1460q0 -141 -134.5 -240.5t-325.5 -99.5q-189 0 -324.5 100t-135.5 240h260q0 -115 59.5 -197.5t140.5 -82.5q82 0 141 81t59 199h260z" />
    <glyph glyph-name="uni090E" unicode="&#x90e;" horiz-adv-x="1038" 
d="M1108 940h-250q112 -132 112 -306q0 -147 -83 -240.5t-217 -93.5q-130 0 -230 120l50 50q50 -50 100 -50q58 0 94 61t36 159q0 156 -122 300h-268v-500q0 -116 75 -192t205 -88q360 -32 360 -160q0 -49 -51.5 -84.5t-128.5 -35.5h-160v60q80 0 80 60q0 64 -200 100
q-191 34 -305.5 145.5t-114.5 234.5v460h-96v100h1114v-100zM884 1060h-240q0 71 -100 120.5t-270 49.5q-133 0 -236.5 79t-103.5 191h260q0 -100 83.5 -163t196.5 -63q161 0 285.5 -61.5t124.5 -152.5z" />
    <glyph glyph-name="uni090F" unicode="&#x90f;" horiz-adv-x="1038" 
d="M1108 940h-250q112 -132 112 -306q0 -147 -83 -240.5t-217 -93.5q-130 0 -230 120l50 50q50 -50 100 -50q58 0 94 61t36 159q0 156 -122 300h-268v-500q0 -116 75 -192t205 -88q360 -32 360 -160q0 -49 -51.5 -84.5t-128.5 -35.5h-160v60q80 0 80 60q0 64 -200 100
q-191 34 -305.5 145.5t-114.5 234.5v460h-96v100h1114v-100z" />
    <glyph glyph-name="uni0910" unicode="&#x910;" horiz-adv-x="1038" 
d="M1108 940h-250q112 -132 112 -306q0 -147 -83 -240.5t-217 -93.5q-130 0 -230 120l50 50q50 -50 100 -50q58 0 94 61t36 159q0 156 -122 300h-268v-500q0 -116 75 -192t205 -88q360 -32 360 -160q0 -49 -51.5 -84.5t-128.5 -35.5h-160v60q80 0 80 60q0 64 -200 100
q-191 34 -305.5 145.5t-114.5 234.5v460h-96v100h1114v-100zM869 1060h-240q-56 0 -120 60l-280 260q-43 40 -140 40h-80v80h280q73 0 140 -60l290 -260q67 -60 110 -60h40v-60z" />
    <glyph glyph-name="uni0911" unicode="&#x911;" horiz-adv-x="1862" 
d="M1932 940h-208v-790q0 -39 29 -64.5t71 -25.5v-60h-460v60q100 0 100 90v790h-290v-790q0 -39 29 -64.5t71 -25.5v-60h-460v60q100 0 100 90v370h-180v80h180v340h-80v100h1098v-100zM34 440h80q0 -120 67.5 -210t172.5 -90q82 0 131 51t49 139q0 182 -200 182h-40v74h40
q160 0 160 154q0 74 -38.5 117t-101.5 43q-48 0 -91.5 -29t-68.5 -75l-60 44q118 200 328 200q129 0 209.5 -75t80.5 -187q0 -84 -49.5 -146t-128.5 -76v-4q101 -16 160.5 -84.5t59.5 -169.5q0 -124 -102.5 -211t-267.5 -87q-166 0 -278 131t-112 309zM1785 1460
q0 -141 -134.5 -240.5t-325.5 -99.5q-189 0 -324.5 100t-135.5 240h260q0 -115 59.5 -197.5t140.5 -82.5q82 0 141 81t59 199h260z" />
    <glyph glyph-name="uni0912" unicode="&#x912;" horiz-adv-x="1862" 
d="M1932 940h-208v-790q0 -39 29 -64.5t71 -25.5v-60h-460v60q100 0 100 90v790h-290v-790q0 -39 29 -64.5t71 -25.5v-60h-460v60q100 0 100 90v370h-180v80h180v340h-80v100h1098v-100zM34 440h80q0 -120 67.5 -210t172.5 -90q82 0 131 51t49 139q0 182 -200 182h-40v74h40
q160 0 160 154q0 74 -38.5 117t-101.5 43q-48 0 -91.5 -29t-68.5 -75l-60 44q118 200 328 200q129 0 209.5 -75t80.5 -187q0 -84 -49.5 -146t-128.5 -76v-4q101 -16 160.5 -84.5t59.5 -169.5q0 -124 -102.5 -211t-267.5 -87q-166 0 -278 131t-112 309zM1714 1060h-240
q0 71 -100 120.5t-270 49.5q-133 0 -236.5 79t-103.5 191h260q0 -100 83.5 -163t196.5 -63q161 0 285.5 -61.5t124.5 -152.5z" />
    <glyph glyph-name="uni0913" unicode="&#x913;" horiz-adv-x="1862" 
d="M1932 940h-208v-790q0 -39 29 -64.5t71 -25.5v-60h-460v60q100 0 100 90v790h-290v-790q0 -39 29 -64.5t71 -25.5v-60h-460v60q100 0 100 90v370h-180v80h180v340h-80v100h1098v-100zM34 440h80q0 -120 67.5 -210t172.5 -90q82 0 131 51t49 139q0 182 -200 182h-40v74h40
q160 0 160 154q0 74 -38.5 117t-101.5 43q-48 0 -91.5 -29t-68.5 -75l-60 44q118 200 328 200q129 0 209.5 -75t80.5 -187q0 -84 -49.5 -146t-128.5 -76v-4q101 -16 160.5 -84.5t59.5 -169.5q0 -124 -102.5 -211t-267.5 -87q-166 0 -278 131t-112 309zM1729 1060h-240
q-56 0 -120 60l-280 260q-43 40 -140 40h-80v80h280q73 0 140 -60l290 -260q67 -60 110 -60h40v-60z" />
    <glyph glyph-name="uni0914" unicode="&#x914;" horiz-adv-x="1862" 
d="M1932 940h-208v-790q0 -39 29 -64.5t71 -25.5v-60h-460v60q100 0 100 90v790h-290v-790q0 -39 29 -64.5t71 -25.5v-60h-460v60q100 0 100 90v370h-180v80h180v340h-80v100h1098v-100zM34 440h80q0 -120 67.5 -210t172.5 -90q82 0 131 51t49 139q0 182 -200 182h-40v74h40
q160 0 160 154q0 74 -38.5 117t-101.5 43q-48 0 -91.5 -29t-68.5 -75l-60 44q118 200 328 200q129 0 209.5 -75t80.5 -187q0 -84 -49.5 -146t-128.5 -76v-4q101 -16 160.5 -84.5t59.5 -169.5q0 -124 -102.5 -211t-267.5 -87q-166 0 -278 131t-112 309zM1776 1138h-202
q-56 0 -102 50l-188 204q-46 50 -106 50h-102v58h266q66 0 112 -52l192 -216q34 -38 90 -38h40v-56zM1496 1060h-228q-39 0 -110 52l-270 198q-52 38 -102 38h-70v56h244q75 0 132 -44l264 -204q49 -38 100 -38h40v-58z" />
    <glyph glyph-name="uni0915" unicode="&#x915;" horiz-adv-x="1688" 
d="M1758 940h-784v-140q103 60 260 60q167 0 283.5 -107.5t116.5 -262.5t-116.5 -262.5t-283.5 -107.5q-101 0 -200 70l20 70q39 -20 60 -20q109 0 184.5 76t75.5 184q0 109 -75.5 184.5t-184.5 75.5q-72 0 -140 -40v-580q0 -32 30 -56t70 -24v-60h-460v60q40 0 70 22.5
t30 57.5v80q-122 -100 -260 -100q-165 0 -282.5 108.5t-117.5 261.5t117.5 261.5t282.5 108.5q157 0 260 -60v140h-720v100h1764v-100zM714 280v440q-68 40 -140 40q-108 0 -184 -75.5t-76 -184.5q0 -108 76 -184t184 -76q72 0 140 40z" />
    <glyph glyph-name="uni0916" unicode="&#x916;" horiz-adv-x="1794" 
d="M1864 940h-208v-800q0 -32 30 -56t70 -24v-60h-460v60q40 0 70 22.5t30 57.5v80q-83 -100 -260 -100q-72 0 -110 10q-159 -130 -390 -130q-248 0 -383 144q-94 99 -139.5 133.5t-97.5 42.5v80q42 -7 82 -7q130 0 234 75t104 192q0 103 -52 184t-138 96h-252v100h1870
v-100zM1396 760v180h-960q116 -36 188 -123.5t72 -196.5q0 -125 -90.5 -212.5t-219.5 -87.5q90 -101 190 -160.5t180 -59.5q121 0 190 60q-87 49 -138.5 136.5t-51.5 183.5q0 143 110.5 246.5t269.5 103.5q161 0 260 -70zM1396 280v400q-56 50 -140 50q-101 0 -170.5 -72.5
t-69.5 -177.5q0 -103 70.5 -176.5t169.5 -73.5q81 0 140 50z" />
    <glyph glyph-name="uni0917" unicode="&#x917;" horiz-adv-x="1406" 
d="M1476 940h-208v-800q0 -32 30 -56t70 -24v-60h-460v60q40 0 70 22.5t30 57.5v800h-570q157 -29 268.5 -122.5t111.5 -217.5q0 -167 -129.5 -283.5t-310.5 -116.5q-131 0 -235.5 66.5t-104.5 173.5t104.5 173.5t235.5 66.5q125 0 180 -80q0 139 -93 239.5t-227 100.5h-244
v100h1482v-100zM418 600q-51 0 -85.5 -48t-34.5 -112t35.5 -112t84.5 -48t84.5 46t35.5 114q0 69 -34 114.5t-86 45.5z" />
    <glyph glyph-name="uni0918" unicode="&#x918;" horiz-adv-x="1192" 
d="M1262 940h-208v-800q0 -32 30 -56t70 -24v-60h-460v60q40 0 70 22.5t30 57.5v140q-71 -85 -183 -132.5t-237 -47.5q-127 0 -223.5 73.5t-96.5 186.5q0 91 67.5 161.5t172.5 88.5q-76 14 -128 66t-52 114q0 104 120 150h-240v100h1268v-100zM794 380v560h-300
q-51 0 -85.5 -41.5t-34.5 -98.5q0 -61 41.5 -105.5t98.5 -44.5h80v-80h-80q-81 0 -140.5 -52.5t-59.5 -123.5t56.5 -122.5t133.5 -51.5q80 0 156.5 41.5t133.5 118.5z" />
    <glyph glyph-name="uni0919" unicode="&#x919;" horiz-adv-x="1298" 
d="M1368 940h-444v-220h-300q-60 0 -100 -29.5t-40 -70.5q0 -33 42.5 -56.5t97.5 -23.5h160q99 0 169.5 -63t70.5 -157q0 -133 -128.5 -226.5t-311.5 -93.5q-190 0 -347.5 135t-212.5 345l70 20q45 -166 162.5 -273t257.5 -107q102 0 176 53t74 127q0 68 -57.5 114
t-142.5 46h-120q-91 0 -155.5 47.5t-64.5 112.5q0 74 69 127t171 53h200v140h-670v100h1374v-100zM1164 474q-44 0 -77 33t-33 77q0 47 32 79.5t78 32.5q48 0 80 -32t32 -80q0 -46 -32.5 -78t-79.5 -32z" />
    <glyph glyph-name="uni091A" unicode="&#x91a;" horiz-adv-x="1260" 
d="M1330 940h-208v-800q0 -32 30 -56t70 -24v-60h-460v60q40 0 70 22.5t30 57.5v140q-71 -85 -174.5 -132.5t-215.5 -47.5q-153 0 -261.5 91.5t-108.5 218.5q0 100 80 180t200 104v6h-360v80h700v-80h-88q-120 0 -196 -76t-76 -184q0 -94 70.5 -157t169.5 -63q70 0 138.5 41
t121.5 119v560h-868v100h1336v-100z" />
    <glyph glyph-name="uni091B" unicode="&#x91b;" horiz-adv-x="1360" 
d="M1430 940h-308v-100q84 -39 132 -120t48 -180q0 -236 -201.5 -388t-468.5 -152q-240 0 -405 77t-165 223q0 81 69.5 141.5t170.5 78.5q-93 8 -156.5 60.5t-63.5 119.5q0 74 81 127t199 53q116 0 230 -66l-20 -64q-54 30 -100 30q-56 0 -93 -29t-37 -71q0 -56 42 -98
t98 -42h60v-80h-60q-67 0 -113.5 -53.5t-46.5 -126.5q0 -88 86 -144t224 -56q123 0 224.5 59t149.5 161q-137 12 -230.5 98.5t-93.5 201.5q0 75 55.5 141.5t144.5 98.5v100h-888v100h1436v-100zM1042 580q0 220 -50 220t-50 -220q0 -75 22 -130.5t58 -69.5q20 74 20 200z
" />
    <glyph glyph-name="uni091C" unicode="&#x91c;" horiz-adv-x="1380" 
d="M1450 940h-208v-800q0 -32 30 -56t70 -24v-60h-460v60q40 0 70 22.5t30 57.5v500h-300v-6q200 -80 200 -284q0 -121 -103.5 -205.5t-246.5 -84.5q-201 0 -345.5 187.5t-144.5 452.5h60q18 -199 118.5 -334.5t231.5 -135.5q73 0 121.5 58t48.5 142q0 86 -60.5 148
t-145.5 62h-54v80h620v220h-988v100h1456v-100z" />
    <glyph glyph-name="uni091D" unicode="&#x91d;" horiz-adv-x="1386" 
d="M1456 940h-208v-800q0 -32 30 -56t70 -24v-60h-460v60q40 0 70 22.5t30 57.5v240h-144q0 -119 -86.5 -188.5t-237.5 -69.5h-88q36 -42 100.5 -80t107.5 -38q44 0 96 28l30 -40q-119 -108 -240 -108q-134 0 -256 126q-107 112 -149.5 153t-82.5 47v60h286q20 -37 58 -88
q84 0 145 40.5t61 107.5q0 60 -45 95t-115 35h-160q-78 0 -139 52.5t-61 127.5q0 76 59 125t141 49h220v126h-494v100h1462v-100zM988 460v480h-240v-208h-260q-69 0 -114.5 -28.5t-45.5 -79.5q0 -43 36 -68.5t88 -25.5q31 0 90 5q60 5 86 5q154 0 200 -80h160z" />
    <glyph glyph-name="uni091E" unicode="&#x91e;" horiz-adv-x="1204" 
d="M1274 940h-208v-800q0 -32 30 -56t70 -24v-60h-460v60q40 0 70 22.5t30 57.5v320h-180q-22 -121 -118.5 -200.5t-221.5 -79.5q-74 0 -144 32t-116 88l30 40q68 -40 110 -40q81 0 140.5 58.5t59.5 141.5q0 84 -58 142t-142 58q-62 0 -110 -40l-30 40q100 120 260 120
q127 0 222.5 -78.5t117.5 -201.5h180v400h-812v100h1280v-100z" />
    <glyph glyph-name="uni091F" unicode="&#x91f;" horiz-adv-x="946" 
d="M1016 940h-182v-220h-220q-125 0 -212.5 -87.5t-87.5 -212.5t87.5 -212.5t212.5 -87.5q150 0 280 60l30 -50q-161 -130 -370 -130q-207 0 -353.5 117.5t-146.5 282.5t128.5 282.5t311.5 117.5h80v140h-580v100h1022v-100z" />
    <glyph glyph-name="uni0920" unicode="&#x920;" horiz-adv-x="1104" 
d="M1174 940h-262v-180h-160q131 -36 215.5 -135t84.5 -225q0 -165 -146.5 -282.5t-353.5 -117.5t-353.5 117.5t-146.5 282.5q0 167 145.5 283.5t354.5 116.5h100v140h-658v100h1180v-100zM552 720q-106 0 -173 -97t-67 -223t67 -223t173 -97t173 97t67 223t-67 223t-173 97
z" />
    <glyph glyph-name="uni0921" unicode="&#x921;" horiz-adv-x="1072" 
d="M1142 940h-218v-220h-320q-51 0 -85.5 -29.5t-34.5 -70.5q0 -33 42.5 -56.5t97.5 -23.5h160q99 0 169.5 -63t70.5 -157q0 -142 -138 -231t-312 -89q-186 0 -340 132t-210 338l70 30q45 -166 164.5 -273t265.5 -107q98 0 169 53t71 127q0 68 -57.5 114t-142.5 46h-120
q-91 0 -155.5 53.5t-64.5 126.5q0 67 80.5 113.5t199.5 46.5h160v140h-670v100h1148v-100z" />
    <glyph glyph-name="uni0922" unicode="&#x922;" horiz-adv-x="1216" 
d="M1286 940h-274v-220h-280q-189 0 -304.5 -90.5t-115.5 -239.5q0 -156 124 -243t316 -87q-81 38 -130.5 107t-49.5 143q0 113 87.5 191.5t212.5 78.5q123 0 211.5 -81t88.5 -199q0 -125 -110.5 -212.5t-301.5 -87.5h-108q-271 0 -435.5 109.5t-164.5 290.5
q0 182 154.5 291t415.5 109h130v140h-758v100h1292v-100zM872 494q-26 0 -45 -59t-19 -135q0 -75 19.5 -134.5t44.5 -59.5t44.5 59.5t19.5 134.5t-19 134.5t-45 59.5z" />
    <glyph glyph-name="uni0923" unicode="&#x923;" horiz-adv-x="1462" 
d="M1532 940h-208v-800q0 -32 30 -56t70 -24v-60h-460v60q40 0 70 22.5t30 57.5v800h-240v-440q0 -144 -109.5 -242t-260.5 -98t-260.5 98t-109.5 242v440h-90v100h1538v-100zM564 400v540h-220v-540q0 -65 32 -112.5t78 -47.5t78 47.5t32 112.5z" />
    <glyph glyph-name="uni0924" unicode="&#x924;" horiz-adv-x="1236" 
d="M1306 940h-208v-800q0 -32 30 -56t70 -24v-60h-460v60q40 0 70 22.5t30 57.5v500q-97 80 -240 80q-113 0 -191.5 -79.5t-78.5 -190.5q0 -88 46 -176t124 -154l-240 -120q-200 167 -200 390q0 173 140.5 296.5t339.5 123.5q188 0 300 -80v210h-844v100h1312v-100z" />
    <glyph glyph-name="uni0925" unicode="&#x925;" horiz-adv-x="1318" 
d="M1388 940h-208v-800q0 -32 30 -56t70 -24v-60h-460v60q40 0 70 22.5t30 57.5v160q-150 -210 -440 -210q-180 0 -310 136t-130 324q59 -30 170 -30q180 0 250 60q-133 0 -236.5 73t-103.5 187q0 107 104.5 173.5t235.5 66.5t235.5 -66.5t104.5 -173.5q0 -158 -147 -269
t-353 -111q0 -92 91.5 -156t218.5 -64q110 0 197.5 54t112.5 146v500h-80v100h548v-100zM540 840q0 69 -22.5 114.5t-57.5 45.5q-34 0 -57 -48.5t-23 -111.5q0 -71 23.5 -125.5t56.5 -54.5h40q40 68 40 180z" />
    <glyph glyph-name="uni0926" unicode="&#x926;" horiz-adv-x="1004" 
d="M1074 940h-184v-220h-280q-125 0 -212.5 -80.5t-87.5 -195.5q0 -116 88.5 -195t211.5 -79q63 0 100 20q6 34 6 66q0 63 -26 134h260q0 -184 -82.5 -327.5t-217.5 -192.5l-42 60q67 51 102 180q-108 -40 -220 -40q-180 0 -310 108t-130 256q0 151 128.5 258.5t311.5 107.5
h140v140h-636v100h1080v-100z" />
    <glyph glyph-name="uni0927" unicode="&#x927;" horiz-adv-x="1320" 
d="M1390 940h-208v-800q0 -32 30 -56t70 -24v-60h-460v60q40 0 70 22.5t30 57.5v220q-76 -130 -200 -205t-260 -75q-180 0 -290 79.5t-110 210.5q0 89 71.5 159.5t178.5 90.5q-91 16 -150.5 84.5t-59.5 155.5q0 115 97.5 197.5t232.5 82.5q129 0 219.5 -69.5t90.5 -170.5
q0 -59 -41.5 -99.5t-98.5 -40.5t-98.5 38.5t-41.5 91.5q0 48 34.5 84t85.5 46q-22 20 -80 20q-67 0 -113.5 -53.5t-46.5 -126.5q0 -80 48 -140t112 -60h60v-80h-60q-75 0 -127.5 -59.5t-52.5 -140.5q0 -72 60 -126t140 -54q132 0 241 82.5t159 217.5v440h-60v100h528v-100z
" />
    <glyph glyph-name="uni0928" unicode="&#x928;" horiz-adv-x="1370" 
d="M1440 940h-208v-800q0 -32 30 -56t70 -24v-60h-460v60q40 0 70 22.5t30 57.5v380q-86 70 -310 110q72 -41 111 -107.5t39 -142.5q0 -141 -110.5 -240.5t-269.5 -99.5q-157 0 -268.5 100.5t-111.5 239.5q0 149 110.5 254.5t269.5 105.5q316 0 540 -130v330h-978v100h1446
v-100zM432 660q-65 0 -112.5 -77t-47.5 -183q0 -115 47.5 -197.5t112.5 -82.5q67 0 113.5 80.5t46.5 199.5q0 110 -46.5 185t-113.5 75z" />
    <glyph glyph-name="uni0929" unicode="&#x929;" horiz-adv-x="1370" 
d="M1440 940h-208v-800q0 -32 30 -56t70 -24v-60h-460v60q40 0 70 22.5t30 57.5v380q-89 77 -280 110q120 -68 120 -210q0 -125 -110.5 -212.5t-269.5 -87.5q-157 0 -268.5 88.5t-111.5 211.5q0 131 111.5 225.5t268.5 94.5q292 0 540 -140v340h-978v100h1446v-100zM432 660
q-66 0 -113 -65t-47 -155q0 -99 47.5 -169.5t112.5 -70.5q66 0 113 69t47 171q0 94 -46.5 157t-113.5 63zM430 -188q-48 0 -84 36t-36 84q0 49 34.5 84.5t85.5 35.5q52 0 86 -34t34 -86q0 -51 -35.5 -85.5t-84.5 -34.5z" />
    <glyph glyph-name="uni092A" unicode="&#x92a;" horiz-adv-x="1204" 
d="M1274 940h-208v-800q0 -32 30 -56t70 -24v-60h-460v60q40 0 70 22.5t30 57.5v180q-49 -85 -145.5 -132.5t-214.5 -47.5q-148 0 -254 106t-106 254v440h-92v100h1280v-100zM806 500v440h-460v-440q0 -91 67.5 -155.5t162.5 -64.5q97 0 163.5 63.5t66.5 156.5z" />
    <glyph glyph-name="uni092B" unicode="&#x92b;" horiz-adv-x="1482" 
d="M1552 940h-722v-200q92 80 240 80q151 0 255.5 -99.5t104.5 -240.5q0 -151 -105.5 -255.5t-254.5 -104.5q-110 0 -180 60v80q36 -20 70 -20q97 0 163.5 63.5t66.5 156.5q0 101 -66.5 170.5t-163.5 69.5q-83 0 -130 -40v-520q0 -32 30 -56t70 -24v-60h-460v60
q40 0 70 22.5t30 57.5v90q-69 -60 -190 -60q-119 0 -204.5 82.5t-85.5 197.5v490h-96v100h1558v-100zM570 382v558h-220v-558q0 -58 32 -90t78 -32t78 32t32 90z" />
    <glyph glyph-name="uni092C" unicode="&#x92c;" horiz-adv-x="1150" 
d="M1220 940h-208v-800q0 -32 30 -56t70 -24v-60h-460v60q40 0 70 22.5t30 57.5v100q-48 -58 -128.5 -89t-171.5 -31q-164 0 -282 106t-118 254q0 149 116.5 254.5t283.5 105.5q178 0 300 -100v200h-758v100h1226v-100zM752 380v260q-79 80 -180 80q-111 0 -160 -40z
M712 300l-360 320q-40 -54 -40 -140q0 -103 76.5 -171.5t183.5 -68.5q80 0 140 60z" />
    <glyph glyph-name="uni092D" unicode="&#x92d;" horiz-adv-x="1290" 
d="M1360 940h-208v-800q0 -32 30 -56t70 -24v-60h-460v60q40 0 70 22.5t30 57.5v260h-240v-140q0 -103 -76.5 -171.5t-183.5 -68.5q-133 0 -211.5 68t-78.5 172q0 106 67 173t171 67h52v60h-40q-132 0 -216 69t-84 173q0 99 86 168.5t214 69.5q120 0 210 -67.5t90 -172.5
v-300h240v440h-100v100h568v-100zM392 620v180q0 71 -14.5 115.5t-35.5 44.5q-20 0 -35 -49.5t-15 -110.5q0 -73 18 -126.5t50 -53.5h32zM392 260v140h-42q-37 0 -62.5 -41.5t-25.5 -98.5q0 -140 72 -140q27 0 42.5 45.5t15.5 94.5z" />
    <glyph glyph-name="uni092E" unicode="&#x92e;" horiz-adv-x="1280" 
d="M1350 940h-208v-800q0 -32 30 -56t70 -24v-60h-460v60q40 0 70 22.5t30 57.5v300h-200v-180q0 -113 -96.5 -186.5t-223.5 -73.5q-132 0 -226 76t-94 196q0 114 90.5 191t229.5 77h60v400h-428v100h1356v-100zM882 540v400h-200v-400h200zM422 260v180h-38q-82 0 -82 -180
t60 -180t60 180z" />
    <glyph glyph-name="uni092F" unicode="&#x92f;" horiz-adv-x="1234" 
d="M1304 940h-208v-800q0 -32 30 -56t70 -24v-60h-460v60q40 0 70 22.5t30 57.5v170q-71 -85 -166.5 -132.5t-193.5 -47.5q-180 0 -310 150t-130 360q54 -20 170 -20q84 0 147 47t63 113q0 67 -61 113.5t-149 46.5h-212v100h1310v-100zM836 430v510h-320q160 -58 160 -160
q0 -93 -110.5 -156.5t-269.5 -63.5q0 -127 73.5 -223.5t186.5 -96.5q94 0 170.5 51t109.5 139z" />
    <glyph glyph-name="uni0930" unicode="&#x930;" horiz-adv-x="834" 
d="M903 940h-511v-10q154 -14 257 -102.5t103 -207.5q0 -112 -97 -203t-243 -117q150 -150 210 -150q73 0 130 70l40 -50q-55 -79 -130.5 -124.5t-149.5 -45.5q-100 0 -240 140q-200 200 -260 200l20 60q61 -20 180 -20q115 0 197.5 75t82.5 185q0 128 -101.5 214t-238.5 86
h-158v100h909v-100z" />
    <glyph glyph-name="uni0931" unicode="&#x931;" horiz-adv-x="834" 
d="M903 940h-511v-10q154 -14 257 -102.5t103 -207.5q0 -112 -97 -203t-243 -117q150 -150 210 -150q73 0 130 70l40 -50q-55 -79 -130.5 -124.5t-149.5 -45.5q-100 0 -240 140q-200 200 -260 200l20 60q61 -20 180 -20q115 0 197.5 75t82.5 185q0 128 -101.5 214t-238.5 86
h-158v100h909v-100zM201 -195q-45 0 -77.5 33.5t-32.5 78.5q0 46 32 78t78 32q49 0 80.5 -31t31.5 -79q0 -46 -32.5 -79t-79.5 -33z" />
    <glyph glyph-name="uni0932" unicode="&#x932;" horiz-adv-x="1378" 
d="M1448 940h-208v-800q0 -32 30 -56t70 -24v-60h-460v60q40 0 70 22.5t30 57.5v560q-86 0 -143 -73t-57 -167h-60q0 101 -58.5 170.5t-141.5 69.5q-86 0 -143 -78.5t-57 -201.5q0 -122 64.5 -209t165.5 -87q76 0 150 66l40 -50q-57 -66 -136.5 -103t-163.5 -37
q-156 0 -268 124t-112 296q0 165 110.5 282.5t269.5 117.5q102 0 183.5 -45.5t126.5 -144.5l10 2q67 148 220 148v160h-986v100h1454v-100z" />
    <glyph glyph-name="uni0933" unicode="&#x933;" horiz-adv-x="1360" 
d="M1430 940h-370v-170q111 -41 175.5 -142t64.5 -228q0 -165 -108.5 -282.5t-261.5 -117.5q-140 0 -256 96q-116 -96 -244 -96q-153 0 -261.5 117.5t-108.5 282.5q0 167 107.5 283.5t262.5 116.5q141 0 244 -102q68 60 126 72v170h-806v100h1436v-100zM722 152
q62 -42 122 -42q84 0 136 82t52 212q0 288 -110 288q-54 0 -86 -75t-32 -201q0 -165 -82 -264zM620 644q-54 44 -102 44q-90 0 -145 -85.5t-55 -210.5q0 -290 114 -290q48 0 76 73.5t28 194.5q0 155 84 274z" />
    <glyph glyph-name="uni0934" unicode="&#x934;" horiz-adv-x="1360" 
d="M1430 940h-370v-170q111 -41 175.5 -142t64.5 -228q0 -165 -108.5 -282.5t-261.5 -117.5q-140 0 -256 96q-116 -96 -244 -96q-153 0 -261.5 117.5t-108.5 282.5q0 167 107.5 283.5t262.5 116.5q141 0 244 -102q68 60 126 72v170h-806v100h1436v-100zM722 152
q62 -42 122 -42q84 0 136 82t52 212q0 288 -110 288q-54 0 -86 -75t-32 -201q0 -165 -82 -264zM620 644q-54 44 -102 44q-90 0 -145 -85.5t-55 -210.5q0 -290 114 -290q48 0 76 73.5t28 194.5q0 155 84 274zM677 -256q-45 0 -77.5 33.5t-32.5 78.5q0 46 32 78t78 32
q49 0 80.5 -31t31.5 -79q0 -46 -32.5 -79t-79.5 -33z" />
    <glyph glyph-name="uni0935" unicode="&#x935;" horiz-adv-x="1150" 
d="M1220 940h-208v-800q0 -32 30 -56t70 -24v-60h-460v60q40 0 70 22.5t30 57.5v100q-48 -58 -128.5 -89t-171.5 -31q-164 0 -282 106t-118 254q0 149 116.5 254.5t283.5 105.5q201 0 300 -120v220h-758v100h1226v-100zM752 320v320q-79 80 -180 80q-107 0 -183.5 -68.5
t-76.5 -171.5t76.5 -171.5t183.5 -68.5q98 0 180 80z" />
    <glyph glyph-name="uni0936" unicode="&#x936;" horiz-adv-x="1490" 
d="M372 220h-10q91 -113 156.5 -164.5t137.5 -51.5q59 0 118 34l26 -56q-160 -88 -288 -88q-150 0 -254 140q-139 188 -206 206v60h300q48 -40 114 -40q73 0 119.5 59.5t46.5 140.5q-63 -40 -146 -40q-183 0 -298.5 84.5t-115.5 235.5q0 145 116 232.5t314 87.5t314 -130
t116 -350q0 -175 -117.5 -297.5t-282.5 -122.5q-92 0 -160 60zM502 1000q-76 0 -123 -80.5t-47 -179.5q0 -93 47 -166.5t123 -73.5t123 73.5t47 166.5q0 99 -47 179.5t-123 80.5zM1560 940h-208v-800q0 -32 30 -56t70 -24v-60h-460v60q40 0 70 22.5t30 57.5v800h-120v100
h588v-100z" />
    <glyph glyph-name="uni0937" unicode="&#x937;" horiz-adv-x="1204" 
d="M1274 940h-208v-800q0 -32 30 -56t70 -24v-60h-460v60q40 0 70 22.5t30 57.5v170q-119 -170 -330 -170q-161 0 -275.5 105.5t-114.5 254.5v440h-92v100h1280v-100zM806 540v400h-460zM806 420l-460 400v-360q0 -89 63 -144.5t157 -55.5q67 0 132.5 43t107.5 117z" />
    <glyph glyph-name="uni0938" unicode="&#x938;" horiz-adv-x="1450" 
d="M1520 940h-208v-800q0 -32 30 -56t70 -24v-60h-460v60q40 0 70 22.5t30 57.5v270q-56 -32 -120 -32q-84 0 -160 42l20 100q60 -34 140 -34q61 0 120 34v420h-618q149 -38 233.5 -121.5t84.5 -198.5q0 -120 -96 -202t-258 -106q55 -66 115.5 -114t98.5 -48q79 0 120 50
l60 -40q-136 -160 -280 -160q-134 0 -270 160q-119 141 -230 180l22 68q77 -26 168 -26q129 0 209.5 72.5t80.5 191.5q0 128 -96 211t-232 83h-170v100h1526v-100z" />
    <glyph glyph-name="uni0939" unicode="&#x939;" horiz-adv-x="1008" 
d="M1078 940h-228v-180h-300q-41 0 -70.5 -18t-29.5 -42q0 -32 30 -56t70 -24h70q139 0 234.5 -72t95.5 -178q0 -103 -88.5 -176.5t-211.5 -73.5q-107 0 -180 50l32 54q30 -18 60 -18q53 0 90.5 48t37.5 118q0 72 -46 120t-114 48q-94 0 -157 -70.5t-63 -169.5
q0 -134 100.5 -227t239.5 -93q189 0 320 60l-60 -140h-380q-216 0 -348 100t-132 264q0 109 79 195.5t201 120.5q-59 10 -99.5 47.5t-40.5 82.5q0 54 59.5 92t140.5 38h200v100h-596v100h1084v-100z" />
    <glyph glyph-name="uni093C" unicode="&#x93c;" horiz-adv-x="0" 
d="M-924 -136q-45 0 -77.5 33.5t-32.5 78.5q0 46 32 78t78 32q49 0 80.5 -31t31.5 -79q0 -46 -32.5 -79t-79.5 -33z" />
    <glyph glyph-name="uni093D" unicode="&#x93d;" horiz-adv-x="878" 
d="M32 314h260q0 -107 41 -186.5t99 -79.5t99 76.5t41 189.5q0 139 -230 286t-230 284q0 61 46.5 106.5t113.5 45.5h460v-76h-280q-33 0 -56.5 -22.5t-23.5 -53.5q0 -137 230 -284t230 -286q0 -141 -116.5 -240.5t-283.5 -99.5q-165 0 -282.5 100.5t-117.5 239.5z" />
    <glyph glyph-name="uni093E" unicode="&#x93e;" horiz-adv-x="536" 
d="M606 940h-208v-778q0 -102 100 -102v-60h-460v60q100 0 100 102v778h-144v100h612v-100z" />
    <glyph glyph-name="uni093F" unicode="&#x93f;" horiz-adv-x="536" 
d="M606 940h-208v-778q0 -102 100 -102v-60h-460v60q100 0 100 102v778h-144v100h612v-100zM1346 1060h-260q-59 164 -190 262t-290 98q-111 0 -190.5 -64.5t-79.5 -155.5q0 -70 60 -140h-260q-60 70 -60 140q0 138 170 219t370 81q258 0 457.5 -120t272.5 -320z" />
    <glyph glyph-name="uni0940" unicode="&#x940;" horiz-adv-x="536" 
d="M606 940h-208v-778q0 -102 100 -102v-60h-460v60q100 0 100 102v778h-144v100h612v-100zM398 1060h-260q0 131 -75.5 235.5t-184.5 104.5q-67 0 -113.5 -41.5t-46.5 -98.5q0 -130 80 -200h-260q-80 99 -80 180q0 108 105.5 184t254.5 76q242 0 411 -134.5t169 -305.5z
" />
    <glyph glyph-name="uni0941" unicode="&#x941;" horiz-adv-x="0" 
d="M-1008 -220h260q0 -81 94.5 -140.5t225.5 -59.5q107 0 193.5 52.5t86.5 137.5q0 52 -34 86t-86 34q-33 0 -56.5 -18.5t-23.5 -41.5h-260q0 58 98 99t242 41q161 0 270.5 -58.5t109.5 -141.5q0 -112 -136 -191t-324 -79q-261 0 -449.5 79.5t-210.5 200.5z" />
    <glyph glyph-name="uni0942" unicode="&#x942;" horiz-adv-x="0" 
d="M412 -450h-260q0 141 -122.5 240.5t-297.5 99.5q-102 0 -171 -53t-69 -127q0 -53 35.5 -91.5t84.5 -38.5q35 0 57.5 17.5t22.5 42.5h260q-23 -68 -120.5 -104t-219.5 -36q-157 0 -268.5 62.5t-111.5 147.5q0 120 157.5 190t342.5 70q265 0 456 -118t224 -302z" />
    <glyph glyph-name="uni0943" unicode="&#x943;" horiz-adv-x="0" 
d="M-138 -500h-260q-165 0 -282.5 70t-117.5 170t117.5 170t282.5 70h260v-80h-200q-84 0 -142 -47.5t-58 -112.5q0 -64 60 -112t140 -48h200v-80z" />
    <glyph glyph-name="uni0944" unicode="&#x944;" horiz-adv-x="0" 
d="M-98 -500h-280q-127 0 -218.5 44.5t-91.5 105.5q0 82 140 130q-57 9 -98.5 38.5t-41.5 61.5q0 70 103.5 120t246.5 50h180v-90h-140q-69 0 -114.5 -21t-45.5 -49q0 -33 26.5 -56.5t63.5 -23.5h140v-60h-100q-56 0 -93 -29t-37 -71q0 -24 35.5 -42t84.5 -18h240v-90z" />
    <glyph glyph-name="uni0945" unicode="&#x945;" horiz-adv-x="0" 
d="M192 1460q0 -141 -134.5 -240.5t-325.5 -99.5q-189 0 -324.5 100t-135.5 240h260q0 -115 59.5 -197.5t140.5 -82.5q82 0 141 81t59 199h260z" />
    <glyph glyph-name="uni0946" unicode="&#x946;" horiz-adv-x="0" 
d="M-148 1060h-240q0 71 -100 120.5t-270 49.5q-133 0 -236.5 79t-103.5 191h260q0 -100 83.5 -163t196.5 -63q161 0 285.5 -61.5t124.5 -152.5z" />
    <glyph glyph-name="uni0947" unicode="&#x947;" horiz-adv-x="0" 
d="M-158 1060h-240q-56 0 -120 60l-280 260q-43 40 -140 40h-80v80h280q73 0 140 -60l290 -260q67 -60 110 -60h40v-60z" />
    <glyph glyph-name="uni0948" unicode="&#x948;" horiz-adv-x="0" 
d="M-88 1138h-202q-56 0 -102 50l-188 204q-46 50 -106 50h-102v58h266q66 0 112 -52l192 -216q34 -38 90 -38h40v-56zM-368 1060h-228q-39 0 -110 52l-270 198q-52 38 -102 38h-70v56h244q75 0 132 -44l264 -204q49 -38 100 -38h40v-58z" />
    <glyph glyph-name="uni0949" unicode="&#x949;" horiz-adv-x="536" 
d="M606 940h-208v-778q0 -102 100 -102v-60h-460v60q100 0 100 102v778h-144v100h612v-100zM438 1460q0 -141 -134.5 -240.5t-325.5 -99.5q-189 0 -324.5 100t-135.5 240h260q0 -115 59.5 -197.5t140.5 -82.5q82 0 141 81t59 199h260z" />
    <glyph glyph-name="uni094A" unicode="&#x94a;" horiz-adv-x="536" 
d="M606 940h-208v-778q0 -102 100 -102v-60h-460v60q100 0 100 102v778h-144v100h612v-100zM382 1060h-240q0 71 -100 120.5t-270 49.5q-133 0 -236.5 79t-103.5 191h260q0 -100 83.5 -163t196.5 -63q161 0 285.5 -61.5t124.5 -152.5z" />
    <glyph glyph-name="uni094B" unicode="&#x94b;" horiz-adv-x="536" 
d="M606 940h-208v-778q0 -102 100 -102v-60h-460v60q100 0 100 102v778h-144v100h612v-100zM408 1060h-240q-56 0 -120 60l-280 260q-43 40 -140 40h-80v80h280q73 0 140 -60l290 -260q67 -60 110 -60h40v-60z" />
    <glyph glyph-name="uni094C" unicode="&#x94c;" horiz-adv-x="536" 
d="M606 940h-208v-778q0 -102 100 -102v-60h-460v60q100 0 100 102v778h-144v100h612v-100zM568 1138h-202q-56 0 -102 50l-188 204q-46 50 -106 50h-102v58h266q66 0 112 -52l192 -216q34 -38 90 -38h40v-56zM288 1060h-228q-39 0 -110 52l-270 198q-52 38 -102 38h-70v56
h244q75 0 132 -44l264 -204q49 -38 100 -38h40v-58z" />
    <glyph glyph-name="uni094D" unicode="&#x94d;" horiz-adv-x="0" 
d="M262 -430h-260l-310 310l-50 -70h-160l120 160h260z" />
    <glyph glyph-name="uni0950" unicode="&#x950;" horiz-adv-x="1680" 
d="M926 1260q-45 0 -77.5 35.5t-32.5 84.5q0 51 31.5 85.5t78.5 34.5t78.5 -34.5t31.5 -85.5q0 -49 -32.5 -84.5t-77.5 -35.5zM1346 1320q0 -125 -122.5 -212.5t-297.5 -87.5q-173 0 -296.5 88t-123.5 212h260q0 -91 47.5 -155.5t112.5 -64.5q66 0 113 63t47 157h260z
M26 400l60 20q22 -125 115 -207.5t215 -82.5q69 0 119.5 59.5t50.5 140.5q0 84 -52 142t-128 58h-80v60h80q57 0 98.5 46.5t41.5 113.5q0 68 -46 114t-114 46q-102 0 -160 -70l-40 40q83 140 300 140q126 0 223 -67t97 -173q0 -81 -52.5 -142.5t-127.5 -67.5v-10
q99 -8 164.5 -82.5t65.5 -177.5q0 -125 -116.5 -212.5t-283.5 -87.5q-155 0 -277.5 113.5t-152.5 286.5zM1026 180l20 50q40 -40 140 -40q73 0 126.5 62.5t53.5 151.5q0 92 -52 154t-128 62q-119 0 -202 -62q-66 -50 -133 -50q-13 0 -25 2v80q116 0 210 106q92 104 260 104
q138 0 234 -102t96 -248q0 -145 -97.5 -247.5t-232.5 -102.5q-169 0 -270 80z" />
    <glyph glyph-name="uni0951" unicode="&#x951;" horiz-adv-x="0" 
d="M-188 1170h-160v320h160v-320z" />
    <glyph glyph-name="uni0952" unicode="&#x952;" horiz-adv-x="0" 
d="M-158 -140h-838v120h838v-120z" />
    <glyph glyph-name="uni0953" unicode="&#x953;" horiz-adv-x="0" 
d="M-38 1024h-58l-230 422h194z" />
    <glyph glyph-name="uni0954" unicode="&#x954;" horiz-adv-x="0" 
d="M-38 1446l-230 -422h-58l94 422h194z" />
    <glyph glyph-name="uni0958" unicode="&#x958;" horiz-adv-x="1688" 
d="M1758 940h-784v-140q103 60 260 60q167 0 283.5 -107.5t116.5 -262.5t-116.5 -262.5t-283.5 -107.5q-101 0 -200 70l20 70q39 -20 60 -20q109 0 184.5 76t75.5 184q0 109 -75.5 184.5t-184.5 75.5q-72 0 -140 -40v-580q0 -32 30 -56t70 -24v-60h-460v60q40 0 70 22.5
t30 57.5v80q-122 -100 -260 -100q-165 0 -282.5 108.5t-117.5 261.5t117.5 261.5t282.5 108.5q157 0 260 -60v140h-720v100h1764v-100zM714 280v440q-68 40 -140 40q-108 0 -184 -75.5t-76 -184.5q0 -108 76 -184t184 -76q72 0 140 40zM452 -310q-45 0 -77.5 33.5
t-32.5 78.5q0 47 32 78.5t78 31.5q48 0 79 -31t31 -79q0 -47 -32 -79.5t-78 -32.5z" />
    <glyph glyph-name="uni0959" unicode="&#x959;" horiz-adv-x="1794" 
d="M1864 940h-208v-800q0 -32 30 -56t70 -24v-60h-460v60q40 0 70 22.5t30 57.5v80q-83 -100 -260 -100q-72 0 -110 10q-159 -130 -390 -130q-248 0 -383 144q-94 99 -139.5 133.5t-97.5 42.5v80q42 -7 82 -7q130 0 234 75t104 192q0 103 -52 184t-138 96h-252v100h1870
v-100zM1396 760v180h-960q116 -36 188 -123.5t72 -196.5q0 -125 -90.5 -212.5t-219.5 -87.5q90 -101 190 -160.5t180 -59.5q121 0 190 60q-87 49 -138.5 136.5t-51.5 183.5q0 143 110.5 246.5t269.5 103.5q161 0 260 -70zM1396 280v400q-56 50 -140 50q-101 0 -170.5 -72.5
t-69.5 -177.5q0 -103 70.5 -176.5t169.5 -73.5q81 0 140 50zM151 -171q-45 0 -77.5 33.5t-32.5 78.5q0 46 32 78t78 32q49 0 80.5 -31t31.5 -79q0 -46 -32.5 -79t-79.5 -33z" />
    <glyph glyph-name="uni095A" unicode="&#x95a;" horiz-adv-x="1406" 
d="M1476 940h-208v-800q0 -32 30 -56t70 -24v-60h-460v60q40 0 70 22.5t30 57.5v800h-570q157 -29 268.5 -122.5t111.5 -217.5q0 -167 -129.5 -283.5t-310.5 -116.5q-131 0 -235.5 66.5t-104.5 173.5t104.5 173.5t235.5 66.5q125 0 180 -80q0 139 -93 239.5t-227 100.5h-244
v100h1482v-100zM418 600q-51 0 -85.5 -48t-34.5 -112t35.5 -112t84.5 -48t84.5 46t35.5 114q0 69 -34 114.5t-86 45.5zM532 -240q-45 0 -77.5 33.5t-32.5 78.5q0 47 32 78.5t78 31.5q48 0 79 -31t31 -79q0 -47 -32 -79.5t-78 -32.5z" />
    <glyph glyph-name="uni095B" unicode="&#x95b;" horiz-adv-x="1380" 
d="M1450 940h-208v-800q0 -32 30 -56t70 -24v-60h-460v60q40 0 70 22.5t30 57.5v500h-300v-6q200 -80 200 -284q0 -121 -103.5 -205.5t-246.5 -84.5q-201 0 -345.5 187.5t-144.5 452.5h60q18 -199 118.5 -334.5t231.5 -135.5q73 0 121.5 58t48.5 142q0 86 -60.5 148
t-145.5 62h-54v80h620v220h-988v100h1456v-100zM503 -283q-45 0 -77.5 33.5t-32.5 78.5q0 47 32 78.5t78 31.5q48 0 79 -31t31 -79q0 -47 -32 -79.5t-78 -32.5z" />
    <glyph glyph-name="uni095C" unicode="&#x95c;" horiz-adv-x="1072" 
d="M1142 940h-218v-220h-320q-51 0 -85.5 -29.5t-34.5 -70.5q0 -33 42.5 -56.5t97.5 -23.5h160q99 0 169.5 -63t70.5 -157q0 -142 -138 -231t-312 -89q-186 0 -340 132t-210 338l70 30q45 -166 164.5 -273t265.5 -107q98 0 169 53t71 127q0 68 -57.5 114t-142.5 46h-120
q-91 0 -155.5 53.5t-64.5 126.5q0 67 80.5 113.5t199.5 46.5h160v140h-670v100h1148v-100zM566 -311q-45 0 -77.5 33.5t-32.5 78.5q0 47 32 78.5t78 31.5q48 0 79 -31t31 -79q0 -47 -32 -79.5t-78 -32.5z" />
    <glyph glyph-name="uni095D" unicode="&#x95d;" horiz-adv-x="1216" 
d="M1286 940h-274v-220h-280q-189 0 -304.5 -90.5t-115.5 -239.5q0 -156 124 -243t316 -87q-81 38 -130.5 107t-49.5 143q0 113 87.5 191.5t212.5 78.5q123 0 211.5 -81t88.5 -199q0 -125 -110.5 -212.5t-301.5 -87.5h-108q-271 0 -435.5 109.5t-164.5 290.5
q0 182 154.5 291t415.5 109h130v140h-758v100h1292v-100zM872 494q-26 0 -45 -59t-19 -135q0 -75 19.5 -134.5t44.5 -59.5t44.5 59.5t19.5 134.5t-19 134.5t-45 59.5zM701 -304q-45 0 -77.5 33.5t-32.5 78.5q0 47 32 78.5t78 31.5q48 0 79 -31t31 -79q0 -47 -32 -79.5
t-78 -32.5z" />
    <glyph glyph-name="uni095E" unicode="&#x95e;" horiz-adv-x="1482" 
d="M1552 940h-722v-200q92 80 240 80q151 0 255.5 -99.5t104.5 -240.5q0 -151 -105.5 -255.5t-254.5 -104.5q-110 0 -180 60v80q36 -20 70 -20q97 0 163.5 63.5t66.5 156.5q0 101 -66.5 170.5t-163.5 69.5q-83 0 -130 -40v-520q0 -32 30 -56t70 -24v-60h-460v60
q40 0 70 22.5t30 57.5v90q-69 -60 -190 -60q-119 0 -204.5 82.5t-85.5 197.5v490h-96v100h1558v-100zM570 382v558h-220v-558q0 -58 32 -90t78 -32t78 32t32 90zM382 -310q-45 0 -77.5 33.5t-32.5 78.5q0 47 32 78.5t78 31.5q48 0 79 -31t31 -79q0 -47 -32 -79.5t-78 -32.5z
" />
    <glyph glyph-name="uni095F" unicode="&#x95f;" horiz-adv-x="1234" 
d="M1304 940h-208v-800q0 -32 30 -56t70 -24v-60h-460v60q40 0 70 22.5t30 57.5v170q-71 -85 -166.5 -132.5t-193.5 -47.5q-180 0 -310 150t-130 360q54 -20 170 -20q84 0 147 47t63 113q0 67 -61 113.5t-149 46.5h-212v100h1310v-100zM836 430v510h-320q160 -58 160 -160
q0 -93 -110.5 -156.5t-269.5 -63.5q0 -127 73.5 -223.5t186.5 -96.5q94 0 170.5 51t109.5 139zM333 -178q-45 0 -77.5 33.5t-32.5 78.5q0 47 32 78.5t78 31.5q48 0 79 -31t31 -79q0 -47 -32 -79.5t-78 -32.5z" />
    <glyph glyph-name="uni0960" unicode="&#x960;" horiz-adv-x="1542" 
d="M1612 940h-720v-430l260 140q0 63 44 106.5t106 43.5q48 0 79 -20.5t31 -49.5q0 -68 -90 -120q0 -53 29.5 -91.5t70.5 -38.5l10 -60q-63 0 -106.5 -52.5t-43.5 -127.5q0 -80 44 -138t104 -58t92 16l10 -80q-82 -26 -142 -26q-135 0 -231.5 75.5t-96.5 180.5
q0 79 60.5 146.5t159.5 93.5q-78 34 -100 110l-290 -140v-280q0 -40 30 -70t70 -30v-40h-420v40q41 0 70.5 28.5t29.5 71.5v200l-580 -290l-40 80l410 210l-70 200q-18 50 -72.5 120t-117.5 70q-81 0 -140 -50l-40 50q105 90 240 90q141 0 253 -108t157 -272v500h-678v100
h1618v-100z" />
    <glyph glyph-name="uni0961" unicode="&#x961;" horiz-adv-x="1468" 
d="M1538 940h-384v-130q116 -30 188 -127.5t72 -222.5q0 -141 -99.5 -240.5t-240.5 -99.5q-65 0 -112.5 -26.5t-47.5 -63.5q0 -33 26.5 -56.5t63.5 -23.5h140v-70h-100q-51 0 -90.5 -24.5t-39.5 -65.5q0 -24 35.5 -42t84.5 -18h240v-90h-280q-127 0 -218.5 44.5t-91.5 105.5
q0 82 140 130q-59 10 -99.5 47.5t-40.5 82.5q0 60 69 103t169 43q95 0 163.5 71.5t68.5 172.5q0 110 -52.5 185t-127.5 75q-83 0 -136.5 -72.5t-53.5 -167.5h-70q0 101 -58.5 170.5t-141.5 69.5q-82 0 -141 -77t-59 -183q0 -95 53.5 -167.5t136.5 -72.5q69 0 100 50l50 -50
q-68 -120 -270 -120q-135 0 -231.5 111.5t-96.5 266.5q0 149 105.5 255.5t252.5 106.5q123 0 214 -58.5t116 -151.5h10q66 173 200 200v130h-960v100h1544v-100z" />
    <glyph glyph-name="uni0962" unicode="&#x962;" horiz-adv-x="0" 
d="M160 -734v-58h-192q-110 0 -201 50.5t-91 133.5q0 61 48.5 104.5t119.5 43.5t122.5 58.5t51.5 141.5q0 74 -36 133t-94 59q-61 0 -99.5 -53.5t-38.5 -124.5h-52q0 75 -42.5 126.5t-103.5 51.5q-60 0 -103 -57t-43 -135q0 -70 42 -122t98 -52q53 0 74 38l36 -38
q-53 -88 -196 -88q-99 0 -169.5 81.5t-70.5 194.5q0 111 75.5 187.5t184.5 76.5q91 0 157.5 -41.5t84.5 -110.5h6q25 69 85 110.5t133 41.5q112 0 188 -76t76 -188q0 -98 -60 -172t-150 -74q-55 0 -93.5 -37.5t-38.5 -88.5q0 -47 43.5 -81.5t102.5 -34.5h146z" />
    <glyph glyph-name="uni0963" unicode="&#x963;" horiz-adv-x="0" 
d="M24 -608v-50h-74q-42 0 -69 -19t-27 -47q0 -17 27.5 -30.5t60.5 -13.5h176v-64h-206q-82 0 -154 29t-72 79q0 25 30 52t74 44q-44 8 -74 36t-30 60q0 48 55 76t121 28q69 0 117.5 51.5t48.5 126.5q0 74 -36 133t-94 59q-61 0 -99.5 -53.5t-38.5 -124.5h-52
q0 75 -42.5 126.5t-103.5 51.5q-60 0 -103 -57t-43 -135q0 -70 42 -122t98 -52q53 0 74 38l36 -38q-53 -88 -196 -88q-99 0 -169.5 81.5t-70.5 194.5q0 111 75.5 187.5t184.5 76.5q91 0 157.5 -41.5t84.5 -110.5h6q23 66 86.5 109t139.5 43q108 0 182 -76t74 -188
q0 -103 -72.5 -174.5t-175.5 -71.5q-50 0 -84 -19t-34 -45q0 -25 19.5 -43.5t46.5 -18.5h104z" />
    <glyph glyph-name="uni0964" unicode="&#x964;" horiz-adv-x="520" 
d="M390 -100h-260v1200h260v-1200z" />
    <glyph glyph-name="uni0965" unicode="&#x965;" horiz-adv-x="1030" 
d="M900 -100h-260v1200h260v-1200zM390 -100h-260v1200h260v-1200z" />
    <glyph glyph-name="uni0966" unicode="&#x966;" horiz-adv-x="1120" 
d="M560 60q-180 0 -310 130t-130 310q0 181 128.5 310.5t311.5 129.5q184 0 312 -128t128 -312q0 -183 -129.5 -311.5t-310.5 -128.5zM560 860q-74 0 -127 -106.5t-53 -253.5t54 -253.5t126 -106.5q74 0 127 103.5t53 256.5t-52.5 256.5t-127.5 103.5z" />
    <glyph glyph-name="uni0967" unicode="&#x967;" horiz-adv-x="1120" 
d="M580 520l240 -340q23 -32 23 -80q0 -66 -43 -140h-180q18 30 18 64q0 32 -18 56l-280 380l200 120q-137 24 -228.5 98.5t-91.5 161.5q0 114 103.5 187t236.5 73t236.5 -73t103.5 -187q0 -79 -87.5 -166t-232.5 -154zM580 640q60 67 60 200q0 78 -22.5 129t-57.5 51
q-34 0 -57 -54.5t-23 -125.5q0 -116 100 -200z" />
    <glyph glyph-name="uni0968" unicode="&#x968;" horiz-adv-x="1120" 
d="M570 420l120 -220q44 -80 100 -80q49 0 80 40l40 -60q-120 -100 -226 -100q-74 0 -139 56t-135 204q-84 179 -200 220l20 60q65 -24 176 -24q117 0 190.5 71t73.5 173q0 101 -68.5 170.5t-153.5 69.5q-35 0 -74.5 -15t-123.5 -85l-60 80q146 120 340 120
q167 0 283.5 -99.5t116.5 -240.5t-104.5 -240.5t-255.5 -99.5z" />
    <glyph glyph-name="uni0969" unicode="&#x969;" horiz-adv-x="1120" 
d="M960 -40q-39 -65 -107.5 -102.5t-152.5 -37.5q-78 0 -157.5 42.5t-142.5 117.5q-157 186 -240 200v60q54 0 160 -30t160 -30q73 0 126.5 52.5t53.5 127.5q0 83 -69.5 141.5t-170.5 58.5h-100v80h100q73 0 126.5 58.5t53.5 141.5q0 68 -52 114t-128 46q-90 0 -160 -40
l-20 80q95 60 280 60q131 0 235.5 -66.5t104.5 -173.5q0 -95 -75.5 -167.5t-184.5 -92.5q126 0 223 -67t97 -173q0 -109 -116.5 -184.5t-283.5 -75.5q68 -80 145 -115.5t139 -35.5q73 0 116 51z" />
    <glyph glyph-name="uni096A" unicode="&#x96a;" horiz-adv-x="1120" 
d="M1030 1080q0 -148 -95 -287.5t-255 -232.5q94 -34 152 -113.5t58 -176.5q0 -112 -101 -191t-239 -79q-131 0 -225.5 79.5t-94.5 190.5q0 170 210 290q-158 73 -254 216t-96 304h260q0 -185 44 -314.5t116 -155.5q124 87 192 209.5t68 260.5h260zM570 420
q-80 -99 -80 -200q0 -55 21.5 -97.5t48.5 -42.5q28 0 49 39.5t21 100.5q0 133 -60 200z" />
    <glyph glyph-name="uni096B" unicode="&#x96b;" horiz-adv-x="1120" 
d="M330 0v60h200q87 0 143.5 70t56.5 170q0 34 -10 70q-118 -70 -190 -70q-164 0 -282 118t-118 282v400h260v-400q0 -111 61.5 -195.5t158.5 -84.5q44 0 80 20q-140 247 -140 420q0 100 62.5 170t157.5 70q101 0 160.5 -66.5t59.5 -173.5q0 -86 -21 -178.5t-49 -141.5
q70 -152 70 -270q0 -112 -118 -191t-282 -79h-260zM870 660q40 72 40 200q0 80 -60 80q-40 0 -40 -80q0 -94 60 -200z" />
    <glyph glyph-name="uni096C" unicode="&#x96c;" horiz-adv-x="1120" 
d="M960 240q0 -122 -87.5 -239t-232.5 -201l-50 40q50 60 86 200h-116q-165 0 -282.5 88.5t-117.5 211.5q0 95 75.5 167.5t184.5 92.5q-85 16 -142.5 72.5t-57.5 127.5q0 107 104.5 173.5t235.5 66.5q157 0 260 -60l-40 -80q-68 40 -120 40q-76 0 -128 -41.5t-52 -98.5
q0 -64 48 -112t112 -48h120v-100h-120q-93 0 -156.5 -58.5t-63.5 -141.5q0 -92 64 -156t156 -64h48q12 67 12 120h260z" />
    <glyph glyph-name="uni096D" unicode="&#x96d;" horiz-adv-x="1120" 
d="M1070 440q0 -183 -135.5 -311.5t-324.5 -128.5q-188 0 -324 130t-136 310v500q0 44 -28 72t-72 28v60q151 0 255.5 -81.5t104.5 -198.5v-520q0 -91 59.5 -155.5t140.5 -64.5q83 0 141.5 63.5t58.5 156.5v140q-95 16 -157.5 73.5t-62.5 126.5v260q0 83 69.5 141.5
t170.5 58.5t170.5 -58.5t69.5 -141.5v-460zM810 540v360q0 35 -17.5 57.5t-42.5 22.5t-42.5 -22.5t-17.5 -57.5v-260q0 -77 120 -100z" />
    <glyph glyph-name="uni096E" unicode="&#x96e;" horiz-adv-x="1120" 
d="M1060 380q0 -158 -153 -269t-367 -111q-197 0 -338.5 88t-141.5 212q0 60 54 133.5t233 221t253.5 249.5t99.5 196h260q-38 -213 -338 -428q-302 -216 -302 -372q0 -92 64 -156t156 -64q112 0 186 89.5t74 210.5h260z" />
    <glyph glyph-name="uni096F" unicode="&#x96f;" horiz-adv-x="1120" 
d="M580 480q149 -55 249.5 -141.5t100.5 -178.5q0 -87 -78.5 -150.5t-189.5 -63.5q-268 0 -462 194l40 80q122 -100 260 -100q72 0 126 29t54 71q0 56 -66.5 120.5t-183.5 119.5q-123 58 -196.5 150.5t-73.5 189.5q0 123 117.5 211.5t282.5 88.5q167 0 283.5 -87.5
t116.5 -212.5q0 -133 -110.5 -226.5t-269.5 -93.5zM560 1020q-58 0 -99 -65t-41 -155q0 -91 41.5 -155.5t98.5 -64.5q58 0 99 63t41 157t-40.5 157t-99.5 63z" />
    <glyph glyph-name="uni0970" unicode="&#x970;" horiz-adv-x="918" 
d="M458 0q-135 0 -231.5 85.5t-96.5 204.5q0 124 97.5 206t230.5 82q137 0 233.5 -83.5t96.5 -204.5t-97.5 -205.5t-232.5 -84.5zM458 524q-48 0 -83 -70.5t-35 -163.5q0 -95 35 -166.5t83 -71.5t83 68.5t35 169.5q0 99 -34.5 166.5t-83.5 67.5z" />
    <glyph glyph-name="HighSpacingDot" unicode="&#x971;" horiz-adv-x="620" 
d="M345 885q-45 0 -77.5 33.5t-32.5 78.5q0 47 32 78.5t78 31.5q48 0 79 -31t31 -79q0 -47 -32 -79.5t-78 -32.5z" />
    <glyph glyph-name="CandraA" unicode="&#x972;" horiz-adv-x="1312" 
d="M1382 940h-208v-790q0 -39 29 -64.5t71 -25.5v-60h-460v60q100 0 100 90v370h-180v80h180v340h-80v100h548v-100zM34 440h80q0 -120 67.5 -210t172.5 -90q82 0 131 51t49 139q0 182 -200 182h-40v74h40q160 0 160 154q0 74 -38.5 117t-101.5 43q-48 0 -91.5 -29
t-68.5 -75l-60 44q118 200 328 200q129 0 209.5 -75t80.5 -187q0 -84 -49.5 -146t-128.5 -76v-4q101 -16 160.5 -84.5t59.5 -169.5q0 -124 -102.5 -211t-267.5 -87q-166 0 -278 131t-112 309zM1194 1460q0 -141 -134.5 -240.5t-325.5 -99.5q-189 0 -324.5 100t-135.5 240
h260q0 -115 59.5 -197.5t140.5 -82.5q82 0 141 81t59 199h260z" />
    <glyph glyph-name="uni09170952" unicode="&#x97b;" horiz-adv-x="1406" 
d="M1476 940h-208v-800q0 -32 30 -56t70 -24v-60h-460v60q40 0 70 22.5t30 57.5v800h-570q157 -29 268.5 -122.5t111.5 -217.5q0 -167 -129.5 -283.5t-310.5 -116.5q-131 0 -235.5 66.5t-104.5 173.5t104.5 173.5t235.5 66.5q125 0 180 -80q0 139 -93 239.5t-227 100.5h-244
v100h1482v-100zM418 600q-51 0 -85.5 -48t-34.5 -112t35.5 -112t84.5 -48t84.5 46t35.5 114q0 69 -34 114.5t-86 45.5zM1124 -219h-838v120h838v-120z" />
    <glyph glyph-name="uni091C0952" unicode="&#x97c;" horiz-adv-x="1380" 
d="M1450 940h-208v-800q0 -32 30 -56t70 -24v-60h-460v60q40 0 70 22.5t30 57.5v500h-300v-6q200 -80 200 -284q0 -121 -103.5 -205.5t-246.5 -84.5q-201 0 -345.5 187.5t-144.5 452.5h60q18 -199 118.5 -334.5t231.5 -135.5q73 0 121.5 58t48.5 142q0 86 -60.5 148
t-145.5 62h-54v80h620v220h-988v100h1456v-100zM1112 -219h-838v120h838v-120z" />
    <glyph glyph-name="uni097D" unicode="&#x97d;" horiz-adv-x="1140" 
d="M690 300h-260q0 87 49 159t131 101q66 24 103 96t37 164q0 126 -52.5 213t-127.5 87q-73 0 -126.5 -89t-53.5 -211q0 -117 60 -160h-260q-60 69 -60 160q0 149 128.5 254.5t311.5 105.5q184 0 312 -104t128 -256q0 -89 -43 -161t-117 -99t-117 -99t-43 -161z" />
    <glyph glyph-name="uni09210952" unicode="&#x97e;" horiz-adv-x="1072" 
d="M1142 940h-218v-220h-320q-51 0 -85.5 -29.5t-34.5 -70.5q0 -33 42.5 -56.5t97.5 -23.5h160q99 0 169.5 -63t70.5 -157q0 -142 -138 -231t-312 -89q-186 0 -340 132t-210 338l70 30q45 -166 164.5 -273t265.5 -107q98 0 169 53t71 127q0 68 -57.5 114t-142.5 46h-120
q-91 0 -155.5 53.5t-64.5 126.5q0 67 80.5 113.5t199.5 46.5h160v140h-670v100h1148v-100zM966 -219h-838v120h838v-120z" />
    <glyph glyph-name="uni092C0952" unicode="&#x97f;" horiz-adv-x="1150" 
d="M1220 940h-208v-800q0 -32 30 -56t70 -24v-60h-460v60q40 0 70 22.5t30 57.5v100q-48 -58 -128.5 -89t-171.5 -31q-164 0 -282 106t-118 254q0 149 116.5 254.5t283.5 105.5q178 0 300 -100v200h-758v100h1226v-100zM752 380v260q-79 80 -180 80q-111 0 -160 -40z
M712 300l-360 320q-40 -54 -40 -140q0 -103 76.5 -171.5t183.5 -68.5q80 0 140 60zM992 -219h-838v120h838v-120z" />
    <glyph glyph-name="uni200C" unicode="&#x200c;" horiz-adv-x="0" 
d="M70 -490h-70v1990h70v-1990z" />
    <glyph glyph-name="uni200D" unicode="&#x200d;" horiz-adv-x="0" 
d="M350 1420h-280v-1910h-70v1990h350v-80z" />
    <glyph glyph-name="endash" unicode="&#x2013;" 
d="M837 332h-851v98h851v-98z" />
    <glyph glyph-name="emdash" unicode="&#x2014;" horiz-adv-x="1649" 
d="M1664 332h-1680v98h1680v-98z" />
    <glyph glyph-name="quoteleft" unicode="&#x2018;" horiz-adv-x="549" 
d="M398 1117v-36q-93 -40 -135 -104t-42 -131q0 -14 5 -20q6 -7 11 -7t15 5q23 14 58 14q47 0 82 -37t35 -87q0 -53 -40 -93.5t-97 -40.5q-69 0 -118.5 53.5t-49.5 147.5q0 115 70 204.5t206 131.5z" />
    <glyph glyph-name="quoteright" unicode="&#x2019;" horiz-adv-x="549" 
d="M151 580v36q94 40 136 104t42 132q0 13 -5 20q-6 6 -12 6q-4 0 -14 -5q-23 -14 -58 -14q-48 0 -83 37t-35 87q0 53 40.5 93.5t97.5 40.5q69 0 118 -54t49 -147q0 -115 -69.5 -204.5t-206.5 -131.5z" />
    <glyph glyph-name="quotesinglbase" unicode="&#x201a;" horiz-adv-x="549" 
d="M151 -289v35q94 41 136 105t42 130q0 14 -5 21q-6 7 -12 7q-4 0 -14 -6q-23 -13 -58 -13q-48 0 -83 37t-35 87q0 53 40.5 93t97.5 40q69 0 118 -53.5t49 -146.5q0 -115 -69.5 -204.5t-206.5 -131.5z" />
    <glyph glyph-name="quotedblleft" unicode="&#x201c;" 
d="M730 1117v-40q-84 -30 -131.5 -96t-47.5 -137q0 -15 5 -22q3 -5 8 -5q4 0 12 6q25 18 65 18q46 0 81.5 -37.5t35.5 -88.5q0 -54 -41 -95t-99 -41q-67 0 -116.5 55.5t-49.5 148.5q0 109 67 195t211 139zM343 1117v-40q-84 -30 -131.5 -96t-47.5 -137q0 -15 5 -22
q3 -5 7 -5t12 6q26 18 66 18q45 0 80.5 -37.5t35.5 -88.5q0 -54 -40.5 -95t-98.5 -41q-68 0 -117 55.5t-49 148.5q0 109 67 195t211 139z" />
    <glyph glyph-name="quotedblright" unicode="&#x201d;" 
d="M94 579v40q83 31 130.5 96.5t47.5 136.5q0 15 -5 22q-2 5 -6 5t-13 -6q-26 -19 -64 -19q-47 0 -82 37.5t-35 88.5q0 55 40 96t99 41q67 0 116.5 -55.5t49.5 -148.5q0 -109 -67 -195t-211 -139zM481 579v40q83 31 130.5 96.5t47.5 136.5q0 15 -5 22q-2 5 -6 5t-13 -6
q-26 -19 -64 -19q-47 0 -82 37.5t-35 88.5q0 55 40.5 96t98.5 41q67 0 116.5 -55.5t49.5 -148.5q0 -109 -67 -195t-211 -139z" />
    <glyph glyph-name="quotedblbase" unicode="&#x201e;" 
d="M94 -289v39q83 31 130.5 96.5t47.5 136.5q0 15 -5 23q-2 4 -6 4t-13 -5q-26 -19 -64 -19q-47 0 -82 37.5t-35 89.5q0 54 40 95t99 41q67 0 116.5 -55.5t49.5 -149.5q0 -108 -67 -194.5t-211 -138.5zM481 -289v39q83 31 130.5 96.5t47.5 136.5q0 15 -5 23q-2 4 -6 4
t-13 -5q-26 -19 -64 -19q-47 0 -82 37.5t-35 89.5q0 54 40.5 95t98.5 41q67 0 116.5 -55.5t49.5 -149.5q0 -108 -67 -194.5t-211 -138.5z" />
    <glyph glyph-name="dagger" unicode="&#x2020;" 
d="M429 -323h-39v73q0 306 -29 499q-16 120 -57 232q40 35 59.5 77.5t26.5 108.5q-37 -4 -55 -10q-27 -9 -77 -37t-82 -28q-40 0 -68 27t-28 67q0 39 27.5 65.5t65.5 26.5q32 0 95.5 -33.5t121.5 -41.5q-6 71 -44 152q-24 53 -30.5 75.5t-6.5 46.5q0 51 30 83t70 32
q42 0 72.5 -31t30.5 -84q0 -27 -6.5 -50t-30.5 -71t-35 -84q-7 -26 -11 -69q38 3 60 10.5t74 37.5q35 20 44 23q18 5 38 5q42 0 70.5 -27t28.5 -68q0 -38 -28 -65t-67 -27q-21 0 -41 7q-12 4 -66 34t-113 34q12 -122 87 -186q-48 -142 -65 -269q-22 -165 -22 -462v-73z" />
    <glyph glyph-name="daggerdbl" unicode="&#x2021;" 
d="M521 597q-48 -45 -66.5 -87.5t-18.5 -115.5q0 -105 22 -158q16 -38 63 -72q-49 -45 -65 -72t-24 -67q58 7 109.5 31.5t68 29t36.5 4.5q40 0 64.5 -23t24.5 -57q0 -36 -24 -59t-64 -23q-38 0 -100 29q-44 20 -68 28q-16 4 -47 6q5 -34 11 -53q9 -27 32 -76q31 -65 31 -100
q0 -41 -25 -65t-65 -24q-41 0 -66 24.5t-25 62.5q0 36 32 104.5t41 126.5q-30 -2 -45 -6q-21 -7 -65 -27q-67 -30 -110 -30q-40 0 -64 23t-24 57t25 59t58 25q19 0 38 -5.5t77 -31.5t110 -30q-9 47 -26.5 74.5t-63.5 64.5q47 36 65 73q23 50 23 130q0 97 -18.5 142t-69.5 88
q44 33 63.5 63.5t26.5 74.5q-50 -3 -118.5 -35t-105.5 -32t-61 24.5t-24 58.5q0 32 25 56.5t60 24.5q20 0 40 -5.5t76 -31t108 -29.5q-9 49 -43 120t-34 110q0 40 26.5 68t63.5 28q39 0 65 -26.5t26 -64.5q0 -21 -5.5 -41.5t-31 -78.5t-33.5 -115q33 4 54 10t77 32.5
t81 26.5q35 0 67 -29q23 -22 23 -57q0 -33 -24 -55.5t-64 -22.5q-21 0 -39 4q-9 2 -46 19q-50 22 -71 28.5t-58 12.5q4 -44 22.5 -74t66.5 -64z" />
    <glyph glyph-name="bullet" unicode="&#x2022;" horiz-adv-x="577" 
d="M292 774q96 0 163 -67t67 -163q0 -95 -67.5 -162.5t-162.5 -67.5q-96 0 -163 67.5t-67 162.5q0 96 67 163t163 67z" />
    <glyph glyph-name="ellipsis" unicode="&#x2026;" horiz-adv-x="1649" 
d="M275 248q56 0 95 -39.5t39 -94.5q0 -56 -39.5 -95t-94.5 -39q-56 0 -95 39t-39 95q0 55 39 94.5t95 39.5zM824 247q56 0 95 -39t39 -94q0 -56 -39 -95t-95 -39q-55 0 -94 39t-39 95q0 55 39 94t94 39zM1374 246q56 0 95 -39.5t39 -94.5q0 -56 -39 -95t-95 -39
q-55 0 -94 39t-39 95q0 55 39 94.5t94 39.5z" />
    <glyph glyph-name="perthousand" unicode="&#x2030;" horiz-adv-x="1649" 
d="M987 1117l-758 -1163h-109l761 1163h106zM295 1117q63 0 122 -36.5t89.5 -104t30.5 -147.5q0 -142 -71 -220t-174 -78q-100 0 -172.5 80t-72.5 214q0 84 34 153t95 104t119 35zM294 1076q-13 0 -24 -10q-19 -18 -24 -51q-11 -82 -11 -246q0 -98 12 -148q7 -29 25 -45
q9 -8 24 -8q13 0 21 8q18 16 23 47q9 57 9 192q0 145 -9 203q-6 34 -23 49q-9 9 -23 9zM807 540q66 0 124 -36.5t90 -104t32 -148.5q0 -145 -76 -220.5t-168 -75.5q-88 0 -166.5 73t-78.5 221q0 87 31.5 155.5t91.5 102t120 33.5zM808 502q-15 0 -24 -9q-16 -14 -20 -45
q-14 -91 -14 -213q0 -126 11 -187q5 -31 21 -45q9 -9 25 -9t25 9q16 16 21 47q11 72 11 221q0 113 -12 180q-5 29 -20 43q-9 8 -24 8zM1356 539q65 0 123.5 -36t89.5 -102t31 -147q0 -157 -78.5 -228t-165.5 -71q-91 0 -167 75.5t-76 216.5q0 85 32 153.5t89.5 103.5
t121.5 35zM1356 501q-14 0 -24 -9q-17 -15 -21 -45q-12 -81 -12 -214q0 -117 12 -188q6 -30 21 -43q9 -9 25 -9t24 8q16 13 20 45q12 92 12 225q0 114 -11 178q-6 29 -22 44q-8 8 -24 8z" />
    <glyph glyph-name="guilsinglleft" unicode="&#x2039;" horiz-adv-x="549" 
d="M412 6l-337 370l341 369h57l-188 -369l188 -370h-61z" />
    <glyph glyph-name="guilsinglright" unicode="&#x203a;" horiz-adv-x="549" 
d="M138 745l337 -370l-341 -369h-58l189 369l-189 370h62z" />
    <glyph glyph-name="uni20A8" unicode="&#x20a8;" horiz-adv-x="1720" 
d="M438 497v-305q0 -89 11 -112t38 -36.5t102 -13.5v-30h-558v30q75 0 102 14t38 36.5t11 111.5v708q0 89 -11 111.5t-38.5 36.5t-101.5 14v30h507q198 0 289.5 -27.5t149.5 -101t58 -172.5q0 -121 -87 -200q-55 -50 -155 -75l262 -369q52 -72 74 -90q33 -25 76 -27v-30
h-344l-351 497h-72zM438 1033v-478h46q112 0 167.5 20.5t87 74t31.5 139.5q0 125 -58 184.5t-188 59.5h-86zM1609 774l12 -257h-27q-49 114 -102 156t-105 42q-33 0 -56.5 -22t-23.5 -51q0 -22 17 -42q25 -33 143.5 -113t156 -136t37.5 -126q0 -62 -31.5 -122.5t-88.5 -93
t-127 -32.5q-53 0 -144 34q-24 9 -33 9q-26 0 -44 -40h-26l-13 270h27q36 -106 99.5 -159t119.5 -53q39 0 63.5 23.5t24.5 57.5q0 39 -24.5 67t-107.5 85q-123 86 -160 131q-53 66 -53 145q0 87 60 157.5t174 70.5q61 0 118 -30q22 -12 35 -12q15 0 24 6t28 35h27z" />
    <glyph glyph-name="Euro" unicode="&#x20ac;" 
d="M684 593h-374q-2 -34 -2 -67h359l-19 -62h-339q15 -411 205 -411q92 0 153 59q32 30 94 130l37 -29q-65 -114 -113 -157q-85 -79 -219 -79q-191 0 -299 156q-89 129 -104 331h-82l19 62h60v13q0 25 1 54h-80l19 63h68q27 186 143 315q130 143 316 143q88 0 154 -24
q19 -7 96 -47v-240h-32q-8 112 -61.5 178.5t-140.5 66.5q-100 0 -162 -128q-49 -102 -66 -264h388z" />
    <glyph glyph-name="trademark" unicode="&#x2122;" horiz-adv-x="1649" 
d="M-2 1092h625v-182h-28q-3 70 -39.5 105t-116.5 35h-31v-473q0 -68 15 -85q17 -23 68 -23v-27h-365v27q47 4 58.5 10t17.5 23t6 78v470h-28q-77 0 -113.5 -33t-42.5 -107h-26v182zM712 1092h296l186 -399l184 399h279v-31q-38 0 -52.5 -8t-21.5 -24t-7 -76v-380
q0 -61 12 -77q20 -23 69 -27v-27h-371v27q59 2 75.5 19.5t16.5 84.5v407l-257 -538h-20l-256 538v-404q0 -54 5 -67q7 -18 25.5 -28.5t62.5 -11.5v-27h-226v27q46 3 60 10.5t21 24.5t7 74v377q0 57 -7.5 73.5t-22 24.5t-58.5 8v31z" />
    <glyph glyph-name="minus" unicode="&#x2212;" horiz-adv-x="939" 
d="M32 599h880v-106h-880v106z" />
    <glyph glyph-name="periodcentered" unicode="&#x2219;" horiz-adv-x="717" 
d="M358 344q-79 0 -133.5 55.5t-54.5 132.5q0 76 54 132t134 56t134 -54t54 -134t-54 -134t-134 -54z" />
    <glyph glyph-name="uni25CC" unicode="&#x25cc;" horiz-adv-x="1340" 
d="M670 916q-28 0 -50 22t-22 50q0 29 20.5 50.5t51.5 21.5q32 0 52 -20t20 -52q0 -31 -21.5 -51.5t-50.5 -20.5zM904 854q-28 0 -50 22t-22 50q0 29 20.5 50.5t51.5 21.5q32 0 52 -20t20 -52q0 -31 -21.5 -51.5t-50.5 -20.5zM436 854q-28 0 -50 22t-22 50q0 29 20.5 50.5
t51.5 21.5q32 0 52 -20t20 -52q0 -31 -21.5 -51.5t-50.5 -20.5zM1076 682q-28 0 -50 22t-22 50q0 29 20.5 50.5t51.5 21.5q32 0 52 -20t20 -52q0 -31 -21.5 -51.5t-50.5 -20.5zM266 682q-28 0 -50 22t-22 50q0 29 20.5 50.5t51.5 21.5q32 0 52 -20t20 -52q0 -31 -21.5 -51.5
t-50.5 -20.5zM1138 448q-28 0 -50 22t-22 50q0 29 20.5 50.5t51.5 21.5q32 0 52 -20t20 -52q0 -31 -21.5 -51.5t-50.5 -20.5zM202 448q-28 0 -50 22t-22 50q0 29 20.5 50.5t51.5 21.5q32 0 52 -20t20 -52q0 -31 -21.5 -51.5t-50.5 -20.5zM1076 214q-28 0 -50 22t-22 50
q0 29 20.5 50.5t51.5 21.5q32 0 52 -20t20 -52q0 -31 -21.5 -51.5t-50.5 -20.5zM266 214q-28 0 -50 22t-22 50q0 29 20.5 50.5t51.5 21.5q32 0 52 -20t20 -52q0 -31 -21.5 -51.5t-50.5 -20.5zM904 42q-29 0 -50.5 22.5t-21.5 51.5t20.5 50.5t51.5 21.5q32 0 52 -20t20 -52
q0 -31 -20.5 -52.5t-51.5 -21.5zM436 42q-29 0 -50.5 22.5t-21.5 51.5t20.5 50.5t51.5 21.5q32 0 52 -20t20 -52q0 -31 -20.5 -52.5t-51.5 -21.5zM670 -20q-28 0 -50 22t-22 50q0 29 20.5 50.5t51.5 21.5q32 0 52 -20t20 -52q0 -31 -21.5 -51.5t-50.5 -20.5z" />
    <glyph glyph-name="uni09470902" horiz-adv-x="0" 
d="M-158 1060h-240q-56 0 -120 60l-280 260q-43 40 -120 40h-100v80h280q73 0 140 -60l290 -260q67 -60 110 -60h40v-60zM-222 1248q-45 0 -77.5 33.5t-32.5 78.5q0 47 32 78.5t78 31.5q48 0 79 -31t31 -79q0 -47 -32 -79.5t-78 -32.5z" />
    <glyph glyph-name="uni09470930094D" horiz-adv-x="0" 
d="M-58 1410h-50q-71 0 -114.5 -41.5t-43.5 -108.5q0 -52 32 -93t82 -47v-60h-246q-56 0 -120 60l-280 260q-43 40 -140 40h-80v80h280q73 0 140 -60l118 -106q24 69 103.5 112.5t188.5 43.5h130v-80z" />
    <glyph glyph-name="uni09470930094D0902" horiz-adv-x="0" 
d="M-58 1410h-62q-67 0 -112.5 -42t-45.5 -108q0 -55 37 -97.5t89 -42.5v-60h-246q-56 0 -120 60l-280 260q-43 40 -140 40h-80v80h280q73 0 140 -60l118 -106q24 69 103.5 112.5t188.5 43.5h130v-80zM-88 1160q-40 0 -70 30t-30 70q0 41 28.5 70.5t71.5 29.5q44 0 72 -28
t28 -72q0 -43 -29.5 -71.5t-70.5 -28.5z" />
    <glyph glyph-name="uni09480902" horiz-adv-x="0" 
d="M-88 1138h-202q-56 0 -102 50l-188 204q-46 50 -106 50h-102v58h266q66 0 112 -52l192 -216q34 -38 90 -38h40v-56zM-368 1060h-228q-39 0 -110 52l-270 198q-52 38 -102 38h-70v56h244q75 0 132 -44l264 -204q49 -38 100 -38h40v-58zM-74 1264q-44 0 -77 33t-33 77
q0 47 32 79.5t78 32.5q48 0 80 -32t32 -80q0 -46 -32.5 -78t-79.5 -32z" />
    <glyph glyph-name="uni09480930094D" horiz-adv-x="0" 
d="M92 1414h-100q-60 0 -103 -43.5t-43 -108.5q0 -60 35 -102t91 -44v-56h-180q-70 0 -120 56l-240 270q-50 56 -120 56h-100v58h272q57 0 108 -58l76 -86q28 59 94.5 96.5t149.5 37.5h180v-76zM-368 1060h-220q-42 0 -120 56l-270 194q-53 38 -108 38h-62v56h246
q72 0 134 -48l260 -202q49 -38 102 -38h38v-56z" />
    <glyph glyph-name="uni09480930094D0902" horiz-adv-x="0" 
d="M92 1414h-100q-60 0 -103 -43.5t-43 -108.5q0 -60 35 -102t91 -44v-56h-180q-70 0 -120 56l-240 270q-50 56 -120 56h-100v58h272q57 0 108 -58l76 -86q28 59 94.5 96.5t149.5 37.5h180v-76zM-368 1060h-220q-42 0 -120 56l-270 194q-53 38 -108 38h-62v56h246
q72 0 134 -48l260 -202q49 -38 102 -38h38v-56zM36 1158q-40 0 -70 30t-30 70q0 41 28.5 70.5t71.5 29.5q44 0 72 -28t28 -72q0 -43 -29.5 -71.5t-70.5 -28.5z" />
    <glyph glyph-name="uni0930094D" horiz-adv-x="0" 
d="M42 1410h-136q-54 0 -89 -32.5t-35 -85.5q0 -131 122 -232h-260q-122 101 -122 232q0 89 77 143.5t213 54.5h230v-80z" />
    <glyph glyph-name="uni0930094D0902" horiz-adv-x="0" 
d="M42 1410h-136q-54 0 -89 -32.5t-35 -85.5q0 -131 122 -232h-260q-122 101 -122 232q0 89 77 143.5t213 54.5h230v-80zM-30 1132q-45 0 -77.5 33.5t-32.5 78.5q0 47 32 78.5t78 31.5q48 0 79 -31t31 -79q0 -47 -32 -79.5t-78 -32.5z" />
    <glyph glyph-name="uni094D0930Alt" horiz-adv-x="0" 
d="M-268 260q-439 -306 -830 -340v140q504 45 830 270v-70z" />
    <glyph glyph-name="uni094D0930Default" horiz-adv-x="0" 
d="M170 -400h-200l-230 270l-230 -270h-200l300 400h260z" />
    <glyph glyph-name="uni0936094D0930" horiz-adv-x="1260" 
d="M1330 940h-208v-800q0 -32 30 -56t70 -24v-60h-460v60q40 0 70 22.5t30 57.5v270l-676 -382l-48 90l460 254q-114 44 -218 102q-185 -96 -318 -96v92q108 0 212 54q-216 117 -216 298q0 120 91 199t229 79q137 0 228.5 -75.5t91.5 -202.5q0 -193 -218 -298
q112 -59 218 -90l164 90v416h-80v100h548v-100zM444 814q0 206 -64 206q-68 0 -68 -206q0 -158 66 -228q66 68 66 228z" />
    <glyph glyph-name="uni095E094D0930" horiz-adv-x="1522" 
d="M1592 940h-722v-200q69 80 240 80q151 0 255.5 -99.5t104.5 -240.5q0 -151 -105.5 -255.5t-254.5 -104.5q-110 0 -180 60v80q38 -20 70 -20q97 0 163.5 63.5t66.5 156.5q0 101 -66.5 170.5t-163.5 69.5q-98 0 -130 -40v-520q0 -32 30 -56t70 -24v-60h-460v60
q40 0 70 22.5t30 57.5v158q-342 -277 -570 -298v140q318 31 446 154q-38 -4 -66 -4q-52 0 -127 36.5t-119 110.5t-44 163v340h-136v100h1598v-100zM610 430v510h-220v-440q0 -48 36 -84t84 -36q71 0 100 50zM402 -320q-45 0 -77.5 33.5t-32.5 78.5q0 47 32 78.5t78 31.5
q48 0 79 -31t31 -79q0 -47 -32 -79.5t-78 -32.5z" />
    <glyph glyph-name="uni09240924" horiz-adv-x="1250" 
d="M1320 940h-208v-800q0 -32 30 -56t70 -24v-60h-460v60q40 0 70 22.5t30 57.5v420q-32 40 -160 40q-115 0 -197.5 -75t-82.5 -185q0 -82 49 -157.5t131 -122.5l-240 -120q-95 79 -147.5 184.5t-52.5 215.5q0 203 200 320h-340v80h580q124 0 260 -80v280h-858v100h1326
v-100z" />
    <glyph glyph-name="uni0915094D0937" horiz-adv-x="1460" 
d="M1530 940h-208v-800q0 -32 30 -56t70 -24v-60h-460v60q40 0 70 22.5t30 57.5v380h-520q-96 -35 -158 -100t-62 -140q0 -72 48 -126t112 -54q47 0 90.5 27t69.5 73v140h280q-20 -34 -20 -120v-140q0 -137 -103.5 -233.5t-246.5 -96.5l-10 70q41 0 70.5 40t29.5 100v140
q-27 -73 -103.5 -116.5t-176.5 -43.5q-125 0 -212.5 87.5t-87.5 212.5q0 113 90.5 204.5t229.5 115.5q-111 20 -185.5 91.5t-74.5 158.5q0 111 104 190.5t256 79.5q153 0 256.5 -78t103.5 -192q0 -124 -150 -210h370v340h-120v100h588v-100zM482 1000q-42 0 -71 -60.5
t-29 -139.5q0 -71 29.5 -125.5t70.5 -54.5q42 0 71 52t29 128q0 85 -28.5 142.5t-71.5 57.5z" />
    <glyph glyph-name="uni091C094D091E" horiz-adv-x="1430" 
d="M1500 940h-208v-800q0 -32 30 -56t70 -24v-60h-460v60q40 0 70 22.5t30 57.5v540q-91 0 -270 40q-178 40 -270 40q-68 0 -114 -35.5t-46 -84.5t48 -84.5t112 -35.5h140q111 0 195.5 -61.5t84.5 -158.5q0 -109 -120.5 -174.5t-269.5 -65.5q29 -42 74.5 -69t87.5 -27
q41 0 68 16l40 -40q-68 -120 -200 -120q-66 0 -136 38t-124 102q-98 118 -300 190l40 70q114 -80 340 -80q93 0 166.5 47t73.5 123q0 56 -44.5 93t-105.5 37h-110q-131 0 -225.5 59.5t-94.5 140.5q0 99 98 159.5t222 60.5q108 0 320 -40t320 -40v160h-1038v100h1506v-100z
" />
    <glyph glyph-name="uni0915094DHalf" horiz-adv-x="1194" 
d="M1264 940h-290v-140q103 60 260 60v-100q-192 0 -260 -40v-580q0 -32 30 -56t70 -24v-60h-460v60q40 0 70 22.5t30 57.5v80q-100 -100 -270 -100q-161 0 -275.5 107t-114.5 263q0 153 117.5 261.5t282.5 108.5q157 0 260 -60v140h-720v100h1270v-100zM714 280v440
q-68 40 -140 40q-108 0 -184 -75.5t-76 -184.5q0 -108 76 -184t184 -76q72 0 140 40z" />
    <glyph glyph-name="uni0916094DHalf" horiz-adv-x="1494" 
d="M1564 940h-1130q119 -35 189.5 -118t70.5 -190q0 -119 -86 -203.5t-224 -108.5q233 -220 350 -220q115 0 184 84q-164 108 -164 290q0 151 115 253.5t275 102.5t275 -102.5t115 -253.5t-115.5 -252.5t-274.5 -101.5q-100 0 -182 40q-113 -184 -334 -184
q-121 0 -200.5 44.5t-139.5 113.5q-146 167 -274 186v80q35 -6 88 -6q154 0 243 72t89 194q0 105 -55 182.5t-149 97.5h-236v100h1570v-100zM1224 730q-97 0 -163.5 -73.5t-66.5 -176.5q0 -102 68 -176t162 -74q95 0 162.5 72.5t67.5 177.5q0 106 -66 178t-164 72z" />
    <glyph glyph-name="uni0917094DHalf" horiz-adv-x="868" 
d="M938 940h-500q157 -29 268.5 -122.5t111.5 -217.5q0 -167 -129.5 -283.5t-310.5 -116.5q-131 0 -235.5 66.5t-104.5 173.5q0 104 83.5 172t196.5 68q184 0 240 -80q0 139 -93 239.5t-227 100.5h-244v100h944v-100zM418 600q-51 0 -85.5 -48t-34.5 -112t35.5 -112
t84.5 -48t84.5 46t35.5 114q0 69 -34 114.5t-86 45.5z" />
    <glyph glyph-name="uni0918094DHalf" horiz-adv-x="756" 
d="M826 940h-332q-51 0 -85.5 -41.5t-34.5 -98.5q0 -61 41.5 -105.5t98.5 -44.5h80v-80h-80q-81 0 -140.5 -52.5t-59.5 -123.5t56.5 -122.5t133.5 -51.5q80 0 156.5 41.5t133.5 118.5v-100q-71 -85 -183 -132.5t-237 -47.5q-127 0 -223.5 73.5t-96.5 186.5q0 91 67.5 161.5
t172.5 88.5q-76 14 -128 66t-52 114q0 105 122 150h-242v100h832v-100z" />
    <glyph glyph-name="uni0919094DHalf" horiz-adv-x="1298" 
d="M1368 940h-444v-220h-300q-60 0 -100 -29.5t-40 -70.5q0 -33 42.5 -56.5t97.5 -23.5h160q99 0 169.5 -63t70.5 -157q0 -133 -128.5 -226.5t-311.5 -93.5q-190 0 -347.5 135t-212.5 345l70 20q45 -166 162.5 -273t257.5 -107q102 0 176 53t74 127q0 68 -57.5 114
t-142.5 46h-120q-91 0 -155.5 47.5t-64.5 112.5q0 74 69 127t171 53h200v140h-670v100h1374v-100zM1164 474q-44 0 -77 33t-33 77q0 47 32 79.5t78 32.5q48 0 80 -32t32 -80q0 -46 -32.5 -78t-79.5 -32zM1117 -430h-260l-310 310l-50 -70h-160l120 160h260z" />
    <glyph glyph-name="uni091A094DHalf" horiz-adv-x="822" 
d="M892 940h-898v100h898v-100zM862 280q-71 -85 -174.5 -132.5t-215.5 -47.5q-153 0 -261.5 91.5t-108.5 218.5q0 100 80 180t200 104v6h-360v80h700v-80h-88q-120 0 -196 -76t-76 -184q0 -94 70.5 -157t169.5 -63q70 0 138.5 41t121.5 119v-100z" />
    <glyph glyph-name="uni091B094DHalf" horiz-adv-x="1358" 
d="M1428 940h-1434v100h1434v-100zM300 520q-93 8 -156.5 60.5t-63.5 119.5q0 74 81 127t199 53q116 0 230 -66l-20 -64q-54 30 -100 30q-56 0 -93 -29t-37 -71q0 -56 42 -98t98 -42h60v-80h-60q-67 0 -113.5 -53.5t-46.5 -126.5q0 -81 92 -140.5t218 -59.5q123 0 225 59
t149 161q-137 12 -230.5 98.5t-93.5 201.5q0 111 90.5 190.5t219.5 79.5q130 0 220 -96t90 -234q0 -234 -195 -387t-455 -153q-243 0 -416.5 88.5t-173.5 211.5q0 81 69.5 141.5t170.5 78.5zM1040 580q0 220 -50 220t-50 -220q0 -75 22 -130.5t58 -69.5q20 74 20 200z" />
    <glyph glyph-name="uni091C094DHalf" horiz-adv-x="938" 
d="M1008 940h-1014v100h1014v-100zM982 640h-300v-6q200 -80 200 -284q0 -121 -103.5 -205.5t-246.5 -84.5q-201 0 -345.5 187.5t-144.5 452.5h60q18 -199 118.5 -334.5t231.5 -135.5q73 0 121.5 58t48.5 142q0 86 -60.5 148t-145.5 62h-54v80h620v-80z" />
    <glyph glyph-name="uni091D094DHalf" horiz-adv-x="982" 
d="M1052 940h-304v-208h-260q-69 0 -114.5 -28.5t-45.5 -79.5q0 -43 36 -68.5t88 -25.5q31 0 90 5q60 5 86 5q154 0 200 -80h194v-80h-178q0 -119 -86.5 -188.5t-237.5 -69.5h-88q36 -42 100.5 -80t107.5 -38q44 0 96 28l30 -40q-119 -108 -240 -108q-134 0 -256 126
q-107 112 -149.5 153t-82.5 47v60h286q20 -37 58 -88q84 0 145 40.5t61 107.5q0 60 -45 95t-115 35h-160q-78 0 -139 52.5t-61 127.5q0 76 59 125t141 49h220v126h-494v100h1058v-100z" />
    <glyph glyph-name="uni091E094DHalf" horiz-adv-x="840" 
d="M912 940h-918v100h918v-100zM926 460h-300q-22 -121 -118.5 -200.5t-221.5 -79.5q-74 0 -144 32t-116 88l30 40q68 -40 110 -40q81 0 140.5 58.5t59.5 141.5q0 84 -58 142t-142 58q-62 0 -110 -40l-30 40q100 120 260 120q127 0 222.5 -78.5t117.5 -201.5h300v-80z" />
    <glyph glyph-name="uni091F094DHalf" horiz-adv-x="946" 
d="M1016 940h-182v-220h-220q-125 0 -212.5 -87.5t-87.5 -212.5t87.5 -212.5t212.5 -87.5q150 0 280 60l30 -50q-161 -130 -370 -130q-207 0 -353.5 117.5t-146.5 282.5t128.5 282.5t311.5 117.5h80v140h-580v100h1022v-100zM1074 -430h-260l-310 310l-50 -70h-160l120 160
h260z" />
    <glyph glyph-name="uni0920094DHalf" horiz-adv-x="1104" 
d="M1174 940h-262v-180h-160q131 -36 215.5 -135t84.5 -225q0 -165 -146.5 -282.5t-353.5 -117.5t-353.5 117.5t-146.5 282.5q0 167 145.5 283.5t354.5 116.5h100v140h-658v100h1180v-100zM552 720q-106 0 -173 -97t-67 -223t67 -223t173 -97t173 97t67 223t-67 223t-173 97
zM1077 -430h-260l-310 310l-50 -70h-160l120 160h260z" />
    <glyph glyph-name="uni0921094DHalf" horiz-adv-x="1072" 
d="M1142 940h-218v-220h-320q-51 0 -85.5 -29.5t-34.5 -70.5q0 -33 42.5 -56.5t97.5 -23.5h160q99 0 169.5 -63t70.5 -157q0 -142 -138 -231t-312 -89q-186 0 -340 132t-210 338l70 30q45 -166 164.5 -273t265.5 -107q98 0 169 53t71 127q0 68 -57.5 114t-142.5 46h-120
q-91 0 -155.5 53.5t-64.5 126.5q0 67 80.5 113.5t199.5 46.5h160v140h-670v100h1148v-100zM1095 -430h-260l-310 310l-50 -70h-160l120 160h260z" />
    <glyph glyph-name="uni0922094DHalf" horiz-adv-x="1216" 
d="M1286 940h-274v-220h-280q-189 0 -304.5 -90.5t-115.5 -239.5q0 -156 124 -243t316 -87q-81 38 -130.5 107t-49.5 143q0 113 87.5 191.5t212.5 78.5q123 0 211.5 -81t88.5 -199q0 -125 -110.5 -212.5t-301.5 -87.5h-108q-271 0 -435.5 109.5t-164.5 290.5
q0 182 154.5 291t415.5 109h130v140h-758v100h1292v-100zM872 494q-26 0 -45 -59t-19 -135q0 -75 19.5 -134.5t44.5 -59.5t44.5 59.5t19.5 134.5t-19 134.5t-45 59.5zM1198 -430h-260l-310 310l-50 -70h-160l120 160h260z" />
    <glyph glyph-name="uni0923094DHalf" horiz-adv-x="908" 
d="M978 940h-154v-440q0 -144 -109.5 -242t-260.5 -98t-260.5 98t-109.5 242v440h-90v100h984v-100zM564 400v540h-220v-540q0 -65 32 -112.5t78 -47.5t78 47.5t32 112.5z" />
    <glyph glyph-name="uni0924094DHalf" horiz-adv-x="800" 
d="M870 940h-876v100h876v-100zM830 650q-79 70 -250 70q-105 0 -177.5 -79.5t-72.5 -190.5q0 -97 46 -186t124 -144l-240 -120q-200 167 -200 420q0 165 140.5 282.5t339.5 117.5q176 0 290 -70v-100z" />
    <glyph glyph-name="uni0925094DHalf" horiz-adv-x="882" 
d="M922 410q-41 -149 -163 -239.5t-277 -90.5q-181 0 -310.5 138.5t-129.5 331.5q90 -50 170 -50q151 0 250 80q-133 0 -236.5 73t-103.5 187q0 104 99 177t241 73t241 -72.5t99 -177.5q0 -165 -146.5 -282.5t-353.5 -117.5q16 -84 96.5 -142t183.5 -58q101 0 189.5 71.5
t130.5 188.5zM502 640q40 70 40 200q0 78 -22.5 129t-57.5 51q-34 0 -57 -54.5t-23 -125.5q0 -79 23.5 -139.5t56.5 -60.5h40z" />
    <glyph glyph-name="uni0926094DHalf" horiz-adv-x="1004" 
d="M1074 940h-184v-220h-280q-125 0 -212.5 -80.5t-87.5 -195.5q0 -116 88.5 -195t211.5 -79q63 0 100 20q6 34 6 66q0 63 -26 134h260q0 -184 -82.5 -327.5t-217.5 -192.5l-42 60q67 51 102 180q-108 -40 -220 -40q-180 0 -310 108t-130 256q0 151 128.5 258.5t311.5 107.5
h140v140h-636v100h1080v-100zM842 -452h-260l-310 310l-50 -70h-160l120 160h260z" />
    <glyph glyph-name="uni0927094DHalf" horiz-adv-x="880" 
d="M920 380q-65 -139 -190.5 -219.5t-269.5 -80.5q-164 0 -282 85.5t-118 204.5q0 97 71.5 173.5t178.5 96.5q-90 16 -150 88t-60 162q0 103 96 176.5t234 73.5q129 0 219.5 -69.5t90.5 -170.5q0 -59 -41.5 -99.5t-98.5 -40.5q-56 0 -98 42t-42 98q0 33 32.5 66.5t87.5 53.5
q-22 20 -80 20q-67 0 -113.5 -53.5t-46.5 -126.5q0 -80 48 -140t112 -60h60v-80h-60q-75 0 -127.5 -59.5t-52.5 -140.5q0 -72 60 -126t140 -54q122 0 220.5 65t139.5 175z" />
    <glyph glyph-name="uni0928094DHalf" horiz-adv-x="930" 
d="M1000 940h-1006v100h1006v-100zM970 520q-64 54 -270 90q110 -64 110 -230q0 -141 -110.5 -240.5t-269.5 -99.5q-157 0 -268.5 100.5t-111.5 239.5t111.5 239.5t268.5 100.5q330 0 540 -120v-80zM430 660q-65 0 -112.5 -77t-47.5 -183q0 -121 47 -210.5t113 -89.5
t113 86.5t47 213.5q0 110 -46.5 185t-113.5 75z" />
    <glyph glyph-name="uni0929094DHalf" horiz-adv-x="930" 
d="M1000 940h-1006v100h1006v-100zM970 520q-64 54 -270 90q110 -64 110 -190q0 -125 -110.5 -212.5t-269.5 -87.5q-157 0 -268.5 88.5t-111.5 211.5t111.5 211.5t268.5 88.5q330 0 540 -120v-80zM430 660q-66 0 -113 -71t-47 -169q0 -99 47.5 -169.5t112.5 -70.5
q66 0 113 69t47 171t-46.5 171t-113.5 69zM430 -182q-44 0 -77 33t-33 77q0 46 32 78t78 32q48 0 79 -31t31 -79q0 -46 -31.5 -78t-78.5 -32z" />
    <glyph glyph-name="uni092A094DHalf" horiz-adv-x="726" 
d="M796 940h-450v-440q0 -92 64 -156t156 -64q64 0 118.5 43t81.5 117v-140q-109 -160 -320 -160q-148 0 -254 106t-106 254v440h-92v100h802v-100z" />
    <glyph glyph-name="uni092B094DHalf" horiz-adv-x="1028" 
d="M1098 940h-270v-200q97 80 240 80v-110q-197 0 -240 -50v-520q0 -32 30 -56t70 -24v-60h-460v60q40 0 70 22.5t30 57.5v70q-73 -50 -190 -50q-119 0 -204.5 94.5t-85.5 225.5v460h-94v100h1104v-100zM568 380v560h-220v-560q0 -49 32.5 -84.5t77.5 -35.5t77.5 35.5
t32.5 84.5z" />
    <glyph glyph-name="uni092C094DHalf" horiz-adv-x="792" 
d="M862 940h-868v100h868v-100zM452 120q-164 0 -282 106t-118 254q0 151 119.5 255.5t290.5 104.5q155 0 262.5 -104.5t107.5 -255.5t-111.5 -255.5t-268.5 -104.5zM412 680l336 -296q14 37 14 88q0 104 -66 176t-164 72q-72 0 -120 -40zM724 336l-352 304
q-60 -60 -60 -160q0 -96 68.5 -167t175.5 -71q109 0 168 94z" />
    <glyph glyph-name="uni092D094DHalf" horiz-adv-x="752" 
d="M792 400h-140v-140q0 -103 -76.5 -171.5t-183.5 -68.5q-113 0 -196.5 68t-83.5 172q0 101 70 170.5t170 69.5h40v60h-40q-120 0 -210 67.5t-90 172.5t90 172.5t210 67.5t210 -67.5t90 -172.5v-300h140v-100zM392 620v200q0 71 -14.5 115.5t-35.5 44.5q-50 0 -50 -180
q0 -73 18 -126.5t42 -53.5h40zM392 260v140h-42q-37 0 -62.5 -41.5t-25.5 -98.5q0 -140 72 -140q27 0 42.5 45.5t15.5 94.5z" />
    <glyph glyph-name="uni092E094DHalf" horiz-adv-x="842" 
d="M912 940h-230v-400h200v-100h-200v-180q0 -113 -96.5 -186.5t-223.5 -73.5t-223.5 73.5t-96.5 186.5q0 120 95.5 200t224.5 80h60v400h-428v100h918v-100zM422 260v180h-38q-82 0 -82 -180t60 -180t60 180z" />
    <glyph glyph-name="uni092F094DHalf" horiz-adv-x="796" 
d="M866 940h-350q160 -58 160 -160q0 -93 -110.5 -156.5t-269.5 -63.5q0 -131 79.5 -225.5t190.5 -94.5q95 0 168.5 46.5t101.5 135.5v-122q-43 -94 -135.5 -147t-204.5 -53q-189 0 -324.5 158.5t-135.5 381.5q56 -20 140 -20q92 0 166 50.5t74 129.5q0 90 -140 140h-282
v100h872v-100z" />
    <glyph glyph-name="uni093F_2" horiz-adv-x="536" 
d="M606 940h-208v-778q0 -102 100 -102v-60h-460v60q100 0 100 102v778h-144v100h612v-100zM1938 1060h-260q-145 173 -385.5 266.5t-534.5 93.5q-173 0 -296.5 -64.5t-123.5 -155.5q0 -70 60 -140h-260q-80 99 -80 160q0 128 191.5 204t508.5 76q411 0 733 -112.5
t447 -327.5z" />
    <glyph glyph-name="uni093F_2_0902" horiz-adv-x="536" 
d="M606 940h-208v-778q0 -102 100 -102v-60h-460v60q100 0 100 102v778h-144v100h612v-100zM1938 1060h-260q-145 173 -385.5 266.5t-534.5 93.5q-173 0 -296.5 -64.5t-123.5 -155.5q0 -70 60 -140h-260q-80 99 -80 160q0 128 191.5 204t508.5 76q411 0 733 -112.5
t447 -327.5zM1974 1276q-45 0 -77.5 33.5t-32.5 78.5q0 47 32 78.5t78 31.5q48 0 79 -31t31 -79q0 -47 -32 -79.5t-78 -32.5z" />
    <glyph glyph-name="uni0932094DHalf" horiz-adv-x="940" 
d="M1010 940h-1016v100h1016v-100zM980 700q-86 0 -143 -73t-57 -167h-60q0 101 -58.5 170.5t-141.5 69.5q-86 0 -143 -78.5t-57 -201.5q0 -122 64.5 -209t165.5 -87q76 0 150 66l40 -50q-57 -66 -136.5 -103t-163.5 -37q-156 0 -268 124t-112 296q0 165 110.5 282.5
t269.5 117.5q102 0 183.5 -45.5t126.5 -144.5l10 2q67 148 220 148v-80z" />
    <glyph glyph-name="uni0933094DHalf" horiz-adv-x="1260" 
d="M1330 940h-1336v100h1336v-100zM674 96q-116 -96 -244 -96q-153 0 -261.5 117.5t-108.5 282.5q0 167 107.5 283.5t262.5 116.5q141 0 244 -102q116 102 260 102q162 0 264 -115.5t102 -284.5q0 -165 -108.5 -282.5t-261.5 -117.5q-140 0 -256 96zM722 152q62 -42 122 -42
q84 0 136 82t52 212q0 288 -110 288q-54 0 -86 -75t-32 -201q0 -165 -82 -264zM620 644q-54 44 -102 44q-90 0 -145 -85.5t-55 -210.5q0 -290 114 -290q48 0 76 73.5t28 194.5q0 155 84 274z" />
    <glyph glyph-name="uni0934094DHalf" horiz-adv-x="1260" 
d="M1330 940h-1336v100h1336v-100zM674 96q-116 -96 -244 -96q-153 0 -261.5 117.5t-108.5 282.5q0 167 107.5 283.5t262.5 116.5q141 0 244 -102q116 102 260 102q162 0 264 -115.5t102 -284.5q0 -165 -108.5 -282.5t-261.5 -117.5q-140 0 -256 96zM722 152q62 -42 122 -42
q84 0 136 82t52 212q0 288 -110 288q-54 0 -86 -75t-32 -201q0 -165 -82 -264zM620 644q-54 44 -102 44q-90 0 -145 -85.5t-55 -210.5q0 -290 114 -290q48 0 76 73.5t28 194.5q0 155 84 274zM677 -256q-45 0 -77.5 33.5t-32.5 78.5q0 46 32 78t78 32q49 0 80.5 -31t31.5 -79
q0 -46 -32.5 -79t-79.5 -33z" />
    <glyph glyph-name="uni0935094DHalf" horiz-adv-x="792" 
d="M862 940h-868v100h868v-100zM442 120q-161 0 -275.5 105.5t-114.5 254.5q0 151 113.5 255.5t276.5 104.5t276.5 -104.5t113.5 -255.5q0 -149 -114.5 -254.5t-275.5 -105.5zM532 720q-94 0 -157 -70.5t-63 -169.5t63 -169.5t157 -70.5t157 70.5t63 169.5t-63 169.5
t-157 70.5z" />
    <glyph glyph-name="uni0936094DHalf" horiz-adv-x="1000" 
d="M372 220h-10q91 -113 156.5 -164.5t137.5 -51.5q59 0 118 34l26 -56q-160 -88 -288 -88q-150 0 -254 140q-139 188 -206 206v60h300q48 -40 114 -40q73 0 119.5 59.5t46.5 140.5q-63 -40 -146 -40q-183 0 -298.5 84.5t-115.5 235.5q0 145 116 232.5t314 87.5t314 -130
t116 -350q0 -175 -117.5 -297.5t-282.5 -122.5q-92 0 -160 60zM502 1000q-76 0 -123 -80.5t-47 -179.5q0 -93 47 -166.5t123 -73.5t123 73.5t47 166.5q0 99 -47 179.5t-123 80.5z" />
    <glyph glyph-name="uni0937094DHalf" horiz-adv-x="786" 
d="M856 940h-470l440 -440v-160q-54 -93 -157 -146.5t-223 -53.5q-148 0 -254 106t-106 254v440h-92v100h862v-100zM786 420l-440 440v-420q0 -72 54 -126t126 -54q76 0 147.5 43.5t112.5 116.5z" />
    <glyph glyph-name="uni0938094DHalf" horiz-adv-x="1032" 
d="M1102 940h-668q149 -38 233.5 -121.5t84.5 -198.5q0 -120 -96 -202t-258 -106q55 -66 115.5 -114t98.5 -48q79 0 120 50l60 -40q-136 -160 -280 -160q-134 0 -270 160q-119 141 -230 180l22 68q77 -26 168 -26q129 0 209.5 72.5t80.5 191.5q0 128 -96 211t-232 83h-170
v100h1108v-100zM1052 410q-56 -32 -120 -32q-84 0 -160 42l20 100q60 -34 140 -34q61 0 120 34v-110z" />
    <glyph glyph-name="uni0939094DHalf" horiz-adv-x="930" 
d="M1000 940h-150v-180h-300q-41 0 -70.5 -18t-29.5 -42q0 -32 30 -56t70 -24h70q139 0 234.5 -58t95.5 -142h-260q0 52 -45.5 86t-114.5 34q-94 0 -157 -70.5t-63 -169.5q0 -144 94 -232t246 -88q189 0 320 60l-60 -140h-350q-230 0 -370 110t-140 290q0 100 77 182.5
t203 117.5q-61 16 -100.5 50.5t-39.5 69.5q0 50 62.5 85t157.5 35h180v100h-596v100h1006v-100z" />
    <glyph glyph-name="uni0958094DHalf" horiz-adv-x="1194" 
d="M1264 940h-290v-140q103 60 260 60v-100q-192 0 -260 -40v-580q0 -32 30 -56t70 -24v-60h-460v60q40 0 70 22.5t30 57.5v80q-100 -100 -270 -100q-161 0 -275.5 107t-114.5 263q0 153 117.5 261.5t282.5 108.5q157 0 260 -60v140h-720v100h1270v-100zM714 280v440
q-68 40 -140 40q-108 0 -184 -75.5t-76 -184.5q0 -108 76 -184t184 -76q72 0 140 40zM432 -310q-45 0 -77.5 33.5t-32.5 78.5q0 47 32 78.5t78 31.5q48 0 79 -31t31 -79q0 -47 -32 -79.5t-78 -32.5z" />
    <glyph glyph-name="uni0959094DHalf" horiz-adv-x="1494" 
d="M1564 940h-1130q119 -35 189.5 -118t70.5 -190q0 -119 -86 -203.5t-224 -108.5q233 -220 350 -220q115 0 184 84q-164 108 -164 290q0 151 115 253.5t275 102.5t275 -102.5t115 -253.5t-115.5 -252.5t-274.5 -101.5q-100 0 -182 40q-113 -184 -334 -184
q-121 0 -200.5 44.5t-139.5 113.5q-146 167 -274 186v80q35 -6 88 -6q154 0 243 72t89 194q0 105 -55 182.5t-149 97.5h-236v100h1570v-100zM1224 730q-97 0 -163.5 -73.5t-66.5 -176.5q0 -102 68 -176t162 -74q95 0 162.5 72.5t67.5 177.5q0 106 -66 178t-164 72zM151 -171
q-45 0 -77.5 33.5t-32.5 78.5q0 46 32 78t78 32q49 0 80.5 -31t31.5 -79q0 -46 -32.5 -79t-79.5 -33z" />
    <glyph glyph-name="uni095A094DHalf" horiz-adv-x="868" 
d="M938 940h-500q157 -29 268.5 -122.5t111.5 -217.5q0 -167 -129.5 -283.5t-310.5 -116.5q-131 0 -235.5 66.5t-104.5 173.5q0 104 83.5 172t196.5 68q184 0 240 -80q0 139 -93 239.5t-227 100.5h-244v100h944v-100zM418 600q-51 0 -85.5 -48t-34.5 -112t35.5 -112
t84.5 -48t84.5 46t35.5 114q0 69 -34 114.5t-86 45.5zM399 -141q-45 0 -77.5 33.5t-32.5 78.5q0 47 32 78.5t78 31.5q48 0 79 -31t31 -79q0 -47 -32 -79.5t-78 -32.5z" />
    <glyph glyph-name="uni095B094DHalf" horiz-adv-x="934" 
d="M1004 940h-1010v100h1010v-100zM974 640h-300q92 -31 146 -96t54 -144q0 -117 -104.5 -198.5t-255.5 -81.5q-181 0 -319.5 167.5t-160.5 412.5h60q34 -195 130.5 -322.5t209.5 -127.5q73 0 126.5 56.5t53.5 137.5q0 84 -58 140t-142 56h-60v80h620v-80zM534 -182
q-45 0 -78.5 32.5t-33.5 77.5q0 47 33 79.5t79 32.5q48 0 79 -31.5t31 -80.5q0 -46 -31.5 -78t-78.5 -32z" />
    <glyph glyph-name="uni095E094DHalf" horiz-adv-x="1028" 
d="M1098 940h-270v-200q97 80 240 80v-110q-197 0 -240 -50v-520q0 -32 30 -56t70 -24v-60h-460v60q40 0 70 22.5t30 57.5v70q-73 -50 -190 -50q-119 0 -204.5 94.5t-85.5 225.5v460h-94v100h1104v-100zM568 380v560h-220v-560q0 -49 32.5 -84.5t77.5 -35.5t77.5 35.5
t32.5 84.5zM352 -310q-45 0 -77.5 33.5t-32.5 78.5q0 47 32 78.5t78 31.5q48 0 79 -31t31 -79q0 -47 -32 -79.5t-78 -32.5z" />
    <glyph glyph-name="uni0936094D0930Half" horiz-adv-x="718" 
d="M868 330q-326 12 -490 94q-69 -44 -164.5 -74t-155.5 -30v100q105 0 210 60q-210 123 -210 320q0 129 91 214.5t229 85.5q137 0 228.5 -81.5t91.5 -218.5q0 -211 -210 -320q122 -60 380 -60v-90zM444 792q0 228 -64 228q-68 0 -68 -228q0 -171 66 -246q66 73 66 246z" />
    <glyph glyph-name="uni0924094D0930Half" horiz-adv-x="798" 
d="M868 940h-874v100h874v-100zM838 450l-690 -400l-50 70l400 240q-164 320 -320 320q-59 0 -130 -50l-30 50q62 74 142 117t158 43q116 0 231 -89t209 -251l80 50v-100z" />
    <glyph glyph-name="uni0924094D0924Half" horiz-adv-x="804" 
d="M874 940h-880v100h880v-100zM954 540q-100 120 -260 120q-115 0 -197.5 -75t-82.5 -185q0 -82 49 -157.5t131 -122.5l-240 -120q-95 79 -147.5 184.5t-52.5 215.5q0 86 43 162t117 118h-300v100h580q239 0 360 -140v-100z" />
    <glyph glyph-name="uni0915094D0937Half" horiz-adv-x="1022" 
d="M1062 520h-500q-117 -32 -178.5 -96.5t-61.5 -143.5q0 -75 45 -127.5t115 -52.5q97 0 160 86v154h280q-20 -34 -20 -120v-140q0 -137 -103.5 -233.5t-246.5 -96.5l-10 70q41 0 70.5 40t29.5 100v126q-96 -146 -280 -146q-125 0 -212.5 87.5t-87.5 212.5q0 113 90.5 204.5
t229.5 115.5q-107 19 -183.5 85.5t-76.5 154.5q0 108 105.5 184t254.5 76q151 0 255.5 -75.5t104.5 -184.5q0 -114 -150 -200h370v-80zM482 1000q-42 0 -71 -60.5t-29 -139.5t30 -139.5t70 -60.5q42 0 71 57.5t29 142.5t-28.5 142.5t-71.5 57.5zM1092 940h-240v100h240v-100
z" />
    <glyph glyph-name="uni091C094D091EHalf" horiz-adv-x="992" 
d="M1062 940h-1068v100h1068v-100zM1032 680q-91 0 -270 40q-178 40 -270 40q-65 0 -112.5 -32t-47.5 -78q0 -55 58.5 -92.5t169.5 -37.5h50q138 0 220 -64t82 -156q0 -109 -120.5 -174.5t-269.5 -65.5q30 -44 77.5 -71t88.5 -27q33 0 64 18l40 -40q-81 -120 -206 -120
q-78 0 -134.5 36.5t-115.5 101.5q-112 123 -304 192l40 70q175 -84 310 -84q120 0 195 60t75 144q0 120 -150 120h-170q-107 0 -183.5 53.5t-76.5 126.5q0 99 98 159.5t222 60.5q108 0 320 -40t320 -40v-100z" />
    <glyph glyph-name="uni093F0902" horiz-adv-x="536" 
d="M606 940h-208v-778q0 -102 100 -102v-60h-460v60q100 0 100 102v778h-144v100h612v-100zM1346 1060h-260q-59 164 -190 262t-290 98q-111 0 -190.5 -64.5t-79.5 -155.5q0 -70 60 -140h-260q-60 70 -60 140q0 138 170 219t370 81q258 0 457.5 -120t272.5 -320zM1423 1248
q-45 0 -77.5 33.5t-32.5 78.5q0 47 32 78.5t78 31.5q48 0 79 -31t31 -79q0 -47 -32 -79.5t-78 -32.5z" />
    <glyph glyph-name="uni093F0930094D" horiz-adv-x="536" 
d="M606 940h-208v-778q0 -102 100 -102v-60h-460v60q100 0 100 102v778h-144v100h612v-100zM1558 1410h-140q-54 0 -91 -38.5t-37 -93.5q0 -19 7.5 -47t84.5 -171h-254q-59 165 -200.5 262.5t-319.5 97.5q-111 0 -190.5 -64.5t-79.5 -155.5q0 -70 60 -140h-260
q-60 70 -60 140q0 138 170 219t370 81q264 0 462 -108q93 98 258 98h220v-80z" />
    <glyph glyph-name="uni093F0930094D0902" horiz-adv-x="536" 
d="M606 940h-208v-778q0 -102 100 -102v-60h-460v60q100 0 100 102v778h-144v100h612v-100zM1558 1410h-140q-54 0 -91 -38.5t-37 -93.5q0 -19 7.5 -47t84.5 -171h-254q-59 165 -200.5 262.5t-319.5 97.5q-111 0 -190.5 -64.5t-79.5 -155.5q0 -70 60 -140h-260
q-60 70 -60 140q0 138 170 219t370 81q264 0 462 -108q93 98 258 98h220v-80zM1520 1122q-45 0 -77.5 33.5t-32.5 78.5q0 47 32 78.5t78 31.5q48 0 79 -31t31 -79q0 -47 -32 -79.5t-78 -32.5z" />
    <glyph glyph-name="uni093F_3" horiz-adv-x="536" 
d="M606 940h-208v-778q0 -102 100 -102v-60h-460v60q100 0 100 102v778h-144v100h612v-100zM1018 1060h-260q-12 146 -92.5 243t-187.5 97q-67 0 -113.5 -47.5t-46.5 -112.5q0 -51 22 -100.5t58 -79.5h-260q-80 99 -80 180q0 108 105.5 184t254.5 76q240 0 412 -126
t188 -314z" />
    <glyph glyph-name="uni093F_3_0902" horiz-adv-x="536" 
d="M606 940h-208v-778q0 -102 100 -102v-60h-460v60q100 0 100 102v778h-144v100h612v-100zM1018 1060h-260q-12 146 -92.5 243t-187.5 97q-67 0 -113.5 -47.5t-46.5 -112.5q0 -51 22 -100.5t58 -79.5h-260q-80 99 -80 180q0 108 105.5 184t254.5 76q240 0 412 -126
t188 -314zM1133 1247q-45 0 -77.5 33.5t-32.5 78.5q0 47 32 78.5t78 31.5q48 0 79 -31t31 -79q0 -47 -32 -79.5t-78 -32.5z" />
    <glyph glyph-name="uni093F_3_0930094D" horiz-adv-x="536" 
d="M606 940h-208v-778q0 -102 100 -102v-60h-460v60q100 0 100 102v778h-144v100h612v-100zM1218 1410h-130q-56 0 -93 -39t-37 -101q0 -35 23 -96q29 -80 37 -114h-260q-20 159 -98.5 249.5t-181.5 90.5q-67 0 -113.5 -47.5t-46.5 -112.5q0 -51 22 -100.5t58 -79.5h-260
q-80 99 -80 180q0 108 105.5 184t254.5 76q194 0 350 -88q88 78 230 78h220v-80z" />
    <glyph glyph-name="uni093F_3_0930094D0902" horiz-adv-x="536" 
d="M606 940h-208v-778q0 -102 100 -102v-60h-460v60q100 0 100 102v778h-144v100h612v-100zM1218 1410h-130q-56 0 -93 -39t-37 -101q0 -35 23 -96q29 -80 37 -114h-260q-20 159 -98.5 249.5t-181.5 90.5q-67 0 -113.5 -47.5t-46.5 -112.5q0 -51 22 -100.5t58 -79.5h-260
q-80 99 -80 180q0 108 105.5 184t254.5 76q194 0 350 -88q88 78 230 78h220v-80zM1174 1111q-45 0 -77.5 33.5t-32.5 78.5q0 47 32 78.5t78 31.5q48 0 79 -31t31 -79q0 -47 -32 -79.5t-78 -32.5z" />
    <glyph glyph-name="uni09400902" horiz-adv-x="536" 
d="M606 940h-208v-778q0 -102 100 -102v-60h-460v60q100 0 100 102v778h-144v100h612v-100zM398 1060h-260q0 131 -75.5 235.5t-184.5 104.5q-67 0 -113.5 -41.5t-46.5 -98.5q0 -130 80 -200h-260q-80 99 -80 180q0 108 105.5 184t254.5 76q242 0 411 -134.5t169 -305.5z
M496 1241q-45 0 -77.5 33.5t-32.5 78.5q0 47 32 78.5t78 31.5q48 0 79 -31t31 -79q0 -47 -32 -79.5t-78 -32.5z" />
    <glyph glyph-name="uni09400930094D" horiz-adv-x="536" 
d="M606 940h-208v-778q0 -102 100 -102v-60h-460v60q100 0 100 102v778h-144v100h612v-100zM658 1410h-136q-124 0 -124 -126v-224h-260q-3 137 -78 238.5t-182 101.5q-67 0 -113.5 -41.5t-46.5 -98.5q0 -130 80 -200h-260q-80 99 -80 180q0 108 105.5 184t254.5 76
q207 0 356 -114q84 104 264 104h220v-80z" />
    <glyph glyph-name="uni09400930094D0902" horiz-adv-x="536" 
d="M606 940h-208v-778q0 -102 100 -102v-60h-460v60q100 0 100 102v778h-144v100h612v-100zM658 1410h-136q-124 0 -124 -126v-224h-260q-3 137 -78 238.5t-182 101.5q-67 0 -113.5 -41.5t-46.5 -98.5q0 -130 80 -200h-260q-80 99 -80 180q0 108 105.5 184t254.5 76
q207 0 356 -114q84 104 264 104h220v-80zM588 1114q-45 0 -77.5 33.5t-32.5 78.5q0 47 32 78.5t78 31.5q48 0 79 -31t31 -79q0 -47 -32 -79.5t-78 -32.5z" />
    <glyph glyph-name="uni0940_2" horiz-adv-x="536" 
d="M606 940h-208v-778q0 -102 100 -102v-60h-460v60q100 0 100 102v778h-144v100h612v-100zM398 1060h-260q0 140 -165.5 250t-404.5 110q-127 0 -218.5 -62t-91.5 -148q0 -80 80 -150h-260q-80 99 -80 150q0 120 159.5 205t390.5 85q350 0 595.5 -130.5t254.5 -309.5z" />
    <glyph glyph-name="uni0940_2_0902" horiz-adv-x="536" 
d="M606 940h-208v-778q0 -102 100 -102v-60h-460v60q100 0 100 102v778h-144v100h612v-100zM398 1060h-260q0 140 -165.5 250t-404.5 110q-127 0 -218.5 -62t-91.5 -148q0 -80 80 -150h-260q-80 99 -80 150q0 120 159.5 205t390.5 85q350 0 595.5 -130.5t254.5 -309.5z
M511 1235q-45 0 -77.5 33.5t-32.5 78.5q0 47 32 78.5t78 31.5q48 0 79 -31t31 -79q0 -47 -32 -79.5t-78 -32.5z" />
    <glyph glyph-name="uni0940_2_0930094D" horiz-adv-x="536" 
d="M606 940h-208v-778q0 -102 100 -102v-60h-460v60q100 0 100 102v778h-144v100h612v-100zM578 1410h-134q-54 0 -90 -36t-36 -90q0 -19 6.5 -38t43.5 -94q26 -58 30 -92h-260q0 140 -165.5 250t-404.5 110q-127 0 -218.5 -62t-91.5 -148q0 -80 80 -150h-260
q-80 99 -80 150q0 120 159.5 205t390.5 85q336 0 576 -122q73 112 234 112h220v-80z" />
    <glyph glyph-name="uni0940_2_0930094D0902" horiz-adv-x="536" 
d="M606 940h-208v-778q0 -102 100 -102v-60h-460v60q100 0 100 102v778h-144v100h612v-100zM578 1410h-134q-54 0 -90 -36t-36 -90q0 -19 6.5 -38t43.5 -94q26 -58 30 -92h-260q0 140 -165.5 250t-404.5 110q-127 0 -218.5 -62t-91.5 -148q0 -80 80 -150h-260
q-80 99 -80 150q0 120 159.5 205t390.5 85q336 0 576 -122q73 112 234 112h220v-80zM574 1111q-45 0 -77.5 33.5t-32.5 78.5q0 47 32 78.5t78 31.5q48 0 79 -31t31 -79q0 -47 -32 -79.5t-78 -32.5z" />
    <glyph glyph-name="uni0941_2" horiz-adv-x="0" 
d="M-988 -240h190q14 -78 125.5 -129t264.5 -51q282 0 282 146q0 104 -68 104q-70 0 -74 -130h-200q34 188 282 188q133 0 214.5 -48t81.5 -116q0 -98 -151.5 -161t-366.5 -63q-209 0 -394.5 69.5t-185.5 190.5z" />
    <glyph glyph-name="uni0942_2" horiz-adv-x="0" 
d="M332 -500h-220q0 130 -86 221t-214 91q-92 0 -146 -36.5t-54 -99.5q0 -34 16.5 -65t43.5 -31q60 0 60 116h160q0 -81 -74 -138.5t-186 -57.5q-85 0 -142.5 54.5t-57.5 131.5q0 89 94 146.5t248 57.5q224 0 375 -107.5t183 -282.5z" />
    <glyph glyph-name="uni0941_3" horiz-adv-x="0" 
d="M-908 -240h180q14 -78 105.5 -129t214.5 -51q98 0 169 41.5t71 98.5q0 45 -25.5 77.5t-64.5 32.5q-41 0 -65.5 -39.5t-24.5 -90.5h-200q8 84 91.5 142t198.5 58q123 0 206.5 -52.5t83.5 -127.5q0 -104 -166.5 -162t-353.5 -58q-173 0 -296.5 76t-123.5 184z" />
    <glyph glyph-name="uni0942_3" horiz-adv-x="0" 
d="M352 -500h-240q-25 140 -128.5 230t-241.5 90q-55 0 -92.5 -40.5t-37.5 -99.5q0 -41 18 -70.5t42 -29.5t42 35.5t18 84.5h160q0 -82 -77 -141t-183 -59q-96 0 -159 60.5t-63 134.5q0 78 94 141.5t228 63.5q211 0 381.5 -108t238.5 -292z" />
    <glyph glyph-name="uni0935Below" horiz-adv-x="0" 
d="M-158 -500h-312v30q31 0 56.5 13t25.5 33v38q-64 -60 -224 -60q-99 0 -170.5 60.5t-71.5 145.5q0 83 71.5 143.5t170.5 60.5q144 0 224 -76v176h148v-488q0 -20 25.5 -33t56.5 -13v-30zM-388 -332v184q-45 34 -112 34q-72 0 -121 -37t-49 -89q0 -50 48 -88t112 -38
q69 0 122 34z" />
    <glyph glyph-name="uni092FAlt" horiz-adv-x="1264" 
d="M1334 940h-208v-800q0 -32 30 -56t70 -24v-60h-460v60q40 0 70 22.5t30 57.5v200q-37 -102 -135.5 -161t-224.5 -59q-165 0 -282.5 100.5t-117.5 239.5q80 0 140 35t60 85q0 52 -57.5 86t-142.5 34h-112v80h262q129 0 219.5 -50t90.5 -120q0 -71 -58.5 -120.5
t-141.5 -49.5q0 -81 70.5 -140.5t169.5 -59.5q109 0 184.5 76t75.5 184v440h-872v100h1340v-100z" />
    <glyph glyph-name="uni0930094DHalf" horiz-adv-x="570" 
d="M640 940h-646v100h646v-100zM610 520h-260q-110 0 -201.5 48.5t-138.5 131.5h260q57 -100 260 -100h80v-80z" />
    <glyph glyph-name="uni0932Alt" horiz-adv-x="1472" 
d="M1542 940h-388v-120q117 -30 188.5 -130.5t71.5 -229.5q0 -157 -100.5 -268.5t-233.5 -111.5q-123 0 -206 120l50 50q31 -50 80 -50q68 0 109 74.5t41 165.5q0 110 -52.5 185t-127.5 75q-83 0 -136.5 -72.5t-53.5 -167.5h-70q-11 121 -67.5 180.5t-132.5 59.5
q-82 0 -141 -77t-59 -183q0 -95 53.5 -167.5t136.5 -72.5q69 0 100 50l50 -50q-78 -120 -254 -120q-151 0 -247.5 111.5t-96.5 266.5q0 149 105.5 255.5t252.5 106.5q115 0 206 -53t124 -157l10 -2q66 186 200 212v120h-960v100h1548v-100z" />
    <glyph glyph-name="uni0915094D0930" horiz-adv-x="1706" 
d="M1776 940h-784v-140q103 60 260 60q166 0 283 -102.5t117 -257.5t-107.5 -265.5t-282.5 -110.5q-117 0 -212 60l14 64q32 -18 84 -18q110 0 177 73.5t67 188.5q0 114 -68 191t-172 77q-92 0 -160 -40v-580q0 -32 30 -56t70 -24v-60h-460v60q40 0 70 22.5t30 57.5v76
q-354 -236 -670 -266v140q225 0 380 56q-171 12 -270.5 113t-99.5 241q0 156 116.5 258t283.5 102q157 0 260 -60v140h-738v100h1782v-100zM732 280v440q-68 40 -140 40q-108 0 -184 -75.5t-76 -184.5q0 -108 76 -184t184 -76q67 0 140 40z" />
    <glyph glyph-name="uni0916094D0930" horiz-adv-x="1792" 
d="M1862 940h-208v-800q0 -32 30 -56t70 -24v-60h-460v60q40 0 70 22.5t30 57.5v80q-100 -100 -260 -100q-38 0 -90 12q-229 -160 -442 -246t-378 -86v140q226 0 396 62v10q-122 0 -193.5 25.5t-168.5 122.5q-100 101 -148 126.5t-96 33.5v80q59 -10 108 -10
q145 0 228.5 74.5t83.5 195.5q0 99 -63 178.5t-167 101.5h-210v100h1868v-100zM1394 760v180h-960q117 -39 187.5 -122.5t70.5 -187.5q0 -121 -88.5 -202.5t-223.5 -95.5q206 -232 374 -232q139 0 210 60q-94 43 -152 132t-58 188q0 143 110.5 246.5t269.5 103.5
q161 0 260 -70zM1394 280v400q-56 50 -140 50q-101 0 -170.5 -72.5t-69.5 -177.5q0 -103 70.5 -176.5t169.5 -73.5q81 0 140 50z" />
    <glyph glyph-name="uni0917094D0930" horiz-adv-x="1406" 
d="M1476 940h-208v-800q0 -32 30 -56t70 -24v-60h-460v60q40 0 70 22.5t30 57.5v122q-415 -278 -790 -312v140q477 41 790 244v606h-570q157 -29 268.5 -122.5t111.5 -217.5q0 -167 -129.5 -283.5t-310.5 -116.5q-131 0 -235.5 66.5t-104.5 173.5t104.5 173.5t235.5 66.5
q125 0 180 -80q0 139 -93 239.5t-227 100.5h-244v100h1482v-100zM418 600q-51 0 -85.5 -48t-34.5 -112t35.5 -112t84.5 -48t84.5 46t35.5 114q0 69 -34 114.5t-86 45.5z" />
    <glyph glyph-name="uni091C094D0930" horiz-adv-x="1376" 
d="M1446 940h-208v-800q0 -32 30 -56t70 -24v-60h-460v60q40 0 70 22.5t30 57.5v110q-424 -285 -800 -320v140q427 0 800 250v390h-300v-10q79 -25 124.5 -84.5t45.5 -135.5q0 -113 -104 -191.5t-246 -78.5q-189 0 -324.5 164.5t-135.5 395.5h60q14 -165 115.5 -277.5
t234.5 -112.5q71 0 120.5 50t49.5 120q0 68 -57.5 114t-142.5 46h-60v80h620v150h-984v100h1452v-100z" />
    <glyph glyph-name="uni091D094D0930" horiz-adv-x="1542" 
d="M1612 940h-208v-800q0 -32 30 -56t70 -24v-60h-460v60q40 0 70 22.5t30 57.5v100q-151 -107 -290 -120v140q174 16 290 60v60h-300q0 -119 -86.5 -188.5t-237.5 -69.5h-88q36 -42 100.5 -80t107.5 -38q44 0 96 28l30 -40q-119 -108 -240 -108q-134 0 -256 126
q-107 112 -149.5 153t-82.5 47v60h286q20 -37 58 -88q84 0 145 40.5t61 107.5q0 60 -45 95t-115 35h-160q-78 0 -139 52.5t-61 127.5q0 76 59 125t141 49h220v126h-494v100h1618v-100zM1144 460v480h-396v-208h-260q-69 0 -114.5 -28.5t-45.5 -79.5q0 -43 36 -68.5t88 -25.5
q31 0 90 5q60 5 86 5q154 0 200 -80h316z" />
    <glyph glyph-name="uni0924094D0930" horiz-adv-x="1236" 
d="M1306 940h-208v-800q0 -32 30 -56t70 -24v-60h-460v60q40 0 70 22.5t30 57.5v310l-690 -400l-50 70l400 240q-164 320 -320 320q-59 0 -130 -50l-30 50q62 74 142 117t158 43q116 0 231 -89t209 -251l80 50v390h-844v100h1312v-100z" />
    <glyph glyph-name="uni0926094D0930" horiz-adv-x="1006" 
d="M1074 940h-184v-220h-280q-125 0 -212.5 -80.5t-87.5 -195.5q0 -116 88.5 -195t211.5 -79q63 0 100 20q6 34 6 66q0 63 -26 134h260q0 -184 -82.5 -327.5t-217.5 -192.5l-42 60q67 51 102 180q-94 -35 -193 -39l-365 -227l-80 150l283 93q-126 34 -215.5 128.5
t-89.5 218.5q0 151 128.5 258.5t311.5 107.5h140v140h-636v100h1080v-100z" />
    <glyph glyph-name="uni092Q094D0930" horiz-adv-x="1218" 
d="M1288 940h-208v-800q0 -32 30 -56t70 -24v-60h-460v60q40 0 70 22.5t30 57.5v182q-341 -362 -770 -402v140q293 0 520 142q-205 6 -337.5 118.5t-132.5 269.5v350h-106v100h1294v-100zM820 440v500h-460v-428q0 -104 64 -168t156 -64q105 0 240 160z" />
    <glyph glyph-name="uni092B094D0930" horiz-adv-x="1522" 
d="M1592 940h-722v-200q69 80 240 80q151 0 255.5 -99.5t104.5 -240.5q0 -151 -105.5 -255.5t-254.5 -104.5q-110 0 -180 60v80q38 -20 70 -20q97 0 163.5 63.5t66.5 156.5q0 101 -66.5 170.5t-163.5 69.5q-98 0 -130 -40v-520q0 -32 30 -56t70 -24v-60h-460v60
q40 0 70 22.5t30 57.5v158q-342 -277 -570 -298v140q318 31 446 154q-38 -4 -66 -4q-52 0 -127 36.5t-119 110.5t-44 163v340h-136v100h1598v-100zM610 430v510h-220v-440q0 -48 36 -84t84 -36q71 0 100 50z" />
    <glyph glyph-name="uni092C094D0930" horiz-adv-x="1164" 
d="M1234 940h-208v-800q0 -32 30 -56t70 -24v-60h-460v60q40 0 70 22.5t30 57.5v84q-349 -284 -710 -316v140q198 7 396 88q-175 7 -280.5 102.5t-105.5 241.5q0 155 118 257.5t282 102.5q190 0 300 -120v220h-772v100h1240v-100zM766 380v260q-79 80 -180 80
q-112 0 -160 -40zM726 300l-360 320q-40 -40 -40 -140q0 -103 76.5 -171.5t183.5 -68.5q80 0 140 60z" />
    <glyph glyph-name="uni092D094D0930" horiz-adv-x="1284" 
d="M1354 940h-208v-800q0 -32 30 -56t70 -24v-60h-460v60q40 0 70 22.5t30 57.5v80q-414 -267 -770 -300v140q396 0 770 230v110h-240v-40q0 -93 -73 -156.5t-187 -63.5q-118 0 -189 55.5t-71 140.5q0 75 69 119.5t163 44.5h28v60h-18q-146 0 -234 70t-88 170
q0 105 90 172.5t210 67.5t210 -67.5t90 -172.5v-300h240v440h-100v100h568v-100zM386 620v200q0 140 -50 140t-50 -160q0 -180 82 -180h18zM386 320v80h-42q-98 0 -98 -80q0 -43 23.5 -71.5t56.5 -28.5q60 0 60 100z" />
    <glyph glyph-name="uni092E094D0930" horiz-adv-x="1208" 
d="M1278 940h-208v-800q0 -32 30 -56t70 -24v-60h-460v60q40 0 70 22.5t30 57.5v80q-414 -267 -770 -300v140q396 0 770 230v150h-200v-60q0 -99 -98 -159.5t-222 -60.5q-98 0 -167 51.5t-69 136.5q0 84 70.5 138t165.5 54h60v400h-356v100h1284v-100zM810 540v400h-200
v-400h200zM350 340v100h-40q-36 0 -58 -29t-22 -71q0 -43 17.5 -71.5t42.5 -28.5q24 0 42 28.5t18 71.5z" />
    <glyph glyph-name="uni0935094D0930" horiz-adv-x="1164" 
d="M1234 940h-208v-800q0 -32 30 -56t70 -24v-60h-460v60q40 0 70 22.5t30 57.5v82q-346 -282 -710 -314v140q198 7 396 88q-175 7 -280.5 102.5t-105.5 241.5q0 155 118 257.5t282 102.5q190 0 300 -120v220h-772v100h1240v-100zM766 320v320q-79 80 -180 80
q-107 0 -183.5 -68.5t-76.5 -171.5t71.5 -171.5t182.5 -68.5q105 0 186 80z" />
    <glyph glyph-name="uni0938094D0930" horiz-adv-x="1570" 
d="M1640 940h-208v-800q0 -32 30 -56t70 -24v-60h-460v60q40 0 70 22.5t30 57.5v156q-152 -118 -330 -136l-40 140q216 18 370 78v112q-102 58 -206 58q-114 0 -194 -48l20 140q56 32 128 32q128 0 252 -72v340h-760q153 -41 246.5 -128.5t93.5 -191.5q0 -112 -97 -203
t-243 -117q58 -70 112 -110t88 -40q76 0 120 50l60 -40q-136 -160 -280 -160q-66 0 -130.5 36t-139.5 124q-122 143 -230 180l22 70q94 -30 178 -30q115 0 197.5 75t82.5 185q0 128 -101.5 214t-238.5 86h-158v100h1646v-100z" />
    <glyph glyph-name="uni0939094D0930" horiz-adv-x="1006" 
d="M1076 940h-228v-160h-300q-44 0 -72 -23.5t-28 -56.5q0 -32 30 -56t70 -24h70q137 0 233.5 -81.5t96.5 -198.5q0 -98 -91.5 -159t-208.5 -61t-180 50l40 50q28 -15 55 -15q44 0 84.5 36.5t40.5 98.5h-200v60h200q0 68 -46 114t-114 46q-96 0 -158 -77t-62 -183
q0 -134 100.5 -227t239.5 -93q189 0 320 60l-60 -140h-260q-247 0 -423.5 117.5t-176.5 282.5q0 107 78.5 192.5t201.5 107.5q-57 9 -98.5 42.5t-41.5 77.5q0 50 62.5 85t157.5 35h180v100h-594v100h1082v-100z" />
    <glyph glyph-name="uni0936094D0930Alt" horiz-adv-x="1256" 
d="M1326 940h-208v-800q0 -32 30 -56t70 -24v-60h-460v60q40 0 70 22.5t30 57.5v170q-288 0 -480 110q-214 -100 -320 -100v100q103 0 210 58q-210 123 -210 322q0 129 91 214.5t229 85.5q137 0 228.5 -81.5t91.5 -218.5q0 -211 -210 -320q132 -90 370 -90v550h-80v100h548
v-100zM444 792q0 228 -64 228q-68 0 -68 -228q0 -171 66 -246q66 73 66 246z" />
    <glyph glyph-name="uni0915094D0915" horiz-adv-x="1628" 
d="M1698 940h-764v-170q116 40 240 40q168 0 294 -46t126 -134q0 -138 -394 -162q354 -35 354 -168q0 -73 -99.5 -117.5t-268.5 -44.5q-120 0 -242 52l20 50q88 -32 130 -32q180 0 180 102q0 117 -290 140v40q330 22 330 144q0 49 -68.5 77.5t-141.5 28.5q-90 0 -170 -30
v-570q0 -41 42 -70.5t98 -29.5v-40h-540v40q56 0 98 29t42 71v30q-152 -70 -300 -70q-141 0 -230.5 53.5t-89.5 136.5q0 64 71 114t189 66q-117 7 -183.5 54.5t-66.5 103.5q0 80 85 131t225 51q183 0 300 -50v180h-680v100h1704v-100zM674 550v150q-82 38 -172 38
q-83 0 -135.5 -35.5t-52.5 -92.5q0 -45 51 -80.5t129 -35.5q83 0 180 56zM674 410v80l-100 -40zM674 230v130q-103 60 -200 60q-71 0 -125.5 -38t-54.5 -92q0 -50 51.5 -85t128.5 -35q94 0 200 60z" />
    <glyph glyph-name="uni0915094D0924" horiz-adv-x="1848" 
d="M1918 940h-784v-140q103 60 260 60q168 0 284 -104t116 -256q0 -159 -117.5 -269.5t-282.5 -110.5q-101 0 -200 70l20 70q36 -20 60 -20q109 0 184.5 76t75.5 184q0 109 -75.5 184.5t-184.5 75.5q-84 0 -140 -40v-580q0 -32 30 -56t70 -24v-60h-460v60q40 0 70 22.5
t30 57.5v420q-31 37 -83.5 63.5t-96.5 26.5q-115 0 -197.5 -75t-82.5 -185q0 -82 49 -157.5t131 -122.5l-240 -120q-95 79 -147.5 184.5t-52.5 215.5q0 86 43 162t117 118h-300v100h580q178 0 280 -100v270h-880v100h1924v-100z" />
    <glyph glyph-name="uni0915094D0932" horiz-adv-x="1518" 
d="M1588 940h-710v-114q96 50 234 50q152 0 256 -86t104 -210q0 -129 -105.5 -219.5t-254.5 -90.5q-86 0 -180 58l18 56q28 -14 54 -14q97 0 165.5 61.5t68.5 148.5q0 90 -68 152t-166 62q-66 0 -126 -32v-576q73 44 166 44q131 0 223.5 -85.5t92.5 -206.5
q0 -127 -90.5 -218.5t-217.5 -91.5q-48 0 -97.5 25.5t-82.5 70.5l46 42q27 -42 72 -42q56 0 95 56t39 140q0 90 -46.5 151t-115.5 61q-71 0 -120.5 -56.5t-49.5 -137.5h-64q0 82 -52 138t-130 56q-73 0 -126.5 -62.5t-53.5 -149.5q0 -81 50.5 -138.5t121.5 -57.5q63 0 90 42
l46 -42q-65 -96 -244 -96q-120 0 -208 92t-88 218q0 119 95.5 205.5t228.5 86.5q107 0 184 -44v166q-109 -82 -234 -82q-148 0 -254 92t-106 218q0 121 104.5 208.5t255.5 87.5q138 0 234 -50v114h-648v100h1594v-100zM642 402v360q-60 32 -126 32q-97 0 -165.5 -63.5
t-68.5 -150.5q0 -85 69.5 -147.5t164.5 -62.5q66 0 126 32z" />
    <glyph glyph-name="uni0915094D0935" horiz-adv-x="1602" 
d="M1672 940h-738v-170q68 40 220 40q168 0 284 -96t116 -234q0 -137 -124 -233.5t-296 -96.5q-122 0 -190 40l20 60q60 -20 106 -20q83 0 153.5 71t70.5 179q0 109 -66.5 184.5t-163.5 75.5q-73 0 -130 -30v-570q0 -41 42 -70.5t98 -29.5v-40h-540v40q56 0 98 29t42 71v30
q-152 -70 -310 -70q-127 0 -218.5 56t-91.5 134q0 62 74 111t186 59v10q-102 0 -176 47.5t-74 112.5q0 74 87 127t213 53q240 0 310 -50v180h-680v100h1678v-100zM674 550v150q-67 40 -200 40q-65 0 -112.5 -38.5t-47.5 -91.5q0 -49 48 -84.5t112 -35.5q94 0 200 60z
M674 410v80l-100 -40zM674 230v130q-103 60 -200 60q-73 0 -126.5 -38t-53.5 -92q0 -49 54 -84.5t126 -35.5q94 0 200 60z" />
    <glyph glyph-name="uni0917094D0928" horiz-adv-x="2046" 
d="M2116 940h-208v-800q0 -32 30 -56t70 -24v-60h-460v60q40 0 70 22.5t30 57.5v380q-246 0 -470 -60q129 0 219.5 -75.5t90.5 -184.5q0 -125 -110.5 -212.5t-269.5 -87.5q-157 0 -268.5 82t-111.5 198q0 190 249.5 305t670.5 115v340h-1210q157 -29 268.5 -122.5
t111.5 -217.5q0 -167 -129.5 -283.5t-310.5 -116.5q-131 0 -235.5 66.5t-104.5 173.5t104.5 173.5t235.5 66.5q125 0 180 -80q0 139 -93 239.5t-227 100.5h-244v100h2122v-100zM418 600q-51 0 -85.5 -48t-34.5 -112t35.5 -112t84.5 -48t84.5 46t35.5 114q0 69 -34 114.5
t-86 45.5zM1108 400q-66 0 -113 -65t-47 -155q0 -91 47.5 -155.5t112.5 -64.5q66 0 113 63t47 157t-46.5 157t-113.5 63z" />
    <glyph glyph-name="uni0919094D0915" horiz-adv-x="1258" 
d="M1328 940h-474v-150h-344q-138 0 -138 -72q0 -34 40.5 -56t99.5 -22h202q136 0 211 -44t75 -112q0 -156 -304 -182v-90q58 40 168 40q107 0 190.5 -57t83.5 -147t-83.5 -147t-190.5 -57q-69 0 -144 36v44q40 -12 80 -12q58 0 98 39t40 97q0 60 -35 105t-89 45
q-53 0 -118 -30v-324q0 -23 21.5 -41.5t50.5 -18.5v-24h-344v24q31 0 51.5 17.5t20.5 42.5v40q-67 -40 -168 -40q-117 0 -200.5 60t-83.5 144t83.5 144t200.5 60q100 0 168 -60v110q-290 26 -478 178l44 58q177 -148 446 -148q254 0 254 90q0 34 -44.5 57t-115.5 23h-184
q-127 0 -206.5 45t-79.5 111q0 64 70.5 104t189.5 40h230v80h-628v100h1334v-100zM496 -62v220q-47 26 -104 26q-61 0 -104.5 -40.5t-43.5 -95.5t37.5 -95.5t90.5 -40.5q62 0 124 26zM1156 594q-44 0 -77 33t-33 77q0 47 32 78.5t78 31.5q49 0 80.5 -31t31.5 -79
q0 -46 -32.5 -78t-79.5 -32z" />
    <glyph glyph-name="uni0919094D0916" horiz-adv-x="1258" 
d="M1328 940h-474v-150h-344q-138 0 -138 -72q0 -34 40.5 -56t99.5 -22h202q136 0 211 -44t75 -112q0 -53 -42 -94v-506q0 -23 19.5 -41.5t46.5 -18.5v-24h-324v24q25 0 41.5 17.5t16.5 42.5v40q-44 -40 -120 -40q-82 0 -136 42q-71 -126 -176 -126q-56 0 -111 37t-87 95
q-37 67 -90 84l20 44q32 -12 42 -12q45 0 78.5 42t33.5 106q0 120 -62 200q-72 36 -132 84l44 58q177 -148 446 -148q254 0 254 90q0 34 -44.5 57t-115.5 23h-184q-127 0 -206.5 45t-79.5 111q0 64 70.5 104t189.5 40h230v80h-628v100h1334v-100zM758 236v74
q-78 -12 -176 -12q-136 0 -272 38q64 -46 84 -83t20 -77q0 -76 -73 -124t-165 -48l80 -96q12 -15 40.5 -27.5t57.5 -12.5q69 0 122 96q-48 48 -48 116q0 77 59.5 131.5t140.5 54.5q96 0 130 -30zM758 -22v204q-44 26 -60 26q-41 0 -69.5 -38t-28.5 -90t30 -90t68 -38
q32 0 60 26zM1156 594q-44 0 -77 33t-33 77q0 47 32 78.5t78 31.5q49 0 80.5 -31t31.5 -79q0 -46 -32.5 -78t-79.5 -32z" />
    <glyph glyph-name="uni0919094D0917" horiz-adv-x="1258" 
d="M1328 940h-474v-150h-344q-138 0 -138 -72q0 -34 40.5 -56t99.5 -22h202q136 0 211 -44t75 -112q0 -104 -144 -152v-418q0 -23 21.5 -41.5t50.5 -18.5v-24h-346v24q31 0 51.5 17.5t20.5 42.5v386q-40 -2 -72 -2q-77 0 -162 14q156 -116 156 -228q0 -95 -88.5 -160.5
t-215.5 -65.5q-101 0 -173.5 45.5t-72.5 108.5q0 66 72 105t160 39q80 0 120 -52q5 22 5 44q0 105 -115 202q-150 50 -250 130l44 58q177 -148 446 -148q254 0 254 90q0 34 -44.5 57t-115.5 23h-184q-127 0 -206.5 45t-79.5 111q0 64 70.5 104t189.5 40h230v80h-628v100
h1334v-100zM258 112q-30 0 -51 -30t-21 -70t21.5 -70t50.5 -30q28 0 49 28t21 72q0 45 -20 72.5t-50 27.5zM1156 594q-44 0 -77 33t-33 77q0 47 32 78.5t78 31.5q49 0 80.5 -31t31.5 -79q0 -46 -32.5 -78t-79.5 -32z" />
    <glyph glyph-name="uni0919094D0918" horiz-adv-x="1258" 
d="M1328 940h-474v-150h-344q-138 0 -138 -72q0 -34 40.5 -56t99.5 -22h202q136 0 211 -44t75 -112q0 -123 -202 -166v-474q0 -23 21.5 -41.5t50.5 -18.5v-24h-344v24q31 0 51.5 17.5t20.5 42.5v32q-98 -68 -206 -68q-104 0 -195 38.5t-91 105.5q0 45 63.5 84t150.5 60
q-87 6 -150.5 41.5t-63.5 78.5q0 85 224 114q-186 48 -312 150l44 58q177 -148 446 -148q254 0 254 90q0 34 -44.5 57t-115.5 23h-184q-127 0 -206.5 45t-79.5 111q0 64 70.5 104t189.5 40h230v80h-628v100h1334v-100zM598 -78v376q-85 0 -136 8q-124 -35 -124 -100
q0 -36 41.5 -62t98.5 -26v-44q-60 0 -100 -29t-40 -69q0 -39 37.5 -63.5t86.5 -24.5q84 0 136 34zM1156 594q-44 0 -77 33t-33 77q0 47 32 78.5t78 31.5q49 0 80.5 -31t31.5 -79q0 -46 -32.5 -78t-79.5 -32z" />
    <glyph glyph-name="uni0919094D092E" horiz-adv-x="1258" 
d="M1328 940h-474v-150h-344q-138 0 -138 -72q0 -34 40.5 -56t99.5 -22h202q136 0 211 -44t75 -112q0 -78 -86 -126v-460q0 -26 22 -48t50 -22v-34h-348v34q29 0 50.5 20.5t21.5 49.5v180h-166v-56q0 -72 -74 -120t-190 -48q-95 0 -164.5 44t-69.5 106q0 66 62.5 108
t141.5 42h92v174q-195 48 -324 152l44 58q177 -148 446 -148q254 0 254 90q0 34 -44.5 57t-115.5 23h-184q-127 0 -206.5 45t-79.5 111q0 64 70.5 104t189.5 40h230v80h-628v100h1334v-100zM710 154v152q-81 -8 -128 -8h-38v-144h166zM342 -10v88q-144 0 -144 -82
q0 -35 22.5 -58.5t49.5 -23.5q72 0 72 76zM1156 594q-44 0 -77 33t-33 77q0 47 32 78.5t78 31.5q49 0 80.5 -31t31.5 -79q0 -46 -32.5 -78t-79.5 -32z" />
    <glyph glyph-name="uni0919094D0915094D0937" horiz-adv-x="1258" 
d="M1328 940h-474v-150h-344q-138 0 -138 -72q0 -34 40.5 -56t99.5 -22h202q136 0 211 -44t75 -112q0 -89 -108 -138v-542q0 -23 21.5 -41.5t50.5 -18.5v-24h-346v24q31 0 51.5 17.5t20.5 42.5v248h-332q-57 0 -95.5 -41.5t-38.5 -98.5q0 -51 35.5 -87.5t82.5 -36.5
q20 0 35 21t15 55v72h204q-14 -37 -14 -72v-84q0 -70 -78 -119t-184 -49v36q29 0 50.5 20.5t21.5 51.5v40q-38 -30 -108 -30q-100 0 -180 51t-80 133q0 71 60.5 119.5t157.5 70.5q-80 11 -127 50.5t-47 81.5q0 93 170 122q-125 46 -220 122l44 58q177 -148 446 -148
q254 0 254 90q0 34 -44.5 57t-115.5 23h-184q-127 0 -206.5 45t-79.5 111q0 64 70.5 104t189.5 40h230v80h-628v100h1334v-100zM308 322q-24 0 -42 -28.5t-18 -69.5q0 -33 17 -60.5t43 -27.5t43 27.5t17 60.5q0 41 -17.5 69.5t-42.5 28.5zM690 116v186q-50 -4 -108 -4
q-29 0 -78 4q44 -30 44 -78q0 -67 -118 -108h260zM1156 594q-44 0 -77 33t-33 77q0 47 32 78.5t78 31.5q49 0 80.5 -31t31.5 -79q0 -46 -32.5 -78t-79.5 -32z" />
    <glyph glyph-name="uni091A094D091A" horiz-adv-x="1982" 
d="M2052 940h-208v-800q0 -32 30 -56t70 -24v-60h-460v60q40 0 70 22.5t30 57.5v140q-71 -85 -174.5 -132.5t-215.5 -47.5q-115 0 -202.5 50.5t-132.5 126.5q-70 -83 -173 -130t-214 -47q-153 0 -261.5 91.5t-108.5 218.5q0 100 80 180t200 104v6h-360v80h700v-80h-88
q-120 0 -196 -76t-76 -184q0 -92 70 -156t174 -64q122 0 227 121q-9 33 -9 69q0 101 80 180.5t200 103.5v6h-360v80h700v-80h-90q-118 0 -194 -76t-76 -184q0 -94 70.5 -157t169.5 -63q70 0 138.5 41t121.5 119v560h-1590v100h2058v-100z" />
    <glyph glyph-name="uni091B094D0935" horiz-adv-x="1106" 
d="M1176 940h-292v-36q77 -18 124.5 -74.5t47.5 -129.5q0 -138 -67.5 -244t-174.5 -146v-466q0 -19 26.5 -34.5t63.5 -15.5v-34h-376v34q36 0 63 15.5t27 34.5v102q-87 -86 -248 -86q-107 0 -183.5 55.5t-76.5 132.5q0 78 75 133t185 55q161 0 248 -86v130q-46 -4 -66 -4
q-223 0 -358.5 58.5t-135.5 153.5q0 61 61.5 107.5t148.5 52.5q-69 6 -120.5 44.5t-51.5 95.5q0 56 72 96t200 40q61 0 126 -18l-18 -56q-32 12 -72 12q-42 0 -72 -27.5t-30 -68.5q0 -42 37 -69t85 -27h34v-64h-34q-51 0 -85.5 -31.5t-34.5 -74.5q0 -67 72.5 -116.5
t173.5 -49.5q107 0 192.5 62t119.5 164h-80q-89 0 -152.5 52.5t-63.5 123.5q0 58 39 104.5t103 63.5v36h-714v100h1182v-100zM862 622q18 35 18 96t-20.5 100.5t-49.5 39.5q-30 0 -49 -31.5t-19 -72.5q0 -53 22.5 -92.5t53.5 -39.5h44zM618 -14v124q-50 38 -134 38
q-64 0 -106 -29t-42 -71q0 -41 44 -70.5t104 -29.5q75 0 134 38z" />
    <glyph glyph-name="uni091C094D091C" horiz-adv-x="2106" 
d="M2176 940h-208v-800q0 -32 30 -56t70 -24v-60h-460v60q40 0 70 22.5t30 57.5v500h-390q92 -31 146 -110t54 -180q0 -127 -100.5 -218.5t-239.5 -91.5q-101 0 -192 48t-144 128q-46 -82 -134 -129t-190 -47q-179 0 -317.5 187.5t-162.5 462.5l60 10q36 -201 134.5 -350.5
t225.5 -149.5q65 0 112.5 58t47.5 142q0 101 -58.5 170.5t-141.5 69.5h-60v80h1350v220h-1714v100h2182v-100zM678 640q92 -31 146 -110t54 -180q0 -26 -8 -60q82 -90 208 -90q73 0 126.5 58.5t53.5 141.5q0 101 -58.5 170.5t-141.5 69.5h-380z" />
    <glyph glyph-name="uni091E094D091A" horiz-adv-x="1374" 
d="M1444 940h-208v-800q0 -32 30 -56t70 -24v-60h-460v60q40 0 70 22.5t30 57.5v126q-191 -216 -420 -216q-127 0 -218.5 66t-91.5 160q0 36 20 74l-230 -70l-20 80l820 220l20 -70l-310 -90q-90 -43 -90 -110q0 -57 56.5 -98.5t133.5 -41.5q76 0 164 50t166 136v404h-260
q-15 -104 -109 -162t-231 -58q-188 0 -280 124l64 36q67 -80 156 -80q73 0 126.5 52.5t53.5 127.5q0 76 -46 128t-114 52q-92 0 -172 -70l-62 46q92 104 274 104q132 0 231 -56t109 -154h260v90h-158v100h626v-100z" />
    <glyph glyph-name="uni091E094D091C" horiz-adv-x="1224" 
d="M1294 940h-206v-800q0 -40 30 -70t70 -30v-40h-420v40q41 0 70.5 28.5t29.5 71.5v290l-260 -40q150 -85 150 -240q0 -97 -86 -163.5t-204 -66.5q-171 0 -293 132.5t-137 317.5l100 20q12 -146 88 -248t172 -102q53 0 91.5 47.5t38.5 112.5q0 103 -100 160l-70 -10l-30 80
l540 80v250h-156q-14 -105 -107 -162.5t-229 -57.5q-188 0 -280 124l64 36q67 -80 156 -80q73 0 126.5 52.5t53.5 127.5q0 76 -46 128t-114 52q-92 0 -172 -70l-62 46q92 104 274 104q130 0 230 -56.5t110 -155.5h152v92h-128v100h554v-100z" />
    <glyph glyph-name="uni091F094D091F" horiz-adv-x="900" 
d="M970 940h-174v-160q-54 20 -230 20q-114 0 -192 -53t-78 -127q0 -73 80 -126.5t190 -53.5q129 0 250 100l40 -70q-30 -26 -60 -36v-260q-54 30 -228 30q-93 0 -162.5 -52t-69.5 -132q0 -70 67.5 -120t162.5 -50q120 0 250 110l40 -70q-166 -140 -350 -140
q-185 0 -317.5 79.5t-132.5 190.5q0 104 116 177t284 73h100v90q-22 -2 -48 -2q-187 0 -319.5 77.5t-132.5 184.5q0 100 117.5 170t282.5 70h100v80h-562v100h976v-100z" />
    <glyph glyph-name="uni091F094D0920" horiz-adv-x="920" 
d="M990 940h-190v-160q-54 20 -220 20q-118 0 -199 -53t-81 -127q0 -85 86.5 -137.5t193.5 -52.5q142 0 250 90l50 -60q-131 -110 -300 -110v-80q125 -23 202.5 -86.5t77.5 -143.5q0 -109 -116.5 -184.5t-283.5 -75.5q-165 0 -282.5 76t-117.5 184q0 81 79.5 149.5
t200.5 90.5v80q-121 22 -200.5 92.5t-79.5 157.5q0 104 116 177t284 73h100v80h-566v100h996v-100zM460 240q-67 0 -113.5 -60t-46.5 -140t48 -140t112 -60q65 0 112.5 58t47.5 142q0 85 -46 142.5t-114 57.5z" />
    <glyph glyph-name="uni091F094D092F" horiz-adv-x="2222" 
d="M2292 940h-208v-800q0 -32 30 -56t70 -24v-60h-460v60q40 0 70 22.5t30 57.5v220q-65 -113 -177.5 -176.5t-242.5 -63.5q-180 0 -310 124t-130 296q52 -4 112 -4q84 0 137 27t53 65q0 39 -51.5 65.5t-130.5 26.5h-450q-141 0 -230.5 -84t-89.5 -216q0 -127 93 -216.5
t239 -89.5q125 0 248 66l30 -50q-159 -130 -370 -130q-207 0 -353.5 117.5t-146.5 282.5q0 171 127.5 285.5t312.5 114.5h80v140h-580v100h2298v-100zM1824 500v440h-990v-140h380q141 0 225.5 -42.5t84.5 -117.5q0 -65 -77.5 -102.5t-222.5 -37.5q0 -95 82.5 -162.5
t197.5 -67.5q104 0 193 63.5t127 166.5z" />
    <glyph glyph-name="uni091F094D0935" horiz-adv-x="920" 
d="M990 940h-190v-178h-272q-96 0 -161 -47t-65 -115q0 -67 76 -114.5t180 -47.5q186 0 294 80l50 -62q-48 -38 -138 -70v-542q0 -19 26.5 -34.5t63.5 -15.5v-34h-346v34q36 0 63 15.5t27 34.5v82q-87 -86 -248 -86q-110 0 -190 74t-80 174q0 93 78.5 160.5t191.5 67.5
q161 0 248 -86v130q-46 -4 -84 -4q-167 0 -311.5 66.5t-144.5 179.5q0 96 111.5 164t268.5 68h156v106h-600v100h996v-100zM598 -14v204q-50 38 -124 38q-80 0 -134 -41.5t-54 -98.5t52.5 -98.5t125.5 -41.5q75 0 134 38z" />
    <glyph glyph-name="uni0920094D0920" horiz-adv-x="924" 
d="M994 940h-254v-100h-110q106 -39 168 -104t62 -136q0 -54 -33 -105.5t-87 -84.5v-150h-110q101 -18 165.5 -85.5t64.5 -154.5q0 -109 -116.5 -184.5t-283.5 -75.5q-165 0 -282.5 76t-117.5 184t117.5 184t282.5 76h40v50h-40q-164 0 -282 79.5t-118 190.5
q0 108 117.5 184t282.5 76h40v80h-506v100h1000v-100zM460 800q-67 0 -113.5 -60t-46.5 -140t48 -140t112 -60q65 0 112.5 58t47.5 142q0 85 -46 142.5t-114 57.5zM460 220q-67 0 -113.5 -60t-46.5 -140t48 -140t112 -60q65 0 112.5 58t47.5 142q0 85 -46 142.5t-114 57.5z
" />
    <glyph glyph-name="uni0920094D092F" horiz-adv-x="2390" 
d="M2460 940h-208v-800q0 -32 30 -56t70 -24v-60h-460v60q40 0 70 22.5t30 57.5v240q-42 -120 -150.5 -190t-239.5 -70q-177 0 -303.5 123.5t-126.5 296.5q83 0 141.5 32t58.5 78q0 47 -58.5 78.5t-141.5 31.5h-420q131 -36 215.5 -135t84.5 -225q0 -165 -146.5 -282.5
t-353.5 -117.5t-353.5 117.5t-146.5 282.5q0 167 145.5 283.5t354.5 116.5h100v140h-658v100h2466v-100zM1992 500v440h-1080v-100h410q129 0 219.5 -56t90.5 -134q0 -55 -58.5 -92.5t-141.5 -37.5q0 -115 75 -197.5t185 -82.5q91 0 174.5 70.5t125.5 189.5zM552 720
q-106 0 -173 -97t-67 -223t67 -223t173 -97t173 97t67 223t-67 223t-173 97z" />
    <glyph glyph-name="uni0921094D0921" horiz-adv-x="880" 
d="M950 940h-204v-140h-240q-51 0 -90.5 -24.5t-39.5 -65.5q0 -38 32 -64t94 -26h98q93 0 159.5 -36.5t66.5 -103.5q0 -82 -106 -131t-274 -49q-70 0 -70 -50q0 -20 21.5 -35t44.5 -15h156q91 0 159.5 -37.5t68.5 -102.5q0 -82 -106 -131t-274 -49q-207 0 -420 180l40 50
q167 -136 360 -136q71 0 115.5 24.5t44.5 61.5q0 35 -33.5 57.5t-100.5 22.5h-106q-89 0 -142.5 43t-53.5 97t48 80q-122 60 -172 120l40 40q148 -120 380 -120q56 0 98 23t42 57q0 35 -33.5 57.5t-86.5 22.5h-108q-96 0 -154 45t-58 111q0 62 56 103t144 41h160v80h-512
v100h956v-100z" />
    <glyph glyph-name="uni0921094D0922" horiz-adv-x="944" 
d="M1014 940h-222v-150h-280q-53 0 -91.5 -21.5t-38.5 -58.5q0 -70 148 -70h132q111 0 180.5 -45.5t69.5 -114.5q0 -36 -34 -74t-86 -54v-160h-230q-119 0 -204.5 -56t-85.5 -136t60 -140t144 -60q36 0 46 6q-90 53 -90 124q0 60 75.5 95t164.5 35q94 0 157 -40.5t63 -99.5
q0 -76 -114 -128t-306 -52q-181 0 -310.5 76t-129.5 184q0 104 128 177t312 73h80v60q-46 -4 -80 -4q-125 0 -241 45.5t-199 128.5l50 50q164 -140 390 -140q69 0 124.5 24t55.5 66q0 80 -122 80h-108q-122 0 -196 45.5t-74 108.5q0 64 73.5 110t176.5 46h150v70h-558v100
h1020v-100zM732 -80q0 35 -16.5 62.5t-43.5 27.5q-19 0 -34.5 -27t-15.5 -63q0 -51 40 -100q70 19 70 100z" />
    <glyph glyph-name="uni0921094D092F" horiz-adv-x="2352" 
d="M2422 940h-208v-800q0 -32 30 -56t70 -24v-60h-460v60q40 0 70 22.5t30 57.5v250q-45 -124 -151.5 -197t-238.5 -73q-185 0 -317.5 123.5t-132.5 296.5q112 0 196 29t84 71q0 36 -57 58t-143 22h-560q-160 0 -160 -86q0 -40 42.5 -67t111.5 -27h118q117 0 192.5 -59
t75.5 -161q0 -136 -125.5 -228t-324.5 -92q-182 0 -333.5 135t-206.5 345l80 20q41 -156 151 -258t249 -102q112 0 181 44.5t69 115.5q0 160 -196 160h-66q-122 0 -200 51.5t-78 128.5q0 69 74.5 114.5t197.5 45.5h168v140h-660v100h2428v-100zM1954 500v440h-1040v-140h430
q145 0 227.5 -44t82.5 -116q0 -66 -89.5 -113t-210.5 -47q0 -105 90 -172.5t210 -67.5q91 0 174.5 70.5t125.5 189.5z" />
    <glyph glyph-name="uni0922094D0922" horiz-adv-x="908" 
d="M978 940h-192v-200q-83 40 -240 40q-106 0 -178 -54t-72 -134q0 -92 61 -152t159 -60q38 0 44 2q-94 47 -94 134q0 62 59.5 103t130.5 41q75 0 127.5 -45t52.5 -115q0 -60 -50 -98v-240q-104 38 -240 38q-109 0 -179.5 -56t-70.5 -144q0 -86 61 -143t139 -57q31 0 52 6
q-80 47 -80 130q0 62 58 103t130 41q73 0 126.5 -38.5t53.5 -101.5q0 -85 -99 -142.5t-261 -57.5q-157 0 -288.5 71t-131.5 189t131.5 189t288.5 71h80v60h-80q-156 0 -288 74.5t-132 195.5q0 122 122.5 196t277.5 74h100v80h-562v100h984v-100zM718 510q0 33 -18 57.5
t-44 24.5q-30 0 -51 -25.5t-21 -64.5q0 -58 44 -102q90 27 90 110zM718 -64q0 33 -18 57.5t-44 24.5q-30 0 -51 -25.5t-21 -64.5q0 -58 44 -102q90 26 90 110z" />
    <glyph glyph-name="uni0922094D092F" horiz-adv-x="2510" 
d="M2580 940h-208v-800q0 -32 30 -56t70 -24v-60h-460v60q40 0 70 22.5t30 57.5v220q-65 -114 -169.5 -177t-220.5 -63q-185 0 -317.5 123.5t-132.5 296.5q96 0 188 27t92 73q0 38 -61 59t-139 21h-620q-189 0 -304.5 -82t-115.5 -218q0 -169 122 -264.5t318 -95.5
q-81 38 -130.5 107t-49.5 143q0 113 87.5 191.5t212.5 78.5q123 0 211.5 -81t88.5 -199q0 -125 -110.5 -212.5t-269.5 -87.5h-140q-271 0 -435.5 109.5t-164.5 290.5q0 182 162.5 291t437.5 109h100v140h-758v100h2586v-100zM2112 500v440h-1100v-140h490q117 0 213.5 -42.5
t96.5 -117.5q0 -73 -89 -116.5t-191 -43.5q0 -104 83.5 -172t196.5 -68q91 0 174.5 70.5t125.5 189.5zM852 480q-60 0 -60 -200q0 -89 18.5 -144.5t41.5 -55.5q60 0 60 200t-60 200z" />
    <glyph glyph-name="uni0926094D0917" horiz-adv-x="1050" 
d="M1120 940h-210v-220h-280q-153 0 -241.5 -75.5t-88.5 -206.5q0 -118 83 -193t207 -75q97 0 180 70q-16 88 -80 180h240q60 -102 60 -210q0 -93 -50 -176t-140 -134h-130q110 95 110 260q-103 -86 -236 -86q-92 0 -152 16q72 -90 72 -164q0 -89 -56.5 -144.5t-149.5 -55.5
q-79 0 -130.5 36.5t-51.5 101.5q0 51 49 84.5t113 33.5q22 0 46 -4q10 18 10 42q0 45 -32 90q-212 121 -212 330q0 156 128.5 258t333.5 102h178v140h-696v100h1126v-100z" />
    <glyph glyph-name="uni0926094D0918" horiz-adv-x="1376" 
d="M1446 940h-196v-220h-290q-150 0 -247 -76t-97 -216q0 -139 91.5 -223.5t212.5 -84.5q88 0 170 70q0 147 -70 230h240q50 -87 50 -220q0 -181 -180 -310l-130 10q78 79 90 230q-85 -100 -240 -100q-20 0 -42 8q16 -44 16 -86q0 -119 -78.5 -204.5t-187.5 -85.5
q-94 0 -153.5 78.5t-59.5 175.5q0 30 5 60q-89 -106 -198 -106q-56 0 -90 52t-34 118q0 121 103.5 213.5t256.5 108.5q-8 34 -8 78q0 149 128.5 254.5t311.5 105.5h200v140h-1026v100h1452v-100zM722 48q-107 20 -194 86t-126 158q-89 -18 -148.5 -76.5t-59.5 -129.5
q0 -33 19.5 -57.5t48.5 -24.5q23 0 46 13.5t36 36.5l30 52l114 -20q-50 -51 -50 -126q0 -59 39.5 -101.5t94.5 -42.5q67 0 112.5 50t45.5 120q0 32 -8 62z" />
    <glyph glyph-name="uni0926094D0926" horiz-adv-x="1036" 
d="M1106 940h-220v-180h-338q-142 0 -142 -86q0 -38 37.5 -66t96.5 -28h166v-80h-180q-95 0 -157.5 -53t-62.5 -127q0 -88 64.5 -149t155.5 -61q153 0 250 80q0 49 -20 140h230q6 -35 6 -74q0 -125 -69.5 -236.5t-186.5 -179.5l-60 60q89 80 106 212q-135 -112 -296 -112
q-207 0 -323.5 86.5t-116.5 223.5q0 94 68.5 163.5t171.5 86.5q-62 16 -101 57.5t-39 82.5q0 59 62 99.5t158 40.5h260v100h-632v100h1112v-100z" />
    <glyph glyph-name="uni0926094D0927" horiz-adv-x="1422" 
d="M1492 940h-188v-220h-280q-134 0 -217 -83t-83 -223q0 -139 78.5 -222.5t213.5 -83.5q49 0 108 32q6 36 6 66q0 62 -26 134h260q6 -32 6 -64q0 -119 -74 -229t-192 -177l-70 40q36 30 80 150q-115 -42 -205 -42q-21 0 -33 4q0 -90 -42.5 -191t-122 -163t-175.5 -62
t-165 61t-69 151q0 69 36 130q-78 -64 -158 -64q-84 0 -134 52.5t-50 139.5q0 105 80 192.5t168 87.5q98 0 98 -82q0 -34 -19.5 -57t-48.5 -23q-52 0 -52 46q0 5 -3 18t-1 20q-76 -26 -76 -124q0 -60 43 -103t103 -43q90 0 166 102l48 -44q-62 -66 -62 -128q0 -73 45 -115.5
t119 -42.5q94 0 146.5 83t59.5 159q-148 13 -247 128.5t-99 269.5q0 164 131 272t309 108h140v140h-1050v100h1498v-100z" />
    <glyph glyph-name="uni0926094D0928" horiz-adv-x="1036" 
d="M1106 940h-184v-220h-280q-128 0 -214 -85t-86 -215q0 -124 80.5 -212t219.5 -88q56 0 100 20q6 34 6 66q0 63 -26 134h260q0 -184 -82.5 -327.5t-217.5 -192.5l-48 58q88 69 108 182l-476 -114q26 -61 26 -110q0 -85 -49 -146.5t-125 -61.5q-87 0 -148.5 58.5
t-61.5 141.5q0 59 38.5 108.5t99.5 71.5l288 62q-105 28 -178.5 124.5t-73.5 225.5q0 157 128.5 268.5t335.5 111.5h116v140h-668v100h1112v-100zM185 -233q0 63 -35.5 124.5t-76.5 61.5q-46 0 -46 -78q0 -66 39.5 -124t75.5 -58q43 0 43 74z" />
    <glyph glyph-name="uni0926094D092C" horiz-adv-x="1380" 
d="M1450 940h-184v-220h-280q-125 0 -212.5 -87.5t-87.5 -212.5t87.5 -212.5t212.5 -87.5q63 0 100 20q6 34 6 58q0 68 -26 142h260q4 -22 4 -60q0 -113 -73 -219.5t-201 -180.5l-80 40q74 66 100 140q-82 -40 -210 -40q-71 0 -156 38q0 -149 -98.5 -257.5t-241.5 -108.5
q-141 0 -238.5 98t-97.5 256q0 141 100 229.5t270 88.5q54 0 70 -4q0 217 114.5 328.5t277.5 111.5h140v140h-1012v100h1456v-100zM654 76q-130 77 -172 232q-227 0 -282 -150l448 -98zM640 6l-456 96q-6 -24 -6 -34q0 -95 63.5 -156.5t176.5 -61.5q77 0 140.5 43.5
t81.5 112.5z" />
    <glyph glyph-name="uni0926094D092D" horiz-adv-x="1472" 
d="M1542 940h-210v-220h-280q-140 0 -240 -88t-100 -212q0 -125 87.5 -212.5t212.5 -87.5q108 0 190 70q-24 136 -90 230h240q60 -104 60 -210q0 -207 -180 -310h-140q110 93 110 210q-90 -90 -290 -90l-152 -138q38 -46 38 -116q0 -68 -56 -114t-128 -46q-51 0 -89.5 35.5
t-38.5 84.5q0 20 8.5 39.5t19.5 31.5t80 71l-70 74q-32 -55 -99.5 -90.5t-136.5 -35.5q-106 0 -182 67.5t-76 168.5t75.5 167.5t182.5 66.5q125 0 208 -94l206 -234l94 88q-142 37 -233 140t-91 234q0 164 131 272t309 108h200v140h-1118v100h1548v-100zM218 190
q-22 0 -22 -40q0 -34 26 -93t65.5 -99t62.5 -40q24 0 24 44q0 63 -62 145.5t-94 82.5z" />
    <glyph glyph-name="uni0926094D092E" horiz-adv-x="1428" 
d="M1498 940h-208v-800q0 -32 30 -56t70 -24v-60h-460v60q40 0 70 22.5t30 57.5v120h-240v-38q0 -86 -84.5 -144t-215.5 -58q-135 0 -217.5 59.5t-82.5 140.5q0 67 54 103.5t138 36.5h148v120h-260q-93 0 -166.5 47t-73.5 123t73.5 123t166.5 47h260v120h-536v100h1504v-100
zM1030 360v580h-240v-200h-376q-50 0 -87 -25t-37 -65q0 -39 36.5 -64.5t83.5 -25.5h120q0 24 18 42t42 18h200q25 0 42.5 -22.5t17.5 -57.5q0 -24 -18 -42t-42 -18v-120h240zM530 180v80q-34 0 -57 -23t-23 -57q0 -33 14 -56.5t26 -23.5q14 0 27 24t13 56z" />
    <glyph glyph-name="uni0926094D092F" horiz-adv-x="1384" 
d="M1454 940h-208v-800q0 -32 30 -56t70 -24v-60h-460v60q40 0 70 22.5t30 57.5v190q-107 -126 -244.5 -198t-275.5 -72q-172 0 -296 85.5t-124 204.5q0 78 64 136t156 74q-58 10 -99 49t-41 91q0 58 63 99t157 41h220v100h-572v100h1460v-100zM986 440v500h-160v-180h-320
q-52 0 -86 -23t-34 -57q0 -40 36 -70t84 -30h200v-80h-200q-94 0 -157 -47t-63 -113q0 -65 64.5 -112.5t155.5 -47.5q152 0 280 68.5t200 191.5z" />
    <glyph glyph-name="uni0926094D0935" horiz-adv-x="1396" 
d="M1466 940h-188v-220h-280q-124 0 -212 -87.5t-88 -212.5q0 -129 83.5 -224.5t216.5 -95.5q52 0 100 30q4 31 4 64q0 74 -24 146h260q6 -33 6 -66q0 -121 -73 -232t-193 -182l-60 60q29 25 70 140q-72 -42 -186 -42q-104 0 -180 50q0 -153 -100.5 -265.5t-247.5 -112.5
q-142 0 -242 101t-100 243q0 143 97.5 244.5t240.5 101.5q71 0 126 -20v60q0 160 111 270t271 110h140v140h-1024v100h1472v-100zM676 92q-128 74 -170 226q-13 2 -76 2q-92 0 -151 -63t-59 -155q0 -102 66.5 -173t153.5 -71q97 0 166.5 68.5t69.5 165.5z" />
    <glyph glyph-name="uni0928094D0928" horiz-adv-x="1286" 
d="M1356 940h-208v-800q0 -32 30 -56t70 -24v-60h-460v60q40 0 70 22.5t30 57.5v110l-436 -104q29 -63 29 -122q0 -87 -48 -142t-120 -55q-74 0 -137 64.5t-63 140.5q0 52 34 102.5t95 73.5l646 146v172l-466 120q-9 -98 -69.5 -163t-132.5 -65q-76 -1 -124 59.5t-48 139.5
q0 92 57.5 142t128.5 51q19 0 38 -4l616 -172v306h-894v100h1362v-100zM308 650q0 45 -15 74t-42 29q-33 0 -60 -54.5t-27 -111.5q0 -48 16 -75.5t41 -27.5q30 0 58.5 52.5t28.5 113.5zM385 -31q0 63 -35.5 124.5t-76.5 61.5q-46 0 -46 -78q0 -66 39.5 -124t75.5 -58
q43 0 43 74z" />
    </font>
</defs>
</svg>
